<?xml version="1.0" encoding="UTF-8" standalone="no"?>
<!DOCTYPE svg PUBLIC "-//W3C//DTD SVG 1.1//EN"
 "http://www.w3.org/Graphics/SVG/1.1/DTD/svg11.dtd">
<!-- Generated by graphviz version 2.40.1 (20161225.0304)
 -->
<!-- Title: a_graph Pages: 1 -->
<svg width="524pt" height="119pt"
 viewBox="0.00 0.00 523.50 119.00" xmlns="http://www.w3.org/2000/svg" xmlns:xlink="http://www.w3.org/1999/xlink">
<g id="graph0" class="graph" transform="scale(1 1) rotate(0) translate(4 115)">
<title>a_graph</title>
<polygon fill="#ffffff" stroke="transparent" points="-4,4 -4,-115 519.5,-115 519.5,4 -4,4"/>
<!-- T15977 -->
<g id="node1" class="node">
<title>T15977</title>
<polygon fill="none" stroke="#0058ad" points="96.5,-81.5 96.5,-110.5 342.5,-110.5 342.5,-81.5 96.5,-81.5"/>
<text text-anchor="middle" x="136" y="-92.3" font-family="Times,serif" font-size="14.00" fill="#0058ad">a 254 12</text>
<polyline fill="none" stroke="#0058ad" points="175.5,-81.5 175.5,-110.5 "/>
<text text-anchor="middle" x="219.5" y="-92.3" font-family="Times,serif" font-size="14.00" fill="#0058ad">r 254 [12]</text>
<polyline fill="none" stroke="#0058ad" points="263.5,-81.5 263.5,-110.5 "/>
<text text-anchor="middle" x="303" y="-92.3" font-family="Times,serif" font-size="14.00" fill="#0058ad">a 257 13</text>
</g>
<!-- T16325 -->
<g id="node2" class="node">
<title>T16325</title>
<polygon fill="none" stroke="#0058ad" points="0,-.5 0,-29.5 287,-29.5 287,-.5 0,-.5"/>
<text text-anchor="middle" x="38.5" y="-11.3" font-family="Times,serif" font-size="14.00" fill="#0058ad">r 254 nil</text>
<polyline fill="none" stroke="#0058ad" points="77,-.5 77,-29.5 "/>
<text text-anchor="middle" x="143.5" y="-11.3" font-family="Times,serif" font-size="14.00" fill="#0058ad">r 262 [2 3 5 6 7]</text>
<polyline fill="none" stroke="#0058ad" points="210,-.5 210,-29.5 "/>
<text text-anchor="middle" x="248.5" y="-11.3" font-family="Times,serif" font-size="14.00" fill="#0058ad">r 254 nil</text>
</g>
<!-- T15977&#45;&gt;T16325 -->
<g id="edge1" class="edge">
<title>T15977&#45;&gt;T16325</title>
<path fill="none" stroke="#0050c0" d="M207.3019,-81.4453C199.0755,-71.7843 187.8701,-58.92 177.5,-48 173.9101,-44.2198 170.014,-40.2888 166.1832,-36.5134"/>
<polygon fill="#0050c0" stroke="#0050c0" points="168.6047,-33.9862 158.9947,-29.5254 163.7254,-39.0054 168.6047,-33.9862"/>
<text text-anchor="middle" x="198" y="-51.8" font-family="Times,serif" font-size="14.00" fill="#0050c0">rt</text>
</g>
<!-- T16326 -->
<g id="node3" class="node">
<title>T16326</title>
<polygon fill="none" stroke="#0058ad" points="305.5,-.5 305.5,-29.5 515.5,-29.5 515.5,-.5 305.5,-.5"/>
<text text-anchor="middle" x="344" y="-11.3" font-family="Times,serif" font-size="14.00" fill="#0058ad">r 254 nil</text>
<polyline fill="none" stroke="#0058ad" points="382.5,-.5 382.5,-29.5 "/>
<text text-anchor="middle" x="449" y="-11.3" font-family="Times,serif" font-size="14.00" fill="#0058ad">r 262 [2 3 5 6 7]</text>
</g>
<!-- T15977&#45;&gt;T16326 -->
<g id="edge2" class="edge">
<title>T15977&#45;&gt;T16326</title>
<path fill="none" stroke="#0050c0" d="M254.0887,-81.3315C285.7295,-67.9132 332.6805,-48.002 366.8831,-33.4972"/>
<polygon fill="#0050c0" stroke="#0050c0" points="368.3288,-36.6859 376.1687,-29.5594 365.5958,-30.2415 368.3288,-36.6859"/>
<text text-anchor="middle" x="338" y="-51.8" font-family="Times,serif" font-size="14.00" fill="#0050c0">rt</text>
</g>
<!-- T16325&#45;&gt;T15977 -->
<g id="edge3" class="edge">
<title>T16325:f0&#45;&gt;T15977:f0</title>
<path fill="none" stroke="#5b00c0" d="M38.5,-30C38.5,-65.542 54.1975,-91.0598 86.4606,-95.3582"/>
<polygon fill="#5b00c0" stroke="#5b00c0" points="86.297,-98.8548 96.5,-96 86.7437,-91.869 86.297,-98.8548"/>
<text text-anchor="middle" x="54" y="-51.8" font-family="Times,serif" font-size="14.00" fill="#5b00c0">rw</text>
</g>
<!-- T16326&#45;&gt;T15977 -->
<g id="edge4" class="edge">
<title>T16326:f0&#45;&gt;T15977:f0</title>
<path fill="none" stroke="#5b00c0" d="M305.5,-15C297.7254,-15 303.0107,-25.7508 296.5,-30 243.2259,-64.7691 207.4587,-12.7525 154.5,-48 143.6033,-55.2525 138.1965,-60.9031 136.3059,-70.9215"/>
<polygon fill="#5b00c0" stroke="#5b00c0" points="132.8083,-70.7528 135.5,-81 139.786,-71.3108 132.8083,-70.7528"/>
<text text-anchor="middle" x="164" y="-51.8" font-family="Times,serif" font-size="14.00" fill="#5b00c0">rw</text>
</g>
</g>
</svg>
