<?xml version="1.0" encoding="UTF-8" standalone="no"?>
<!DOCTYPE svg PUBLIC "-//W3C//DTD SVG 1.1//EN"
 "http://www.w3.org/Graphics/SVG/1.1/DTD/svg11.dtd">
<!-- Generated by graphviz version 2.40.1 (20161225.0304)
 -->
<!-- Title: a_graph Pages: 1 -->
<svg width="290pt" height="200pt"
 viewBox="0.00 0.00 289.50 200.00" xmlns="http://www.w3.org/2000/svg" xmlns:xlink="http://www.w3.org/1999/xlink">
<g id="graph0" class="graph" transform="scale(1 1) rotate(0) translate(4 196)">
<title>a_graph</title>
<polygon fill="#ffffff" stroke="transparent" points="-4,4 -4,-196 285.5,-196 285.5,4 -4,4"/>
<!-- T167275 -->
<g id="node1" class="node">
<title>T167275</title>
<polygon fill="none" stroke="#0058ad" points="0,-162.5 0,-191.5 174,-191.5 174,-162.5 0,-162.5"/>
<text text-anchor="middle" x="44" y="-173.3" font-family="Times,serif" font-size="14.00" fill="#0058ad">a 2444 30</text>
<polyline fill="none" stroke="#0058ad" points="88,-162.5 88,-191.5 "/>
<text text-anchor="middle" x="131" y="-173.3" font-family="Times,serif" font-size="14.00" fill="#0058ad">r 2572 nil</text>
</g>
<!-- T167093 -->
<g id="node3" class="node">
<title>T167093</title>
<polygon fill="none" stroke="#0058ad" points="26.5,-81.5 26.5,-110.5 281.5,-110.5 281.5,-81.5 26.5,-81.5"/>
<text text-anchor="middle" x="66" y="-92.3" font-family="Times,serif" font-size="14.00" fill="#0058ad">a 2572 1</text>
<polyline fill="none" stroke="#0058ad" points="105.5,-81.5 105.5,-110.5 "/>
<text text-anchor="middle" x="149.5" y="-92.3" font-family="Times,serif" font-size="14.00" fill="#0058ad">r 2572 [1]</text>
<polyline fill="none" stroke="#0058ad" points="193.5,-81.5 193.5,-110.5 "/>
<text text-anchor="middle" x="237.5" y="-92.3" font-family="Times,serif" font-size="14.00" fill="#0058ad">a 2571 30</text>
</g>
<!-- T167275&#45;&gt;T167093 -->
<g id="edge1" class="edge">
<title>T167275:f1&#45;&gt;T167093:f0</title>
<path fill="none" stroke="#5b00c0" d="M131,-162C131,-143.8647 121.1261,-140.3729 107,-129 95.3739,-119.6398 78.1245,-125.3892 70.2264,-120.4532"/>
<polygon fill="#5b00c0" stroke="#5b00c0" points="73.2768,-118.7006 66,-111 66.8863,-121.5577 73.2768,-118.7006"/>
<text text-anchor="middle" x="133.5" y="-132.8" font-family="Times,serif" font-size="14.00" fill="#5b00c0">rw</text>
</g>
<!-- T167261 -->
<g id="node2" class="node">
<title>T167261</title>
<polygon fill="none" stroke="#0058ad" points="61,-.5 61,-29.5 147,-29.5 147,-.5 61,-.5"/>
<text text-anchor="middle" x="104" y="-11.3" font-family="Times,serif" font-size="14.00" fill="#0058ad">r 2572 nil</text>
</g>
<!-- T167261&#45;&gt;T167093 -->
<g id="edge2" class="edge">
<title>T167261:f0&#45;&gt;T167093:f0</title>
<path fill="none" stroke="#5b00c0" d="M89.6338,-29.6269C80.7224,-40.017 70.3627,-54.9193 67.0648,-70.9233"/>
<polygon fill="#5b00c0" stroke="#5b00c0" points="63.5703,-70.6876 66,-81 70.5315,-71.4232 63.5703,-70.6876"/>
<text text-anchor="middle" x="85.5" y="-51.8" font-family="Times,serif" font-size="14.00" fill="#5b00c0">rw</text>
</g>
<!-- T167093&#45;&gt;T167275 -->
<g id="edge4" class="edge">
<title>T167093&#45;&gt;T167275</title>
<path fill="none" stroke="#0050c0" d="M110.6218,-110.5779C102.5404,-115.2298 95.0587,-121.2547 90,-129 85.5555,-135.805 84.0572,-144.375 83.9073,-152.384"/>
<polygon fill="#0050c0" stroke="#0050c0" points="80.4115,-152.5589 84.3523,-162.3935 87.4046,-152.2479 80.4115,-152.5589"/>
<text text-anchor="middle" x="96.5" y="-132.8" font-family="Times,serif" font-size="14.00" fill="#0050c0">rt</text>
</g>
<!-- T167093&#45;&gt;T167261 -->
<g id="edge3" class="edge">
<title>T167093&#45;&gt;T167261</title>
<path fill="none" stroke="#0050c0" d="M144.8292,-81.1434C137.4992,-69.2687 127.0849,-52.3976 118.6091,-38.6667"/>
<polygon fill="#0050c0" stroke="#0050c0" points="121.3437,-36.4334 113.1126,-29.7625 115.3871,-40.1103 121.3437,-36.4334"/>
<text text-anchor="middle" x="139.5" y="-51.8" font-family="Times,serif" font-size="14.00" fill="#0050c0">rt</text>
</g>
</g>
</svg>
