<?xml version="1.0" encoding="UTF-8" standalone="no"?>
<!DOCTYPE svg PUBLIC "-//W3C//DTD SVG 1.1//EN"
 "http://www.w3.org/Graphics/SVG/1.1/DTD/svg11.dtd">
<!-- Generated by graphviz version 2.40.1 (20161225.0304)
 -->
<!-- Title: a_graph Pages: 1 -->
<svg width="474pt" height="605pt"
 viewBox="0.00 0.00 474.00 605.00" xmlns="http://www.w3.org/2000/svg" xmlns:xlink="http://www.w3.org/1999/xlink">
<g id="graph0" class="graph" transform="scale(1 1) rotate(0) translate(4 601)">
<title>a_graph</title>
<polygon fill="#ffffff" stroke="transparent" points="-4,4 -4,-601 470,-601 470,4 -4,4"/>
<!-- T375 -->
<g id="node1" class="node">
<title>T375</title>
<polygon fill="none" stroke="#0058ad" points="0,-567.5 0,-596.5 320,-596.5 320,-567.5 0,-567.5"/>
<text text-anchor="middle" x="41.5" y="-578.3" font-family="Times,serif" font-size="14.00" fill="#0058ad">w 124 18</text>
<polyline fill="none" stroke="#0058ad" points="83,-567.5 83,-596.5 "/>
<text text-anchor="middle" x="121.5" y="-578.3" font-family="Times,serif" font-size="14.00" fill="#0058ad">r 123 11</text>
<polyline fill="none" stroke="#0058ad" points="160,-567.5 160,-596.5 "/>
<text text-anchor="middle" x="198.5" y="-578.3" font-family="Times,serif" font-size="14.00" fill="#0058ad">r 133 13</text>
<polyline fill="none" stroke="#0058ad" points="237,-567.5 237,-596.5 "/>
<text text-anchor="middle" x="278.5" y="-578.3" font-family="Times,serif" font-size="14.00" fill="#0058ad">w 124 19</text>
</g>
<!-- T377 -->
<g id="node5" class="node">
<title>T377</title>
<polygon fill="none" stroke="#0058ad" points="239,-486.5 239,-515.5 393,-515.5 393,-486.5 239,-486.5"/>
<text text-anchor="middle" x="277.5" y="-497.3" font-family="Times,serif" font-size="14.00" fill="#0058ad">r 124 19</text>
<polyline fill="none" stroke="#0058ad" points="316,-486.5 316,-515.5 "/>
<text text-anchor="middle" x="354.5" y="-497.3" font-family="Times,serif" font-size="14.00" fill="#0058ad">r 133 13</text>
</g>
<!-- T375&#45;&gt;T377 -->
<g id="edge1" class="edge">
<title>T375:f3&#45;&gt;T377:f0</title>
<path fill="none" stroke="#c000a5" d="M279,-567C279,-548.2147 277.6284,-541.1238 277.1569,-526.3584"/>
<polygon fill="#c000a5" stroke="#c000a5" points="280.6512,-525.9458 277,-516 273.652,-526.0519 280.6512,-525.9458"/>
<text text-anchor="middle" x="287.5" y="-537.8" font-family="Times,serif" font-size="14.00" fill="#c000a5">wr</text>
</g>
<!-- T367 -->
<g id="node2" class="node">
<title>T367</title>
<polygon fill="none" stroke="#0058ad" points="103.5,-.5 103.5,-29.5 260.5,-29.5 260.5,-.5 103.5,-.5"/>
<text text-anchor="middle" x="140.5" y="-11.3" font-family="Times,serif" font-size="14.00" fill="#0058ad">w 134 1</text>
<polyline fill="none" stroke="#0058ad" points="177.5,-.5 177.5,-29.5 "/>
<text text-anchor="middle" x="219" y="-11.3" font-family="Times,serif" font-size="14.00" fill="#0058ad">w 123 11</text>
</g>
<!-- T367&#45;&gt;T375 -->
<g id="edge2" class="edge">
<title>T367:f1&#45;&gt;T375:f1</title>
<path fill="none" stroke="#c000a5" d="M219,-30C219,-78.8889 131,-47.1111 131,-96 131,-501 131,-501 131,-501 131,-526.9596 123.3438,-535.3065 121.4297,-556.8629"/>
<polygon fill="#c000a5" stroke="#c000a5" points="117.9267,-556.8607 121,-567 124.9205,-557.1572 117.9267,-556.8607"/>
<text text-anchor="middle" x="140.5" y="-294.8" font-family="Times,serif" font-size="14.00" fill="#c000a5">wr</text>
</g>
<!-- T363 -->
<g id="node3" class="node">
<title>T363</title>
<polygon fill="none" stroke="#0058ad" points="255,-162.5 255,-191.5 323,-191.5 323,-162.5 255,-162.5"/>
<text text-anchor="middle" x="289" y="-173.3" font-family="Times,serif" font-size="14.00" fill="#0058ad">r 132 9</text>
</g>
<!-- T365 -->
<g id="node7" class="node">
<title>T365</title>
<polygon fill="none" stroke="#0058ad" points="193,-81.5 193,-110.5 347,-110.5 347,-81.5 193,-81.5"/>
<text text-anchor="middle" x="231.5" y="-92.3" font-family="Times,serif" font-size="14.00" fill="#0058ad">r 123 10</text>
<polyline fill="none" stroke="#0058ad" points="270,-81.5 270,-110.5 "/>
<text text-anchor="middle" x="308.5" y="-92.3" font-family="Times,serif" font-size="14.00" fill="#0058ad">r 124 16</text>
</g>
<!-- T363&#45;&gt;T365 -->
<g id="edge3" class="edge">
<title>T363&#45;&gt;T365</title>
<path fill="none" stroke="#0050c0" d="M285.5151,-162.1434C282.81,-150.6112 278.9996,-134.3668 275.832,-120.8626"/>
<polygon fill="#0050c0" stroke="#0050c0" points="279.1541,-119.6989 273.4628,-110.7625 272.3391,-121.2975 279.1541,-119.6989"/>
<text text-anchor="middle" x="287.5" y="-132.8" font-family="Times,serif" font-size="14.00" fill="#0050c0">rt</text>
</g>
<!-- T361 -->
<g id="node4" class="node">
<title>T361</title>
<polygon fill="none" stroke="#0058ad" points="227.5,-243.5 227.5,-272.5 378.5,-272.5 378.5,-243.5 227.5,-243.5"/>
<text text-anchor="middle" x="269" y="-254.3" font-family="Times,serif" font-size="14.00" fill="#0058ad">w 133 12</text>
<polyline fill="none" stroke="#0058ad" points="310.5,-243.5 310.5,-272.5 "/>
<text text-anchor="middle" x="344.5" y="-254.3" font-family="Times,serif" font-size="14.00" fill="#0058ad">r 134 4</text>
</g>
<!-- T361&#45;&gt;T363 -->
<g id="edge4" class="edge">
<title>T361&#45;&gt;T363</title>
<path fill="none" stroke="#0050c0" d="M300.4322,-243.1434C298.439,-231.6112 295.6313,-215.3668 293.2972,-201.8626"/>
<polygon fill="#0050c0" stroke="#0050c0" points="296.7036,-201.0202 291.5515,-191.7625 289.8059,-202.2125 296.7036,-201.0202"/>
<text text-anchor="middle" x="303.5" y="-213.8" font-family="Times,serif" font-size="14.00" fill="#0050c0">rt</text>
</g>
<!-- T379 -->
<g id="node6" class="node">
<title>T379</title>
<polygon fill="none" stroke="#0058ad" points="236.5,-405.5 236.5,-434.5 393.5,-434.5 393.5,-405.5 236.5,-405.5"/>
<text text-anchor="middle" x="278" y="-416.3" font-family="Times,serif" font-size="14.00" fill="#0058ad">w 133 14</text>
<polyline fill="none" stroke="#0058ad" points="319.5,-405.5 319.5,-434.5 "/>
<text text-anchor="middle" x="356.5" y="-416.3" font-family="Times,serif" font-size="14.00" fill="#0058ad">w 134 2</text>
</g>
<!-- T377&#45;&gt;T379 -->
<g id="edge5" class="edge">
<title>T377&#45;&gt;T379</title>
<path fill="none" stroke="#0050c0" d="M315.8166,-486.1434C315.6742,-474.6112 315.4737,-458.3668 315.3069,-444.8626"/>
<polygon fill="#0050c0" stroke="#0050c0" points="318.8055,-444.7185 315.1823,-434.7625 311.8061,-444.8049 318.8055,-444.7185"/>
<text text-anchor="middle" x="321.5" y="-456.8" font-family="Times,serif" font-size="14.00" fill="#0050c0">rt</text>
</g>
<!-- T383 -->
<g id="node8" class="node">
<title>T383</title>
<polygon fill="none" stroke="#0058ad" points="164,-324.5 164,-353.5 466,-353.5 466,-324.5 164,-324.5"/>
<text text-anchor="middle" x="201" y="-335.3" font-family="Times,serif" font-size="14.00" fill="#0058ad">w 134 3</text>
<polyline fill="none" stroke="#0058ad" points="238,-324.5 238,-353.5 "/>
<text text-anchor="middle" x="276.5" y="-335.3" font-family="Times,serif" font-size="14.00" fill="#0058ad">r 133 14</text>
<polyline fill="none" stroke="#0058ad" points="315,-324.5 315,-353.5 "/>
<text text-anchor="middle" x="352" y="-335.3" font-family="Times,serif" font-size="14.00" fill="#0058ad">w 134 4</text>
<polyline fill="none" stroke="#0058ad" points="389,-324.5 389,-353.5 "/>
<text text-anchor="middle" x="427.5" y="-335.3" font-family="Times,serif" font-size="14.00" fill="#0058ad">r 133 14</text>
</g>
<!-- T379&#45;&gt;T383 -->
<g id="edge6" class="edge">
<title>T379:f0&#45;&gt;T383:f1</title>
<path fill="none" stroke="#c000a5" d="M278,-405C278,-386.2147 276.6284,-379.1238 276.1569,-364.3584"/>
<polygon fill="#c000a5" stroke="#c000a5" points="279.6512,-363.9458 276,-354 272.652,-364.0519 279.6512,-363.9458"/>
<text text-anchor="middle" x="286.5" y="-375.8" font-family="Times,serif" font-size="14.00" fill="#c000a5">wr</text>
</g>
<!-- T365&#45;&gt;T367 -->
<g id="edge7" class="edge">
<title>T365&#45;&gt;T367</title>
<path fill="none" stroke="#0050c0" d="M253.8594,-81.1434C240.3383,-68.6978 220.8545,-50.7638 205.5851,-36.709"/>
<polygon fill="#0050c0" stroke="#0050c0" points="207.7662,-33.9597 198.0382,-29.7625 203.0256,-39.1101 207.7662,-33.9597"/>
<text text-anchor="middle" x="239.5" y="-51.8" font-family="Times,serif" font-size="14.00" fill="#0050c0">rt</text>
</g>
<!-- T383&#45;&gt;T361 -->
<g id="edge8" class="edge">
<title>T383:f2&#45;&gt;T361:f1</title>
<path fill="none" stroke="#c000a5" d="M352,-324C352,-304.8744 347.1085,-298.0738 345.5034,-282.9924"/>
<polygon fill="#c000a5" stroke="#c000a5" points="348.9988,-282.8112 345,-273 342.0077,-283.1635 348.9988,-282.8112"/>
<text text-anchor="middle" x="359.5" y="-294.8" font-family="Times,serif" font-size="14.00" fill="#c000a5">wr</text>
</g>
</g>
</svg>
