<?xml version="1.0" encoding="UTF-8" standalone="no"?>
<!DOCTYPE svg PUBLIC "-//W3C//DTD SVG 1.1//EN"
 "http://www.w3.org/Graphics/SVG/1.1/DTD/svg11.dtd">
<!-- Generated by graphviz version 2.40.1 (20161225.0304)
 -->
<!-- Title: a_graph Pages: 1 -->
<svg width="709pt" height="929pt"
 viewBox="0.00 0.00 708.50 929.00" xmlns="http://www.w3.org/2000/svg" xmlns:xlink="http://www.w3.org/1999/xlink">
<g id="graph0" class="graph" transform="scale(1 1) rotate(0) translate(4 925)">
<title>a_graph</title>
<polygon fill="#ffffff" stroke="transparent" points="-4,4 -4,-925 704.5,-925 704.5,4 -4,4"/>
<!-- T165 -->
<g id="node1" class="node">
<title>T165</title>
<polygon fill="none" stroke="#0058ad" points="472.5,-891.5 472.5,-920.5 700.5,-920.5 700.5,-891.5 472.5,-891.5"/>
<text text-anchor="middle" x="514" y="-902.3" font-family="Times,serif" font-size="14.00" fill="#0058ad">w 128 32</text>
<polyline fill="none" stroke="#0058ad" points="555.5,-891.5 555.5,-920.5 "/>
<text text-anchor="middle" x="594" y="-902.3" font-family="Times,serif" font-size="14.00" fill="#0058ad">r 128 32</text>
<polyline fill="none" stroke="#0058ad" points="632.5,-891.5 632.5,-920.5 "/>
<text text-anchor="middle" x="666.5" y="-902.3" font-family="Times,serif" font-size="14.00" fill="#0058ad">r 122 2</text>
</g>
<!-- T79 -->
<g id="node12" class="node">
<title>T79</title>
<polygon fill="none" stroke="#0058ad" points="243,-810.5 243,-839.5 610,-839.5 610,-810.5 243,-810.5"/>
<text text-anchor="middle" x="280" y="-821.3" font-family="Times,serif" font-size="14.00" fill="#0058ad">w 121 1</text>
<polyline fill="none" stroke="#0058ad" points="317,-810.5 317,-839.5 "/>
<text text-anchor="middle" x="355.5" y="-821.3" font-family="Times,serif" font-size="14.00" fill="#0058ad">r 128 32</text>
<polyline fill="none" stroke="#0058ad" points="394,-810.5 394,-839.5 "/>
<text text-anchor="middle" x="431" y="-821.3" font-family="Times,serif" font-size="14.00" fill="#0058ad">w 128 1</text>
<polyline fill="none" stroke="#0058ad" points="468,-810.5 468,-839.5 "/>
<text text-anchor="middle" x="502" y="-821.3" font-family="Times,serif" font-size="14.00" fill="#0058ad">r 122 2</text>
<polyline fill="none" stroke="#0058ad" points="536,-810.5 536,-839.5 "/>
<text text-anchor="middle" x="573" y="-821.3" font-family="Times,serif" font-size="14.00" fill="#0058ad">w 128 2</text>
</g>
<!-- T165&#45;&gt;T79 -->
<g id="edge1" class="edge">
<title>T165:f0&#45;&gt;T79:f1</title>
<path fill="none" stroke="#c000a5" d="M472.5,-906C416.4119,-906 362.4471,-900.4424 356.118,-850.2676"/>
<polygon fill="#c000a5" stroke="#c000a5" points="359.5945,-849.7716 355.5,-840 352.6072,-850.1922 359.5945,-849.7716"/>
<text text-anchor="middle" x="373" y="-861.8" font-family="Times,serif" font-size="14.00" fill="#c000a5">wr</text>
</g>
<!-- T147 -->
<g id="node2" class="node">
<title>T147</title>
<polygon fill="none" stroke="#0058ad" points="219,-162.5 219,-191.5 610,-191.5 610,-162.5 219,-162.5"/>
<text text-anchor="middle" x="253" y="-173.3" font-family="Times,serif" font-size="14.00" fill="#0058ad">r 123 3</text>
<polyline fill="none" stroke="#0058ad" points="287,-162.5 287,-191.5 "/>
<text text-anchor="middle" x="324" y="-173.3" font-family="Times,serif" font-size="14.00" fill="#0058ad">w 124 9</text>
<polyline fill="none" stroke="#0058ad" points="361,-162.5 361,-191.5 "/>
<text text-anchor="middle" x="402.5" y="-173.3" font-family="Times,serif" font-size="14.00" fill="#0058ad">w 126 25</text>
<polyline fill="none" stroke="#0058ad" points="444,-162.5 444,-191.5 "/>
<text text-anchor="middle" x="485.5" y="-173.3" font-family="Times,serif" font-size="14.00" fill="#0058ad">w 128 25</text>
<polyline fill="none" stroke="#0058ad" points="527,-162.5 527,-191.5 "/>
<text text-anchor="middle" x="568.5" y="-173.3" font-family="Times,serif" font-size="14.00" fill="#0058ad">w 125 13</text>
</g>
<!-- T159 -->
<g id="node8" class="node">
<title>T159</title>
<polygon fill="none" stroke="#0058ad" points="297,-81.5 297,-110.5 608,-110.5 608,-81.5 297,-81.5"/>
<text text-anchor="middle" x="331" y="-92.3" font-family="Times,serif" font-size="14.00" fill="#0058ad">r 124 9</text>
<polyline fill="none" stroke="#0058ad" points="365,-81.5 365,-110.5 "/>
<text text-anchor="middle" x="406.5" y="-92.3" font-family="Times,serif" font-size="14.00" fill="#0058ad">w 125 16</text>
<polyline fill="none" stroke="#0058ad" points="448,-81.5 448,-110.5 "/>
<text text-anchor="middle" x="486.5" y="-92.3" font-family="Times,serif" font-size="14.00" fill="#0058ad">r 126 25</text>
<polyline fill="none" stroke="#0058ad" points="525,-81.5 525,-110.5 "/>
<text text-anchor="middle" x="566.5" y="-92.3" font-family="Times,serif" font-size="14.00" fill="#0058ad">w 128 30</text>
</g>
<!-- T147&#45;&gt;T159 -->
<g id="edge2" class="edge">
<title>T147:f1&#45;&gt;T159:f0</title>
<path fill="none" stroke="#c000a5" d="M323.5,-162C323.5,-142.8744 328.3915,-136.0738 329.9966,-120.9924"/>
<polygon fill="#c000a5" stroke="#c000a5" points="333.4923,-121.1635 330.5,-111 326.5012,-120.8112 333.4923,-121.1635"/>
<text text-anchor="middle" x="339" y="-132.8" font-family="Times,serif" font-size="14.00" fill="#c000a5">wr</text>
</g>
<!-- T100 -->
<g id="node3" class="node">
<title>T100</title>
<polygon fill="none" stroke="#0058ad" points="198.5,-486.5 198.5,-515.5 494.5,-515.5 494.5,-486.5 198.5,-486.5"/>
<text text-anchor="middle" x="235.5" y="-497.3" font-family="Times,serif" font-size="14.00" fill="#0058ad">w 124 7</text>
<polyline fill="none" stroke="#0058ad" points="272.5,-486.5 272.5,-515.5 "/>
<text text-anchor="middle" x="309.5" y="-497.3" font-family="Times,serif" font-size="14.00" fill="#0058ad">w 128 6</text>
<polyline fill="none" stroke="#0058ad" points="346.5,-486.5 346.5,-515.5 "/>
<text text-anchor="middle" x="383.5" y="-497.3" font-family="Times,serif" font-size="14.00" fill="#0058ad">w 125 9</text>
<polyline fill="none" stroke="#0058ad" points="420.5,-486.5 420.5,-515.5 "/>
<text text-anchor="middle" x="457.5" y="-497.3" font-family="Times,serif" font-size="14.00" fill="#0058ad">w 128 7</text>
</g>
<!-- T109 -->
<g id="node10" class="node">
<title>T109</title>
<polygon fill="none" stroke="#0058ad" points="0,-405.5 0,-434.5 287,-434.5 287,-405.5 0,-405.5"/>
<text text-anchor="middle" x="34" y="-416.3" font-family="Times,serif" font-size="14.00" fill="#0058ad">r 124 7</text>
<polyline fill="none" stroke="#0058ad" points="68,-405.5 68,-434.5 "/>
<text text-anchor="middle" x="106.5" y="-416.3" font-family="Times,serif" font-size="14.00" fill="#0058ad">r 125 11</text>
<polyline fill="none" stroke="#0058ad" points="145,-405.5 145,-434.5 "/>
<text text-anchor="middle" x="182" y="-416.3" font-family="Times,serif" font-size="14.00" fill="#0058ad">w 128 9</text>
<polyline fill="none" stroke="#0058ad" points="219,-405.5 219,-434.5 "/>
<text text-anchor="middle" x="253" y="-416.3" font-family="Times,serif" font-size="14.00" fill="#0058ad">r 128 9</text>
</g>
<!-- T100&#45;&gt;T109 -->
<g id="edge3" class="edge">
<title>T100:f0&#45;&gt;T109:f0</title>
<path fill="none" stroke="#c000a5" d="M198.5,-501C162.4026,-501 54.4366,-478.8516 36.1465,-444.8851"/>
<polygon fill="#c000a5" stroke="#c000a5" points="39.4672,-443.7546 33.5,-435 32.7053,-445.565 39.4672,-443.7546"/>
<text text-anchor="middle" x="72" y="-456.8" font-family="Times,serif" font-size="14.00" fill="#c000a5">wr</text>
</g>
<!-- T95 -->
<g id="node4" class="node">
<title>T95</title>
<polygon fill="none" stroke="#0058ad" points="326.5,-567.5 326.5,-596.5 468.5,-596.5 468.5,-567.5 326.5,-567.5"/>
<text text-anchor="middle" x="363.5" y="-578.3" font-family="Times,serif" font-size="14.00" fill="#0058ad">w 124 6</text>
<polyline fill="none" stroke="#0058ad" points="400.5,-567.5 400.5,-596.5 "/>
<text text-anchor="middle" x="434.5" y="-578.3" font-family="Times,serif" font-size="14.00" fill="#0058ad">r 128 3</text>
</g>
<!-- T95&#45;&gt;T100 -->
<g id="edge4" class="edge">
<title>T95&#45;&gt;T100</title>
<path fill="none" stroke="#0050c0" d="M388.1458,-567.1434C380.5973,-555.1545 369.8421,-538.0727 361.1524,-524.2715"/>
<polygon fill="#0050c0" stroke="#0050c0" points="364.0849,-522.3599 355.7949,-515.7625 358.1612,-526.0897 364.0849,-522.3599"/>
<text text-anchor="middle" x="384" y="-537.8" font-family="Times,serif" font-size="14.00" fill="#0050c0">rt</text>
</g>
<!-- T89 -->
<g id="node5" class="node">
<title>T89</title>
<polygon fill="none" stroke="#0058ad" points="341.5,-648.5 341.5,-677.5 483.5,-677.5 483.5,-648.5 341.5,-648.5"/>
<text text-anchor="middle" x="375.5" y="-659.3" font-family="Times,serif" font-size="14.00" fill="#0058ad">r 124 5</text>
<polyline fill="none" stroke="#0058ad" points="409.5,-648.5 409.5,-677.5 "/>
<text text-anchor="middle" x="446.5" y="-659.3" font-family="Times,serif" font-size="14.00" fill="#0058ad">w 128 3</text>
</g>
<!-- T89&#45;&gt;T95 -->
<g id="edge5" class="edge">
<title>T89:f1&#45;&gt;T95:f1</title>
<path fill="none" stroke="#c000a5" d="M446.5,-648C446.5,-628.5346 438.1145,-622.2464 435.363,-607.1048"/>
<polygon fill="#c000a5" stroke="#c000a5" points="438.8384,-606.6659 434.5,-597 431.8638,-607.2616 438.8384,-606.6659"/>
<text text-anchor="middle" x="453" y="-618.8" font-family="Times,serif" font-size="14.00" fill="#c000a5">wr</text>
</g>
<!-- T85 -->
<g id="node6" class="node">
<title>T85</title>
<polygon fill="none" stroke="#0058ad" points="224.5,-729.5 224.5,-758.5 606.5,-758.5 606.5,-729.5 224.5,-729.5"/>
<text text-anchor="middle" x="261.5" y="-740.3" font-family="Times,serif" font-size="14.00" fill="#0058ad">w 125 6</text>
<polyline fill="none" stroke="#0058ad" points="298.5,-729.5 298.5,-758.5 "/>
<text text-anchor="middle" x="335.5" y="-740.3" font-family="Times,serif" font-size="14.00" fill="#0058ad">w 123 1</text>
<polyline fill="none" stroke="#0058ad" points="372.5,-729.5 372.5,-758.5 "/>
<text text-anchor="middle" x="414" y="-740.3" font-family="Times,serif" font-size="14.00" fill="#0058ad">w 126 20</text>
<polyline fill="none" stroke="#0058ad" points="455.5,-729.5 455.5,-758.5 "/>
<text text-anchor="middle" x="497" y="-740.3" font-family="Times,serif" font-size="14.00" fill="#0058ad">w 126 21</text>
<polyline fill="none" stroke="#0058ad" points="538.5,-729.5 538.5,-758.5 "/>
<text text-anchor="middle" x="572.5" y="-740.3" font-family="Times,serif" font-size="14.00" fill="#0058ad">r 128 2</text>
</g>
<!-- T85&#45;&gt;T89 -->
<g id="edge6" class="edge">
<title>T85&#45;&gt;T89</title>
<path fill="none" stroke="#0050c0" d="M414.9498,-729.1434C414.5226,-717.6112 413.921,-701.3668 413.4208,-687.8626"/>
<polygon fill="#0050c0" stroke="#0050c0" points="416.9146,-687.626 413.0468,-677.7625 409.9194,-687.8852 416.9146,-687.626"/>
<text text-anchor="middle" x="421" y="-699.8" font-family="Times,serif" font-size="14.00" fill="#0050c0">rt</text>
</g>
<!-- T113 -->
<g id="node7" class="node">
<title>T113</title>
<polygon fill="none" stroke="#0058ad" points="148,-324.5 148,-353.5 533,-353.5 533,-324.5 148,-324.5"/>
<text text-anchor="middle" x="182" y="-335.3" font-family="Times,serif" font-size="14.00" fill="#0058ad">r 128 9</text>
<polyline fill="none" stroke="#0058ad" points="216,-324.5 216,-353.5 "/>
<text text-anchor="middle" x="257.5" y="-335.3" font-family="Times,serif" font-size="14.00" fill="#0058ad">w 125 12</text>
<polyline fill="none" stroke="#0058ad" points="299,-324.5 299,-353.5 "/>
<text text-anchor="middle" x="336" y="-335.3" font-family="Times,serif" font-size="14.00" fill="#0058ad">w 124 8</text>
<polyline fill="none" stroke="#0058ad" points="373,-324.5 373,-353.5 "/>
<text text-anchor="middle" x="414.5" y="-335.3" font-family="Times,serif" font-size="14.00" fill="#0058ad">w 128 10</text>
<polyline fill="none" stroke="#0058ad" points="456,-324.5 456,-353.5 "/>
<text text-anchor="middle" x="494.5" y="-335.3" font-family="Times,serif" font-size="14.00" fill="#0058ad">r 128 10</text>
</g>
<!-- T145 -->
<g id="node9" class="node">
<title>T145</title>
<polygon fill="none" stroke="#0058ad" points="129,-243.5 129,-272.5 348,-272.5 348,-243.5 129,-243.5"/>
<text text-anchor="middle" x="163" y="-254.3" font-family="Times,serif" font-size="14.00" fill="#0058ad">r 124 8</text>
<polyline fill="none" stroke="#0058ad" points="197,-243.5 197,-272.5 "/>
<text text-anchor="middle" x="235.5" y="-254.3" font-family="Times,serif" font-size="14.00" fill="#0058ad">r 128 24</text>
<polyline fill="none" stroke="#0058ad" points="274,-243.5 274,-272.5 "/>
<text text-anchor="middle" x="311" y="-254.3" font-family="Times,serif" font-size="14.00" fill="#0058ad">w 123 3</text>
</g>
<!-- T113&#45;&gt;T145 -->
<g id="edge7" class="edge">
<title>T113:f2&#45;&gt;T145:f0</title>
<path fill="none" stroke="#c000a5" d="M335.5,-324C335.5,-247.5972 178.3386,-343.3279 163.6047,-283.0626"/>
<polygon fill="#c000a5" stroke="#c000a5" points="167.0705,-282.5583 162.5,-273 160.1123,-283.3223 167.0705,-282.5583"/>
<text text-anchor="middle" x="341" y="-294.8" font-family="Times,serif" font-size="14.00" fill="#c000a5">wr</text>
</g>
<!-- T161 -->
<g id="node11" class="node">
<title>T161</title>
<polygon fill="none" stroke="#0058ad" points="463.5,-.5 463.5,-29.5 629.5,-29.5 629.5,-.5 463.5,-.5"/>
<text text-anchor="middle" x="505" y="-11.3" font-family="Times,serif" font-size="14.00" fill="#0058ad">w 125 17</text>
<polyline fill="none" stroke="#0058ad" points="546.5,-.5 546.5,-29.5 "/>
<text text-anchor="middle" x="588" y="-11.3" font-family="Times,serif" font-size="14.00" fill="#0058ad">w 125 18</text>
</g>
<!-- T159&#45;&gt;T161 -->
<g id="edge8" class="edge">
<title>T159&#45;&gt;T161</title>
<path fill="none" stroke="#0050c0" d="M469.741,-81.1434C484.3166,-68.5836 505.3787,-50.4343 521.7546,-36.3232"/>
<polygon fill="#0050c0" stroke="#0050c0" points="524.0775,-38.9417 529.3683,-29.7625 519.508,-33.6389 524.0775,-38.9417"/>
<text text-anchor="middle" x="515" y="-51.8" font-family="Times,serif" font-size="14.00" fill="#0050c0">rt</text>
</g>
<!-- T145&#45;&gt;T147 -->
<g id="edge9" class="edge">
<title>T145:f2&#45;&gt;T147:f0</title>
<path fill="none" stroke="#c000a5" d="M311.5,-243C311.5,-212.2655 265.1101,-223.1898 254.5998,-201.8936"/>
<polygon fill="#c000a5" stroke="#c000a5" points="258,-201.0554 252.5,-192 251.1525,-202.5088 258,-201.0554"/>
<text text-anchor="middle" x="312" y="-213.8" font-family="Times,serif" font-size="14.00" fill="#c000a5">wr</text>
</g>
<!-- T109&#45;&gt;T113 -->
<g id="edge10" class="edge">
<title>T109:f2&#45;&gt;T113:f0</title>
<path fill="none" stroke="#c000a5" d="M182.5,-405C182.5,-386.2256 181.8142,-379.1185 181.5785,-364.3548"/>
<polygon fill="#c000a5" stroke="#c000a5" points="185.0758,-363.9732 181.5,-354 178.076,-364.0263 185.0758,-363.9732"/>
<text text-anchor="middle" x="192" y="-375.8" font-family="Times,serif" font-size="14.00" fill="#c000a5">wr</text>
</g>
<!-- T161&#45;&gt;T165 -->
<g id="edge11" class="edge">
<title>T161&#45;&gt;T165</title>
<path fill="none" stroke="#0050c0" d="M582.333,-29.535C608.1651,-42.6531 638.5,-64.7175 638.5,-96 638.5,-825 638.5,-825 638.5,-825 638.5,-847.6263 623.9538,-868.9771 610.2483,-884.0722"/>
<polygon fill="#0050c0" stroke="#0050c0" points="607.6424,-881.7327 603.2394,-891.3693 612.6908,-886.5818 607.6424,-881.7327"/>
<text text-anchor="middle" x="645" y="-456.8" font-family="Times,serif" font-size="14.00" fill="#0050c0">rt</text>
</g>
<!-- T79&#45;&gt;T85 -->
<g id="edge12" class="edge">
<title>T79:f4&#45;&gt;T85:f4</title>
<path fill="none" stroke="#c000a5" d="M573.5,-810C573.5,-791.2256 572.8142,-784.1185 572.5785,-769.3548"/>
<polygon fill="#c000a5" stroke="#c000a5" points="576.0758,-768.9732 572.5,-759 569.076,-769.0263 576.0758,-768.9732"/>
<text text-anchor="middle" x="583" y="-780.8" font-family="Times,serif" font-size="14.00" fill="#c000a5">wr</text>
</g>
</g>
</svg>
