<?xml version="1.0" encoding="UTF-8" standalone="no"?>
<!DOCTYPE svg PUBLIC "-//W3C//DTD SVG 1.1//EN"
 "http://www.w3.org/Graphics/SVG/1.1/DTD/svg11.dtd">
<!-- Generated by graphviz version 2.40.1 (20161225.0304)
 -->
<!-- Title: a_graph Pages: 1 -->
<svg width="402pt" height="281pt"
 viewBox="0.00 0.00 402.00 281.00" xmlns="http://www.w3.org/2000/svg" xmlns:xlink="http://www.w3.org/1999/xlink">
<g id="graph0" class="graph" transform="scale(1 1) rotate(0) translate(4 277)">
<title>a_graph</title>
<polygon fill="#ffffff" stroke="transparent" points="-4,4 -4,-277 398,-277 398,4 -4,4"/>
<!-- T323 -->
<g id="node1" class="node">
<title>T323</title>
<polygon fill="none" stroke="#0058ad" points="67.5,-243.5 67.5,-272.5 372.5,-272.5 372.5,-243.5 67.5,-243.5"/>
<text text-anchor="middle" x="104.5" y="-254.3" font-family="Times,serif" font-size="14.00" fill="#0058ad">w 133 1</text>
<polyline fill="none" stroke="#0058ad" points="141.5,-243.5 141.5,-272.5 "/>
<text text-anchor="middle" x="178.5" y="-254.3" font-family="Times,serif" font-size="14.00" fill="#0058ad">w 133 2</text>
<polyline fill="none" stroke="#0058ad" points="215.5,-243.5 215.5,-272.5 "/>
<text text-anchor="middle" x="257" y="-254.3" font-family="Times,serif" font-size="14.00" fill="#0058ad">w 130 25</text>
<polyline fill="none" stroke="#0058ad" points="298.5,-243.5 298.5,-272.5 "/>
<text text-anchor="middle" x="335.5" y="-254.3" font-family="Times,serif" font-size="14.00" fill="#0058ad">w 132 4</text>
</g>
<!-- T325 -->
<g id="node3" class="node">
<title>T325</title>
<polygon fill="none" stroke="#0058ad" points="237,-162.5 237,-191.5 379,-191.5 379,-162.5 237,-162.5"/>
<text text-anchor="middle" x="274" y="-173.3" font-family="Times,serif" font-size="14.00" fill="#0058ad">w 133 3</text>
<polyline fill="none" stroke="#0058ad" points="311,-162.5 311,-191.5 "/>
<text text-anchor="middle" x="345" y="-173.3" font-family="Times,serif" font-size="14.00" fill="#0058ad">r 133 3</text>
</g>
<!-- T323&#45;&gt;T325 -->
<g id="edge1" class="edge">
<title>T323&#45;&gt;T325</title>
<path fill="none" stroke="#0050c0" d="M236.1406,-243.1434C249.6617,-230.6978 269.1455,-212.7638 284.4149,-198.709"/>
<polygon fill="#0050c0" stroke="#0050c0" points="286.9744,-201.1101 291.9618,-191.7625 282.2338,-195.9597 286.9744,-201.1101"/>
<text text-anchor="middle" x="278.5" y="-213.8" font-family="Times,serif" font-size="14.00" fill="#0050c0">rt</text>
</g>
<!-- T327 -->
<g id="node2" class="node">
<title>T327</title>
<polygon fill="none" stroke="#0058ad" points="234.5,-81.5 234.5,-110.5 391.5,-110.5 391.5,-81.5 234.5,-81.5"/>
<text text-anchor="middle" x="276" y="-92.3" font-family="Times,serif" font-size="14.00" fill="#0058ad">w 124 15</text>
<polyline fill="none" stroke="#0058ad" points="317.5,-81.5 317.5,-110.5 "/>
<text text-anchor="middle" x="354.5" y="-92.3" font-family="Times,serif" font-size="14.00" fill="#0058ad">w 133 4</text>
</g>
<!-- T321 -->
<g id="node4" class="node">
<title>T321</title>
<polygon fill="none" stroke="#0058ad" points="0,-.5 0,-29.5 394,-29.5 394,-.5 0,-.5"/>
<text text-anchor="middle" x="41.5" y="-11.3" font-family="Times,serif" font-size="14.00" fill="#0058ad">w 131 32</text>
<polyline fill="none" stroke="#0058ad" points="83,-.5 83,-29.5 "/>
<text text-anchor="middle" x="124.5" y="-11.3" font-family="Times,serif" font-size="14.00" fill="#0058ad">w 123 10</text>
<polyline fill="none" stroke="#0058ad" points="166,-.5 166,-29.5 "/>
<text text-anchor="middle" x="204.5" y="-11.3" font-family="Times,serif" font-size="14.00" fill="#0058ad">r 131 32</text>
<polyline fill="none" stroke="#0058ad" points="243,-.5 243,-29.5 "/>
<text text-anchor="middle" x="284.5" y="-11.3" font-family="Times,serif" font-size="14.00" fill="#0058ad">w 130 24</text>
<polyline fill="none" stroke="#0058ad" points="326,-.5 326,-29.5 "/>
<text text-anchor="middle" x="360" y="-11.3" font-family="Times,serif" font-size="14.00" fill="#0058ad">r 133 4</text>
</g>
<!-- T327&#45;&gt;T321 -->
<g id="edge2" class="edge">
<title>T327:f1&#45;&gt;T321:f4</title>
<path fill="none" stroke="#c000a5" d="M355,-81C355,-62.1392 358.429,-55.1604 359.6077,-40.384"/>
<polygon fill="#c000a5" stroke="#c000a5" points="363.1198,-40.125 360,-30 356.1248,-39.8607 363.1198,-40.125"/>
<text text-anchor="middle" x="367.5" y="-51.8" font-family="Times,serif" font-size="14.00" fill="#c000a5">wr</text>
</g>
<!-- T325&#45;&gt;T327 -->
<g id="edge3" class="edge">
<title>T325&#45;&gt;T327</title>
<path fill="none" stroke="#0050c0" d="M308.9171,-162.1434C309.6289,-150.6112 310.6317,-134.3668 311.4653,-120.8626"/>
<polygon fill="#0050c0" stroke="#0050c0" points="314.9659,-120.9591 312.0887,-110.7625 307.9792,-120.5278 314.9659,-120.9591"/>
<text text-anchor="middle" x="316.5" y="-132.8" font-family="Times,serif" font-size="14.00" fill="#0050c0">rt</text>
</g>
<!-- T321&#45;&gt;T323 -->
<g id="edge4" class="edge">
<title>T321&#45;&gt;T323</title>
<path fill="none" stroke="#0050c0" d="M198.3858,-29.6408C202.1983,-69.921 212.8761,-182.7343 217.6463,-233.1325"/>
<polygon fill="#0050c0" stroke="#0050c0" points="214.1691,-233.5394 218.5959,-243.1651 221.1379,-232.8797 214.1691,-233.5394"/>
<text text-anchor="middle" x="216.5" y="-132.8" font-family="Times,serif" font-size="14.00" fill="#0050c0">rt</text>
</g>
</g>
</svg>
