<?xml version="1.0" encoding="UTF-8" standalone="no"?>
<!DOCTYPE svg PUBLIC "-//W3C//DTD SVG 1.1//EN"
 "http://www.w3.org/Graphics/SVG/1.1/DTD/svg11.dtd">
<!-- Generated by graphviz version 2.40.1 (20161225.0304)
 -->
<!-- Title: a_graph Pages: 1 -->
<svg width="341pt" height="200pt"
 viewBox="0.00 0.00 341.00 200.00" xmlns="http://www.w3.org/2000/svg" xmlns:xlink="http://www.w3.org/1999/xlink">
<g id="graph0" class="graph" transform="scale(1 1) rotate(0) translate(4 196)">
<title>a_graph</title>
<polygon fill="#ffffff" stroke="transparent" points="-4,4 -4,-196 337,-196 337,4 -4,4"/>
<!-- T109793 -->
<g id="node1" class="node">
<title>T109793</title>
<polygon fill="none" stroke="#0058ad" points="105,-162.5 105,-191.5 184,-191.5 184,-162.5 105,-162.5"/>
<text text-anchor="middle" x="144.5" y="-173.3" font-family="Times,serif" font-size="14.00" fill="#0058ad">a 1702 1</text>
</g>
<!-- T110173 -->
<g id="node3" class="node">
<title>T110173</title>
<polygon fill="none" stroke="#0058ad" points="0,-81.5 0,-110.5 165,-110.5 165,-81.5 0,-81.5"/>
<text text-anchor="middle" x="39.5" y="-92.3" font-family="Times,serif" font-size="14.00" fill="#0058ad">a 1702 9</text>
<polyline fill="none" stroke="#0058ad" points="79,-81.5 79,-110.5 "/>
<text text-anchor="middle" x="122" y="-92.3" font-family="Times,serif" font-size="14.00" fill="#0058ad">r 1700 nil</text>
</g>
<!-- T109793&#45;&gt;T110173 -->
<g id="edge1" class="edge">
<title>T109793&#45;&gt;T110173</title>
<path fill="none" stroke="#0050c0" d="M133.1282,-162.1434C123.8642,-150.0403 110.6272,-132.7468 100.0116,-118.8781"/>
<polygon fill="#0050c0" stroke="#0050c0" points="102.6571,-116.5759 93.7997,-110.7625 97.0986,-120.8306 102.6571,-116.5759"/>
<text text-anchor="middle" x="126" y="-132.8" font-family="Times,serif" font-size="14.00" fill="#0050c0">rt</text>
</g>
<!-- T109776 -->
<g id="node2" class="node">
<title>T109776</title>
<polygon fill="none" stroke="#0058ad" points="78,-.5 78,-29.5 333,-29.5 333,-.5 78,-.5"/>
<text text-anchor="middle" x="117.5" y="-11.3" font-family="Times,serif" font-size="14.00" fill="#0058ad">a 1700 1</text>
<polyline fill="none" stroke="#0058ad" points="157,-.5 157,-29.5 "/>
<text text-anchor="middle" x="201" y="-11.3" font-family="Times,serif" font-size="14.00" fill="#0058ad">r 1700 [1]</text>
<polyline fill="none" stroke="#0058ad" points="245,-.5 245,-29.5 "/>
<text text-anchor="middle" x="289" y="-11.3" font-family="Times,serif" font-size="14.00" fill="#0058ad">a 1697 22</text>
</g>
<!-- T109776&#45;&gt;T109793 -->
<g id="edge2" class="edge">
<title>T109776&#45;&gt;T109793</title>
<path fill="none" stroke="#0050c0" d="M201.0368,-29.7871C195.2014,-48.7693 184.4303,-82.6405 173.5,-111 168.0305,-125.1909 161.2194,-140.7804 155.5726,-153.2434"/>
<polygon fill="#0050c0" stroke="#0050c0" points="152.3235,-151.9324 151.3416,-162.4817 158.6878,-154.8473 152.3235,-151.9324"/>
<text text-anchor="middle" x="191" y="-92.3" font-family="Times,serif" font-size="14.00" fill="#0050c0">rt</text>
</g>
<!-- T110173&#45;&gt;T109776 -->
<g id="edge3" class="edge">
<title>T110173:f1&#45;&gt;T109776:f0</title>
<path fill="none" stroke="#5b00c0" d="M122.5,-81C122.5,-62.1392 119.071,-55.1604 117.8923,-40.384"/>
<polygon fill="#5b00c0" stroke="#5b00c0" points="121.3752,-39.8607 117.5,-30 114.3802,-40.125 121.3752,-39.8607"/>
<text text-anchor="middle" x="131" y="-51.8" font-family="Times,serif" font-size="14.00" fill="#5b00c0">rw</text>
</g>
</g>
</svg>
