<?xml version="1.0" encoding="UTF-8" standalone="no"?>
<!DOCTYPE svg PUBLIC "-//W3C//DTD SVG 1.1//EN"
 "http://www.w3.org/Graphics/SVG/1.1/DTD/svg11.dtd">
<!-- Generated by graphviz version 2.40.1 (20161225.0304)
 -->
<!-- Title: a_graph Pages: 1 -->
<svg width="410pt" height="200pt"
 viewBox="0.00 0.00 409.50 200.00" xmlns="http://www.w3.org/2000/svg" xmlns:xlink="http://www.w3.org/1999/xlink">
<g id="graph0" class="graph" transform="scale(1 1) rotate(0) translate(4 196)">
<title>a_graph</title>
<polygon fill="#ffffff" stroke="transparent" points="-4,4 -4,-196 405.5,-196 405.5,4 -4,4"/>
<!-- T111017 -->
<g id="node1" class="node">
<title>T111017</title>
<polygon fill="none" stroke="#0058ad" points="146.5,-162.5 146.5,-191.5 401.5,-191.5 401.5,-162.5 146.5,-162.5"/>
<text text-anchor="middle" x="186" y="-173.3" font-family="Times,serif" font-size="14.00" fill="#0058ad">a 1717 1</text>
<polyline fill="none" stroke="#0058ad" points="225.5,-162.5 225.5,-191.5 "/>
<text text-anchor="middle" x="269.5" y="-173.3" font-family="Times,serif" font-size="14.00" fill="#0058ad">r 1717 [1]</text>
<polyline fill="none" stroke="#0058ad" points="313.5,-162.5 313.5,-191.5 "/>
<text text-anchor="middle" x="357.5" y="-173.3" font-family="Times,serif" font-size="14.00" fill="#0058ad">a 1715 32</text>
</g>
<!-- T111331 -->
<g id="node3" class="node">
<title>T111331</title>
<polygon fill="none" stroke="#0058ad" points="208,-81.5 208,-110.5 384,-110.5 384,-81.5 208,-81.5"/>
<text text-anchor="middle" x="252" y="-92.3" font-family="Times,serif" font-size="14.00" fill="#0058ad">a 1711 22</text>
<polyline fill="none" stroke="#0058ad" points="296,-81.5 296,-110.5 "/>
<text text-anchor="middle" x="340" y="-92.3" font-family="Times,serif" font-size="14.00" fill="#0058ad">a 1719 23</text>
</g>
<!-- T111017&#45;&gt;T111331 -->
<g id="edge1" class="edge">
<title>T111017&#45;&gt;T111331</title>
<path fill="none" stroke="#0050c0" d="M278.0351,-162.1434C281.1983,-150.497 285.6669,-134.0446 289.3559,-120.4623"/>
<polygon fill="#0050c0" stroke="#0050c0" points="292.7469,-121.3303 291.9904,-110.7625 285.9916,-119.4954 292.7469,-121.3303"/>
<text text-anchor="middle" x="292.5" y="-132.8" font-family="Times,serif" font-size="14.00" fill="#0050c0">rt</text>
</g>
<!-- T111363 -->
<g id="node2" class="node">
<title>T111363</title>
<polygon fill="none" stroke="#0058ad" points="0,-.5 0,-29.5 298,-29.5 298,-.5 0,-.5"/>
<text text-anchor="middle" x="62" y="-11.3" font-family="Times,serif" font-size="14.00" fill="#0058ad">r 1714 [1 3 19]</text>
<polyline fill="none" stroke="#0058ad" points="124,-.5 124,-29.5 "/>
<text text-anchor="middle" x="167" y="-11.3" font-family="Times,serif" font-size="14.00" fill="#0058ad">r 1717 nil</text>
<polyline fill="none" stroke="#0058ad" points="210,-.5 210,-29.5 "/>
<text text-anchor="middle" x="254" y="-11.3" font-family="Times,serif" font-size="14.00" fill="#0058ad">a 1711 17</text>
</g>
<!-- T111363&#45;&gt;T111017 -->
<g id="edge2" class="edge">
<title>T111363:f1&#45;&gt;T111017:f0</title>
<path fill="none" stroke="#5b00c0" d="M167,-30C167,-56.6258 182.3366,-118.0358 185.4519,-151.7272"/>
<polygon fill="#5b00c0" stroke="#5b00c0" points="181.9721,-152.2007 186,-162 188.9621,-151.8277 181.9721,-152.2007"/>
<text text-anchor="middle" x="188.5" y="-92.3" font-family="Times,serif" font-size="14.00" fill="#5b00c0">rw</text>
</g>
<!-- T111331&#45;&gt;T111363 -->
<g id="edge3" class="edge">
<title>T111331:f0&#45;&gt;T111363:f2</title>
<path fill="none" stroke="#c02700" d="M252,-81C252,-62.2147 253.3716,-55.1238 253.8431,-40.3584"/>
<polygon fill="#c02700" stroke="#c02700" points="257.348,-40.0519 254,-30 250.3488,-39.9458 257.348,-40.0519"/>
<text text-anchor="middle" x="265.5" y="-51.8" font-family="Times,serif" font-size="14.00" fill="#c02700">ww</text>
</g>
</g>
</svg>
