<?xml version="1.0" encoding="UTF-8" standalone="no"?>
<!DOCTYPE svg PUBLIC "-//W3C//DTD SVG 1.1//EN"
 "http://www.w3.org/Graphics/SVG/1.1/DTD/svg11.dtd">
<!-- Generated by graphviz version 2.40.1 (20161225.0304)
 -->
<!-- Title: a_graph Pages: 1 -->
<svg width="254pt" height="119pt"
 viewBox="0.00 0.00 254.00 119.00" xmlns="http://www.w3.org/2000/svg" xmlns:xlink="http://www.w3.org/1999/xlink">
<g id="graph0" class="graph" transform="scale(1 1) rotate(0) translate(4 115)">
<title>a_graph</title>
<polygon fill="#ffffff" stroke="transparent" points="-4,4 -4,-115 250,-115 250,4 -4,4"/>
<!-- T15977 -->
<g id="node1" class="node">
<title>T15977</title>
<polygon fill="none" stroke="#0058ad" points="0,-81.5 0,-110.5 246,-110.5 246,-81.5 0,-81.5"/>
<text text-anchor="middle" x="39.5" y="-92.3" font-family="Times,serif" font-size="14.00" fill="#0058ad">a 254 12</text>
<polyline fill="none" stroke="#0058ad" points="79,-81.5 79,-110.5 "/>
<text text-anchor="middle" x="123" y="-92.3" font-family="Times,serif" font-size="14.00" fill="#0058ad">r 254 [12]</text>
<polyline fill="none" stroke="#0058ad" points="167,-81.5 167,-110.5 "/>
<text text-anchor="middle" x="206.5" y="-92.3" font-family="Times,serif" font-size="14.00" fill="#0058ad">a 257 13</text>
</g>
<!-- T16326 -->
<g id="node2" class="node">
<title>T16326</title>
<polygon fill="none" stroke="#0058ad" points="12,-.5 12,-29.5 222,-29.5 222,-.5 12,-.5"/>
<text text-anchor="middle" x="50.5" y="-11.3" font-family="Times,serif" font-size="14.00" fill="#0058ad">r 254 nil</text>
<polyline fill="none" stroke="#0058ad" points="89,-.5 89,-29.5 "/>
<text text-anchor="middle" x="155.5" y="-11.3" font-family="Times,serif" font-size="14.00" fill="#0058ad">r 262 [2 3 5 6 7]</text>
</g>
<!-- T15977&#45;&gt;T16326 -->
<g id="edge1" class="edge">
<title>T15977&#45;&gt;T16326</title>
<path fill="none" stroke="#0050c0" d="M121.8995,-81.1434C121.0453,-69.6112 119.842,-53.3668 118.8417,-39.8626"/>
<polygon fill="#0050c0" stroke="#0050c0" points="122.3228,-39.4766 118.0935,-29.7625 115.3419,-39.9937 122.3228,-39.4766"/>
<text text-anchor="middle" x="126.5" y="-51.8" font-family="Times,serif" font-size="14.00" fill="#0050c0">rt</text>
</g>
<!-- T16326&#45;&gt;T15977 -->
<g id="edge2" class="edge">
<title>T16326:f0&#45;&gt;T15977:f0</title>
<path fill="none" stroke="#5b00c0" d="M50,-30C50,-49.3836 42.3133,-55.7951 39.7911,-70.9223"/>
<polygon fill="#5b00c0" stroke="#5b00c0" points="36.2934,-70.7567 39,-81 43.2719,-71.3046 36.2934,-70.7567"/>
<text text-anchor="middle" x="57.5" y="-51.8" font-family="Times,serif" font-size="14.00" fill="#5b00c0">rw</text>
</g>
</g>
</svg>
