<?xml version="1.0" encoding="UTF-8" standalone="no"?>
<!DOCTYPE svg PUBLIC "-//W3C//DTD SVG 1.1//EN"
 "http://www.w3.org/Graphics/SVG/1.1/DTD/svg11.dtd">
<!-- Generated by graphviz version 2.40.1 (20161225.0304)
 -->
<!-- Title: a_graph Pages: 1 -->
<svg width="356pt" height="281pt"
 viewBox="0.00 0.00 355.50 281.00" xmlns="http://www.w3.org/2000/svg" xmlns:xlink="http://www.w3.org/1999/xlink">
<g id="graph0" class="graph" transform="scale(1 1) rotate(0) translate(4 277)">
<title>a_graph</title>
<polygon fill="#ffffff" stroke="transparent" points="-4,4 -4,-277 351.5,-277 351.5,4 -4,4"/>
<!-- T128673 -->
<g id="node1" class="node">
<title>T128673</title>
<polygon fill="none" stroke="#0058ad" points="81,-243.5 81,-272.5 239,-272.5 239,-243.5 81,-243.5"/>
<text text-anchor="middle" x="120.5" y="-254.3" font-family="Times,serif" font-size="14.00" fill="#0058ad">a 1986 6</text>
<polyline fill="none" stroke="#0058ad" points="160,-243.5 160,-272.5 "/>
<text text-anchor="middle" x="199.5" y="-254.3" font-family="Times,serif" font-size="14.00" fill="#0058ad">a 1986 7</text>
</g>
<!-- T128741 -->
<g id="node2" class="node">
<title>T128741</title>
<polygon fill="none" stroke="#0058ad" points="0,-162.5 0,-191.5 194,-191.5 194,-162.5 0,-162.5"/>
<text text-anchor="middle" x="39.5" y="-173.3" font-family="Times,serif" font-size="14.00" fill="#0058ad">a 1987 3</text>
<polyline fill="none" stroke="#0058ad" points="79,-162.5 79,-191.5 "/>
<text text-anchor="middle" x="136.5" y="-173.3" font-family="Times,serif" font-size="14.00" fill="#0058ad">r 1987 [1 2 3]</text>
</g>
<!-- T128673&#45;&gt;T128741 -->
<g id="edge1" class="edge">
<title>T128673&#45;&gt;T128741</title>
<path fill="none" stroke="#0050c0" d="M148.4448,-243.1434C139.0313,-231.0403 125.5809,-213.7468 114.7941,-199.8781"/>
<polygon fill="#0050c0" stroke="#0050c0" points="117.3841,-197.5072 108.4819,-191.7625 111.8586,-201.8048 117.3841,-197.5072"/>
<text text-anchor="middle" x="141.5" y="-213.8" font-family="Times,serif" font-size="14.00" fill="#0050c0">rt</text>
</g>
<!-- T128925 -->
<g id="node4" class="node">
<title>T128925</title>
<polygon fill="none" stroke="#0058ad" points="81,-81.5 81,-110.5 167,-110.5 167,-81.5 81,-81.5"/>
<text text-anchor="middle" x="124" y="-92.3" font-family="Times,serif" font-size="14.00" fill="#0058ad">r 1983 nil</text>
</g>
<!-- T128741&#45;&gt;T128925 -->
<g id="edge2" class="edge">
<title>T128741&#45;&gt;T128925</title>
<path fill="none" stroke="#0050c0" d="M101.9522,-162.1434C105.8343,-150.497 111.3185,-134.0446 115.8459,-120.4623"/>
<polygon fill="#0050c0" stroke="#0050c0" points="119.2372,-121.3561 119.0792,-110.7625 112.5964,-119.1425 119.2372,-121.3561"/>
<text text-anchor="middle" x="119.5" y="-132.8" font-family="Times,serif" font-size="14.00" fill="#0050c0">rt</text>
</g>
<!-- T128629 -->
<g id="node3" class="node">
<title>T128629</title>
<polygon fill="none" stroke="#0058ad" points="92.5,-.5 92.5,-29.5 347.5,-29.5 347.5,-.5 92.5,-.5"/>
<text text-anchor="middle" x="132" y="-11.3" font-family="Times,serif" font-size="14.00" fill="#0058ad">a 1983 1</text>
<polyline fill="none" stroke="#0058ad" points="171.5,-.5 171.5,-29.5 "/>
<text text-anchor="middle" x="215.5" y="-11.3" font-family="Times,serif" font-size="14.00" fill="#0058ad">r 1983 [1]</text>
<polyline fill="none" stroke="#0058ad" points="259.5,-.5 259.5,-29.5 "/>
<text text-anchor="middle" x="303.5" y="-11.3" font-family="Times,serif" font-size="14.00" fill="#0058ad">a 1982 14</text>
</g>
<!-- T128629&#45;&gt;T128673 -->
<g id="edge3" class="edge">
<title>T128629&#45;&gt;T128673</title>
<path fill="none" stroke="#0050c0" d="M220.9079,-29.7241C222.3253,-60.7255 223.0857,-134.5976 203,-192 197.5482,-207.5807 187.6781,-223.1413 178.7681,-235.237"/>
<polygon fill="#0050c0" stroke="#0050c0" points="175.8305,-233.3163 172.5269,-243.3829 181.3871,-237.5736 175.8305,-233.3163"/>
<text text-anchor="middle" x="224.5" y="-132.8" font-family="Times,serif" font-size="14.00" fill="#0050c0">rt</text>
</g>
<!-- T128925&#45;&gt;T128629 -->
<g id="edge4" class="edge">
<title>T128925:f0&#45;&gt;T128629:f0</title>
<path fill="none" stroke="#5b00c0" d="M126.798,-81.3819C128.6724,-70.5484 130.935,-55.1335 131.7176,-40.1997"/>
<polygon fill="#5b00c0" stroke="#5b00c0" points="135.2218,-40.0931 132,-30 128.2245,-39.8993 135.2218,-40.0931"/>
<text text-anchor="middle" x="141.5" y="-51.8" font-family="Times,serif" font-size="14.00" fill="#5b00c0">rw</text>
</g>
</g>
</svg>
