<?xml version="1.0" encoding="UTF-8" standalone="no"?>
<!DOCTYPE svg PUBLIC "-//W3C//DTD SVG 1.1//EN"
 "http://www.w3.org/Graphics/SVG/1.1/DTD/svg11.dtd">
<!-- Generated by graphviz version 2.40.1 (20161225.0304)
 -->
<!-- Title: a_graph Pages: 1 -->
<svg width="384pt" height="362pt"
 viewBox="0.00 0.00 384.00 362.00" xmlns="http://www.w3.org/2000/svg" xmlns:xlink="http://www.w3.org/1999/xlink">
<g id="graph0" class="graph" transform="scale(1 1) rotate(0) translate(4 358)">
<title>a_graph</title>
<polygon fill="#ffffff" stroke="transparent" points="-4,4 -4,-358 380,-358 380,4 -4,4"/>
<!-- T22308 -->
<g id="node1" class="node">
<title>T22308</title>
<polygon fill="none" stroke="#0058ad" points="183,-324.5 183,-353.5 262,-353.5 262,-324.5 183,-324.5"/>
<text text-anchor="middle" x="222.5" y="-335.3" font-family="Times,serif" font-size="14.00" fill="#0058ad">a 354 11</text>
</g>
<!-- T22538 -->
<g id="node4" class="node">
<title>T22538</title>
<polygon fill="none" stroke="#0058ad" points="112,-243.5 112,-272.5 189,-272.5 189,-243.5 112,-243.5"/>
<text text-anchor="middle" x="150.5" y="-254.3" font-family="Times,serif" font-size="14.00" fill="#0058ad">r 343 nil</text>
</g>
<!-- T22308&#45;&gt;T22538 -->
<g id="edge1" class="edge">
<title>T22308&#45;&gt;T22538</title>
<path fill="none" stroke="#0050c0" d="M209.2941,-324.1434C198.4343,-311.9261 182.8734,-294.4201 170.488,-280.4865"/>
<polygon fill="#0050c0" stroke="#0050c0" points="172.8818,-277.9113 163.6222,-272.7625 167.6499,-282.5619 172.8818,-277.9113"/>
<text text-anchor="middle" x="200" y="-294.8" font-family="Times,serif" font-size="14.00" fill="#0050c0">rt</text>
</g>
<!-- T22103 -->
<g id="node2" class="node">
<title>T22103</title>
<polygon fill="none" stroke="#0058ad" points="49,-.5 49,-29.5 376,-29.5 376,-.5 49,-.5"/>
<text text-anchor="middle" x="133.5" y="-11.3" font-family="Times,serif" font-size="14.00" fill="#0058ad">r 348 [2 3 6 7 8 9 10]</text>
<polyline fill="none" stroke="#0058ad" points="218,-.5 218,-29.5 "/>
<text text-anchor="middle" x="257.5" y="-11.3" font-family="Times,serif" font-size="14.00" fill="#0058ad">a 348 22</text>
<polyline fill="none" stroke="#0058ad" points="297,-.5 297,-29.5 "/>
<text text-anchor="middle" x="336.5" y="-11.3" font-family="Times,serif" font-size="14.00" fill="#0058ad">a 348 23</text>
</g>
<!-- T22103&#45;&gt;T22308 -->
<g id="edge2" class="edge">
<title>T22103&#45;&gt;T22308</title>
<path fill="none" stroke="#0050c0" d="M225.8698,-29.595C238.4925,-44.9381 255.5,-70.3669 255.5,-96 255.5,-258 255.5,-258 255.5,-258 255.5,-278.4971 246.3251,-299.8988 237.6508,-315.5525"/>
<polygon fill="#0050c0" stroke="#0050c0" points="234.4445,-314.1009 232.4011,-324.4968 240.4815,-317.6442 234.4445,-314.1009"/>
<text text-anchor="middle" x="262" y="-173.3" font-family="Times,serif" font-size="14.00" fill="#0050c0">rt</text>
</g>
<!-- T21755 -->
<g id="node3" class="node">
<title>T21755</title>
<polygon fill="none" stroke="#0058ad" points="129,-81.5 129,-110.5 208,-110.5 208,-81.5 129,-81.5"/>
<text text-anchor="middle" x="168.5" y="-92.3" font-family="Times,serif" font-size="14.00" fill="#0058ad">a 345 11</text>
</g>
<!-- T21755&#45;&gt;T22103 -->
<g id="edge3" class="edge">
<title>T21755&#45;&gt;T22103</title>
<path fill="none" stroke="#0050c0" d="M176.5703,-81.1434C183.0207,-69.2687 192.1853,-52.3976 199.644,-38.6667"/>
<polygon fill="#0050c0" stroke="#0050c0" points="202.7831,-40.2204 204.4809,-29.7625 196.632,-36.879 202.7831,-40.2204"/>
<text text-anchor="middle" x="201" y="-51.8" font-family="Times,serif" font-size="14.00" fill="#0050c0">rt</text>
</g>
<!-- T21559 -->
<g id="node5" class="node">
<title>T21559</title>
<polygon fill="none" stroke="#0058ad" points="0,-162.5 0,-191.5 219,-191.5 219,-162.5 0,-162.5"/>
<text text-anchor="middle" x="35" y="-173.3" font-family="Times,serif" font-size="14.00" fill="#0058ad">a 343 2</text>
<polyline fill="none" stroke="#0058ad" points="70,-162.5 70,-191.5 "/>
<text text-anchor="middle" x="109.5" y="-173.3" font-family="Times,serif" font-size="14.00" fill="#0058ad">r 343 [2]</text>
<polyline fill="none" stroke="#0058ad" points="149,-162.5 149,-191.5 "/>
<text text-anchor="middle" x="184" y="-173.3" font-family="Times,serif" font-size="14.00" fill="#0058ad">a 342 8</text>
</g>
<!-- T22538&#45;&gt;T21559 -->
<g id="edge4" class="edge">
<title>T22538:f0&#45;&gt;T21559:f0</title>
<path fill="none" stroke="#5b00c0" d="M118.8025,-243.415C91.7018,-230.5527 54.881,-212.0358 40.5531,-200.0153"/>
<polygon fill="#5b00c0" stroke="#5b00c0" points="43.3195,-197.8708 34.5,-192 37.7335,-202.0894 43.3195,-197.8708"/>
<text text-anchor="middle" x="89" y="-213.8" font-family="Times,serif" font-size="14.00" fill="#5b00c0">rw</text>
</g>
<!-- T21559&#45;&gt;T21755 -->
<g id="edge5" class="edge">
<title>T21559&#45;&gt;T21755</title>
<path fill="none" stroke="#0050c0" d="M120.3215,-162.1434C129.1373,-150.0403 141.7338,-132.7468 151.8357,-118.8781"/>
<polygon fill="#0050c0" stroke="#0050c0" points="154.6885,-120.9062 157.7471,-110.7625 149.0303,-116.7848 154.6885,-120.9062"/>
<text text-anchor="middle" x="151" y="-132.8" font-family="Times,serif" font-size="14.00" fill="#0050c0">rt</text>
</g>
</g>
</svg>
