<?xml version="1.0" encoding="UTF-8" standalone="no"?>
<!DOCTYPE svg PUBLIC "-//W3C//DTD SVG 1.1//EN"
 "http://www.w3.org/Graphics/SVG/1.1/DTD/svg11.dtd">
<!-- Generated by graphviz version 2.40.1 (20161225.0304)
 -->
<!-- Title: a_graph Pages: 1 -->
<svg width="294pt" height="119pt"
 viewBox="0.00 0.00 293.50 119.00" xmlns="http://www.w3.org/2000/svg" xmlns:xlink="http://www.w3.org/1999/xlink">
<g id="graph0" class="graph" transform="scale(1 1) rotate(0) translate(4 115)">
<title>a_graph</title>
<polygon fill="#ffffff" stroke="transparent" points="-4,4 -4,-115 289.5,-115 289.5,4 -4,4"/>
<!-- T167275 -->
<g id="node1" class="node">
<title>T167275</title>
<polygon fill="none" stroke="#0058ad" points="0,-81.5 0,-110.5 174,-110.5 174,-81.5 0,-81.5"/>
<text text-anchor="middle" x="44" y="-92.3" font-family="Times,serif" font-size="14.00" fill="#0058ad">a 2444 30</text>
<polyline fill="none" stroke="#0058ad" points="88,-81.5 88,-110.5 "/>
<text text-anchor="middle" x="131" y="-92.3" font-family="Times,serif" font-size="14.00" fill="#0058ad">r 2572 nil</text>
</g>
<!-- T167093 -->
<g id="node2" class="node">
<title>T167093</title>
<polygon fill="none" stroke="#0058ad" points="30.5,-.5 30.5,-29.5 285.5,-29.5 285.5,-.5 30.5,-.5"/>
<text text-anchor="middle" x="70" y="-11.3" font-family="Times,serif" font-size="14.00" fill="#0058ad">a 2572 1</text>
<polyline fill="none" stroke="#0058ad" points="109.5,-.5 109.5,-29.5 "/>
<text text-anchor="middle" x="153.5" y="-11.3" font-family="Times,serif" font-size="14.00" fill="#0058ad">r 2572 [1]</text>
<polyline fill="none" stroke="#0058ad" points="197.5,-.5 197.5,-29.5 "/>
<text text-anchor="middle" x="241.5" y="-11.3" font-family="Times,serif" font-size="14.00" fill="#0058ad">a 2571 30</text>
</g>
<!-- T167275&#45;&gt;T167093 -->
<g id="edge1" class="edge">
<title>T167275:f1&#45;&gt;T167093:f0</title>
<path fill="none" stroke="#5b00c0" d="M131,-81C131,-62.7129 108.0175,-74.7443 94,-63 83.1398,-53.9009 74.6002,-49.9465 71.3838,-40.0042"/>
<polygon fill="#5b00c0" stroke="#5b00c0" points="74.8373,-39.4261 70,-30 67.9033,-40.3853 74.8373,-39.4261"/>
<text text-anchor="middle" x="103.5" y="-51.8" font-family="Times,serif" font-size="14.00" fill="#5b00c0">rw</text>
</g>
<!-- T167093&#45;&gt;T167275 -->
<g id="edge2" class="edge">
<title>T167093&#45;&gt;T167275</title>
<path fill="none" stroke="#0050c0" d="M145.0601,-29.7625C134.375,-41.9524 119.0342,-59.454 106.8047,-73.4059"/>
<polygon fill="#0050c0" stroke="#0050c0" points="103.9821,-71.3162 100.0225,-81.1434 109.2462,-75.9304 103.9821,-71.3162"/>
<text text-anchor="middle" x="135.5" y="-51.8" font-family="Times,serif" font-size="14.00" fill="#0050c0">rt</text>
</g>
</g>
</svg>
