<?xml version="1.0" encoding="UTF-8" standalone="no"?> <!-- Created with Vectornator for iOS (http://vectornator.io/) --><!DOCTYPE svg PUBLIC "-//W3C//DTD SVG 1.1//EN" "http://www.w3.org/Graphics/SVG/1.1/DTD/svg11.dtd">
<svg height="100%" style="fill-rule:nonzero;clip-rule:evenodd;stroke-linecap:round;stroke-linejoin:round;" xmlns:xlink="http://www.w3.org/1999/xlink" xmlns="http://www.w3.org/2000/svg" xml:space="preserve" width="100%" xmlns:vectornator="http://vectornator.io" version="1.1" viewBox="0 0 841.995 595.35">
<metadata>
<vectornator:setting key="DimensionsVisible" value="1"/>
<vectornator:setting key="PencilOnly" value="0"/>
<vectornator:setting key="SnapToPoints" value="0"/>
<vectornator:setting key="OutlineMode" value="0"/>
<vectornator:setting key="CMYKEnabledKey" value="0"/>
<vectornator:setting key="RulersVisible" value="1"/>
<vectornator:setting key="SnapToEdges" value="1"/>
<vectornator:setting key="GuidesVisible" value="1"/>
<vectornator:setting key="DisplayWhiteBackground" value="0"/>
<vectornator:setting key="doHistoryDisabled" value="0"/>
<vectornator:setting key="SnapToGuides" value="1"/>
<vectornator:setting key="TimeLapseWatermarkDisabled" value="0"/>
<vectornator:setting key="Units" value="Millimeters"/>
<vectornator:setting key="DynamicGuides" value="0"/>
<vectornator:setting key="IsolateActiveLayer" value="0"/>
<vectornator:setting key="SnapToGrid" value="0"/>
</metadata>
<defs/>
<g id="Layer 1" vectornator:layerName="Layer 1">
<path stroke="#000000" stroke-width="2" d="M17.7453+269.325L828.621+269.325L828.621+340.2L17.7453+340.2L17.7453+269.325Z" fill="#ffffff" stroke-linecap="butt" opacity="1" stroke-linejoin="miter"/>
<path stroke="#000000" stroke-width="2" d="M187.688+184.275L17.5885+184.275L17.5885+141.75L187.688+141.75L187.688+184.275Z" fill="#ff0000" stroke-linecap="butt" opacity="1" stroke-linejoin="miter"/>
<path stroke="#000000" stroke-width="2" d="M59.0114+424.56L271.636+424.56L271.636+467.085L59.0114+467.085L59.0114+424.56Z" fill="#11ff2a" stroke-linecap="butt" opacity="1" stroke-linejoin="miter"/>
<path stroke="#000000" stroke-width="2" d="M-2.21281e+20-2.90827e+18L-2.82309e+20-2.90827e+18L-2.82309e+20+1.99785e+19L-2.21281e+20+1.99785e+19L-2.21281e+20-2.90827e+18Z" fill="#392fe3" stroke-linecap="butt" opacity="1" stroke-linejoin="miter"/>
<path stroke="#000000" stroke-width="2" d="M516.815+340.2L613.427+340.2L613.427+269.325L516.815+269.325L516.815+340.2Z" fill="#ff9100" stroke-linecap="butt" opacity="1" stroke-linejoin="miter"/>
<path stroke="#000000" stroke-width="2" d="M627.642+269.325L741.042+269.325L741.042+340.2L627.642+340.2L627.642+269.325Z" fill="#0e00ff" stroke-linecap="butt" opacity="1" stroke-linejoin="miter"/>
<g opacity="1">
<path d="M336.782+560.613L340.297+560.613L340.297+535.594L349.184+535.594L349.184+532.43L327.895+532.43L327.895+535.594L336.782+535.594L336.782+560.613Z" opacity="1" fill="#000000"/>
<path d="M329.34+608.348L332.739+608.348L332.739+588.035L329.34+588.035L329.34+608.348ZM331.04+584.598C331.639+584.598+332.143+584.389+332.553+583.973C332.963+583.556+333.168+583.055+333.168+582.469C333.168+581.87+332.963+581.365+332.553+580.955C332.143+580.545+331.639+580.34+331.04+580.34C330.454+580.34+329.952+580.545+329.536+580.955C329.119+581.365+328.911+581.87+328.911+582.469C328.911+583.055+329.119+583.556+329.536+583.973C329.952+584.389+330.454+584.598+331.04+584.598Z" opacity="1" fill="#000000"/>
<path d="M329.125+656.082L332.524+656.082L332.524+643.348C332.524+642.397+332.726+641.551+333.129+640.809C333.533+640.066+334.083+639.477+334.78+639.041C335.476+638.605+336.274+638.387+337.172+638.387C338.435+638.387+339.444+638.758+340.2+639.5C340.955+640.242+341.333+641.232+341.333+642.469L341.333+656.082L344.731+656.082L344.731+643.172C344.731+642.247+344.926+641.424+345.317+640.701C345.708+639.978+346.248+639.412+346.938+639.002C347.628+638.592+348.422+638.387+349.321+638.387C350.662+638.387+351.7+638.781+352.436+639.568C353.172+640.356+353.54+641.447+353.54+642.84L353.54+656.082L356.938+656.082L356.938+642.059C356.938+640.704+356.665+639.529+356.118+638.533C355.571+637.537+354.803+636.762+353.813+636.209C352.823+635.656+351.658+635.379+350.317+635.379C349.366+635.379+348.478+635.535+347.651+635.848C346.824+636.16+346.095+636.606+345.463+637.185C344.832+637.765+344.327+638.465+343.95+639.285L343.872+639.285C343.585+638.452+343.168+637.745+342.622+637.166C342.075+636.587+341.427+636.144+340.678+635.838C339.93+635.532+339.093+635.379+338.168+635.379C336.866+635.379+335.727+635.688+334.75+636.307C333.774+636.925+333.058+637.736+332.602+638.738L332.524+638.738L332.524+635.769L329.125+635.769L329.125+656.082Z" opacity="1" fill="#000000"/>
<path d="M337.485+704.207C338.592+704.207+339.62+704.054+340.571+703.748C341.521+703.442+342.368+703.012+343.11+702.459C343.852+701.906+344.461+701.264+344.936+700.535C345.411+699.806+345.734+699.025+345.903+698.191L345.942+697.996L342.602+697.996L342.543+698.172C342.348+698.758+342.023+699.279+341.567+699.734C341.111+700.19+340.545+700.548+339.868+700.809C339.191+701.069+338.422+701.199+337.563+701.199C336.339+701.199+335.278+700.929+334.379+700.389C333.481+699.848+332.788+699.07+332.299+698.055C331.811+697.039+331.567+695.815+331.567+694.383L331.567+693.074C331.567+691.564+331.814+690.291+332.309+689.256C332.804+688.221+333.481+687.439+334.34+686.912C335.2+686.385+336.17+686.121+337.25+686.121C338.331+686.121+339.288+686.372+340.122+686.873C340.955+687.374+341.609+688.139+342.084+689.168C342.56+690.197+342.797+691.499+342.797+693.074L342.797+694.383L344.516+691.922L329.829+691.922L329.829+694.578L346.196+694.578L346.196+693.328C346.196+691.297+345.838+689.513+345.122+687.977C344.405+686.44+343.38+685.245+342.045+684.393C340.711+683.54+339.119+683.113+337.27+683.113C335.421+683.113+333.813+683.559+332.446+684.451C331.079+685.343+330.017+686.587+329.262+688.182C328.507+689.777+328.129+691.622+328.129+693.719L328.129+693.738C328.129+695.861+328.504+697.706+329.252+699.275C330.001+700.844+331.075+702.059+332.475+702.918C333.875+703.777+335.545+704.207+337.485+704.207Z" opacity="1" fill="#000000"/>
<path d="M368.168+737.449C368.168+737.202+368.12+736.967+368.022+736.746C367.924+736.525+367.778+736.323+367.583+736.141L354.633+723.23C354.425+723.022+354.213+722.872+353.999+722.781C353.784+722.69+353.559+722.644+353.325+722.644C352.843+722.644+352.439+722.804+352.114+723.123C351.788+723.442+351.625+723.842+351.625+724.324C351.625+724.559+351.665+724.783+351.743+724.998C351.821+725.213+351.938+725.398+352.094+725.555L356.469+730.008L364.223+737.078L364.614+736.102L358.325+735.711L333.618+735.711C333.11+735.711+332.696+735.874+332.377+736.199C332.058+736.525+331.899+736.941+331.899+737.449C331.899+737.957+332.058+738.374+332.377+738.699C332.696+739.025+333.11+739.187+333.618+739.187L358.325+739.187L364.614+738.797L364.223+737.84L356.469+744.891L352.094+749.344C351.938+749.5+351.821+749.685+351.743+749.9C351.665+750.115+351.625+750.34+351.625+750.574C351.625+751.056+351.788+751.456+352.114+751.775C352.439+752.094+352.843+752.254+353.325+752.254C353.793+752.254+354.217+752.072+354.594+751.707L367.583+738.758C367.778+738.562+367.924+738.354+368.022+738.133C368.12+737.911+368.168+737.684+368.168+737.449Z" opacity="1" fill="#000000"/>
</g>
<g opacity="1">
<path d="M694.924+529.673L698.44+529.673L698.44+504.653L707.327+504.653L707.327+501.489L686.038+501.489L686.038+504.653L694.924+504.653L694.924+529.673Z" opacity="1" fill="#000000"/>
<path d="M711.096+529.673L714.495+529.673L714.495+509.36L711.096+509.36L711.096+529.673ZM712.795+505.923C713.394+505.923+713.899+505.714+714.309+505.298C714.719+504.881+714.924+504.38+714.924+503.794C714.924+503.195+714.719+502.69+714.309+502.28C713.899+501.87+713.394+501.665+712.795+501.665C712.209+501.665+711.708+501.87+711.292+502.28C710.875+502.69+710.667+503.195+710.667+503.794C710.667+504.38+710.875+504.881+711.292+505.298C711.708+505.714+712.209+505.923+712.795+505.923Z" opacity="1" fill="#000000"/>
<path d="M719.495+529.673L722.893+529.673L722.893+516.938C722.893+515.988+723.095+515.141+723.499+514.399C723.902+513.657+724.452+513.068+725.149+512.632C725.846+512.195+726.643+511.977+727.542+511.977C728.805+511.977+729.814+512.348+730.569+513.091C731.324+513.833+731.702+514.822+731.702+516.059L731.702+529.673L735.1+529.673L735.1+516.763C735.1+515.838+735.295+515.014+735.686+514.292C736.077+513.569+736.617+513.003+737.307+512.593C737.997+512.182+738.792+511.977+739.69+511.977C741.031+511.977+742.07+512.371+742.805+513.159C743.541+513.947+743.909+515.037+743.909+516.431L743.909+529.673L747.307+529.673L747.307+515.649C747.307+514.295+747.034+513.12+746.487+512.124C745.94+511.128+745.172+510.353+744.182+509.8C743.193+509.246+742.027+508.97+740.686+508.97C739.736+508.97+738.847+509.126+738.02+509.438C737.193+509.751+736.464+510.197+735.833+510.776C735.201+511.356+734.696+512.056+734.319+512.876L734.241+512.876C733.954+512.042+733.538+511.336+732.991+510.757C732.444+510.177+731.796+509.735+731.047+509.429C730.299+509.123+729.462+508.97+728.538+508.97C727.236+508.97+726.096+509.279+725.12+509.897C724.143+510.516+723.427+511.326+722.971+512.329L722.893+512.329L722.893+509.36L719.495+509.36L719.495+529.673Z" opacity="1" fill="#000000"/>
<path d="M760.354+530.063C761.461+530.063+762.489+529.91+763.44+529.604C764.39+529.298+765.237+528.869+765.979+528.315C766.721+527.762+767.33+527.121+767.805+526.391C768.28+525.662+768.603+524.881+768.772+524.048L768.811+523.852L765.471+523.852L765.413+524.028C765.217+524.614+764.892+525.135+764.436+525.591C763.98+526.046+763.414+526.404+762.737+526.665C762.06+526.925+761.292+527.056+760.432+527.056C759.208+527.056+758.147+526.785+757.249+526.245C756.35+525.705+755.657+524.927+755.168+523.911C754.68+522.895+754.436+521.671+754.436+520.239L754.436+518.931C754.436+517.42+754.683+516.147+755.178+515.112C755.673+514.077+756.35+513.296+757.209+512.768C758.069+512.241+759.039+511.977+760.12+511.977C761.2+511.977+762.157+512.228+762.991+512.729C763.824+513.231+764.478+513.996+764.954+515.024C765.429+516.053+765.667+517.355+765.667+518.931L765.667+520.239L767.385+517.778L752.698+517.778L752.698+520.434L769.065+520.434L769.065+519.184C769.065+517.153+768.707+515.369+767.991+513.833C767.275+512.296+766.249+511.102+764.915+510.249C763.58+509.396+761.988+508.97+760.139+508.97C758.29+508.97+756.682+509.416+755.315+510.307C753.948+511.199+752.887+512.443+752.131+514.038C751.376+515.633+750.999+517.479+750.999+519.575L750.999+519.595C750.999+521.717+751.373+523.563+752.122+525.132C752.87+526.701+753.945+527.915+755.344+528.774C756.744+529.634+758.414+530.063+760.354+530.063Z" opacity="1" fill="#000000"/>
<path d="M820.471+515.571C820.471+515.324+820.422+515.089+820.325+514.868C820.227+514.647+820.081+514.445+819.885+514.263L806.936+501.352C806.728+501.144+806.516+500.994+806.301+500.903C806.086+500.812+805.862+500.766+805.627+500.766C805.146+500.766+804.742+500.926+804.417+501.245C804.091+501.564+803.928+501.964+803.928+502.446C803.928+502.681+803.967+502.905+804.045+503.12C804.124+503.335+804.241+503.52+804.397+503.677L808.772+508.13L816.526+515.2L816.917+514.223L810.627+513.833L785.92+513.833C785.413+513.833+784.999+513.996+784.68+514.321C784.361+514.647+784.202+515.063+784.202+515.571C784.202+516.079+784.361+516.496+784.68+516.821C784.999+517.147+785.413+517.309+785.92+517.309L810.627+517.309L816.917+516.919L816.526+515.962L808.772+523.013L804.397+527.466C804.241+527.622+804.124+527.807+804.045+528.022C803.967+528.237+803.928+528.462+803.928+528.696C803.928+529.178+804.091+529.578+804.417+529.897C804.742+530.216+805.146+530.376+805.627+530.376C806.096+530.376+806.519+530.194+806.897+529.829L819.885+516.88C820.081+516.684+820.227+516.476+820.325+516.255C820.422+516.033+820.471+515.806+820.471+515.571Z" opacity="1" fill="#000000"/>
</g>
<g opacity="1">
<path d="M817.346+608.264L820.862+608.264L820.862+583.245L829.749+583.245L829.749+580.081L808.459+580.081L808.459+583.245L817.346+583.245L817.346+608.264Z" opacity="1" fill="#000000"/>
<path d="M815.92+656.389C817.027+656.389+818.056+656.236+819.006+655.93C819.957+655.624+820.803+655.195+821.545+654.641C822.288+654.088+822.896+653.447+823.372+652.718C823.847+651.988+824.169+651.207+824.338+650.374L824.377+650.178L821.038+650.178L820.979+650.354C820.784+650.94+820.458+651.461+820.002+651.917C819.547+652.372+818.98+652.731+818.303+652.991C817.626+653.251+816.858+653.382+815.999+653.382C814.775+653.382+813.713+653.111+812.815+652.571C811.917+652.031+811.223+651.253+810.735+650.237C810.247+649.221+810.002+647.997+810.002+646.565L810.002+645.257C810.002+643.746+810.25+642.473+810.745+641.438C811.239+640.403+811.917+639.622+812.776+639.094C813.635+638.567+814.605+638.303+815.686+638.303C816.767+638.303+817.724+638.554+818.557+639.055C819.39+639.557+820.045+640.322+820.52+641.35C820.995+642.379+821.233+643.681+821.233+645.257L821.233+646.565L822.952+644.104L808.264+644.104L808.264+646.76L824.631+646.76L824.631+645.51C824.631+643.479+824.273+641.695+823.557+640.159C822.841+638.622+821.816+637.428+820.481+636.575C819.146+635.722+817.555+635.296+815.706+635.296C813.857+635.296+812.249+635.742+810.881+636.634C809.514+637.525+808.453+638.769+807.698+640.364C806.943+641.959+806.565+643.805+806.565+645.901L806.565+645.921C806.565+648.043+806.939+649.889+807.688+651.458C808.437+653.027+809.511+654.241+810.911+655.1C812.31+655.96+813.98+656.389+815.92+656.389Z" opacity="1" fill="#000000"/>
<path d="M807.346+703.733L811.116+703.733L816.018+695.999L816.096+695.999L820.959+703.733L824.729+703.733L817.971+693.44L824.827+683.421L821.038+683.421L816.213+691.038L816.135+691.038L811.252+683.421L807.463+683.421L814.26+693.577L807.346+703.733Z" opacity="1" fill="#000000"/>
<path d="M822.209+751.858C822.548+751.858+822.883+751.842+823.215+751.809C823.547+751.777+823.818+751.747+824.026+751.721L824.026+748.968C823.883+748.981+823.717+748.997+823.528+749.016C823.339+749.036+823.14+749.046+822.932+749.046C822.021+749.046+821.331+748.854+820.862+748.469C820.393+748.085+820.159+747.353+820.159+746.272L820.159+733.968L824.026+733.968L824.026+731.155L820.159+731.155L820.159+725.667L816.643+725.667L816.643+731.155L813.674+731.155L813.674+733.968L816.643+733.968L816.643+746.292C816.643+748.232+817.105+749.645+818.03+750.53C818.954+751.415+820.348+751.858+822.209+751.858Z" opacity="1" fill="#000000"/>
</g>
<g opacity="1">
<path d="M551.618+731.928L555.133+731.928L555.133+706.908L564.02+706.908L564.02+703.744L542.731+703.744L542.731+706.908L551.618+706.908L551.618+731.928Z" opacity="1" fill="#000000"/>
<path d="M552.321+780.053C553.427+780.053+554.456+779.9+555.407+779.594C556.357+779.288+557.203+778.858+557.946+778.305C558.688+777.751+559.297+777.11+559.772+776.381C560.247+775.652+560.569+774.871+560.739+774.037L560.778+773.842L557.438+773.842L557.379+774.018C557.184+774.604+556.858+775.124+556.403+775.58C555.947+776.036+555.381+776.394+554.703+776.654C554.026+776.915+553.258+777.045+552.399+777.045C551.175+777.045+550.114+776.775+549.215+776.234C548.317+775.694+547.623+774.916+547.135+773.9C546.647+772.885+546.403+771.661+546.403+770.229L546.403+768.92C546.403+767.41+546.65+766.137+547.145+765.102C547.64+764.066+548.317+763.285+549.176+762.758C550.036+762.231+551.006+761.967+552.086+761.967C553.167+761.967+554.124+762.218+554.957+762.719C555.791+763.22+556.445+763.985+556.92+765.014C557.396+766.042+557.633+767.344+557.633+768.92L557.633+770.229L559.352+767.768L544.664+767.768L544.664+770.424L561.032+770.424L561.032+769.174C561.032+767.143+560.674+765.359+559.957+763.822C559.241+762.286+558.216+761.091+556.881+760.238C555.547+759.385+553.955+758.959+552.106+758.959C550.257+758.959+548.649+759.405+547.282+760.297C545.914+761.189+544.853+762.432+544.098+764.027C543.343+765.622+542.965+767.468+542.965+769.565L542.965+769.584C542.965+771.706+543.34+773.552+544.088+775.121C544.837+776.69+545.911+777.904+547.311+778.764C548.711+779.623+550.381+780.053+552.321+780.053Z" opacity="1" fill="#000000"/>
<path d="M542.379+827.397L546.149+827.397L551.051+819.662L551.129+819.662L555.993+827.397L559.762+827.397L553.004+817.104L559.86+807.084L556.071+807.084L551.246+814.701L551.168+814.701L546.286+807.084L542.496+807.084L549.293+817.24L542.379+827.397Z" opacity="1" fill="#000000"/>
<path d="M555.141+875.522C555.48+875.522+555.815+875.505+556.147+875.473C556.479+875.44+556.749+875.411+556.957+875.385L556.957+872.631C556.814+872.644+556.648+872.66+556.459+872.68C556.271+872.699+556.072+872.709+555.864+872.709C554.952+872.709+554.262+872.517+553.793+872.133C553.325+871.749+553.09+871.016+553.09+869.936L553.09+857.631L556.957+857.631L556.957+854.818L553.09+854.818L553.09+849.33L549.575+849.33L549.575+854.818L546.606+854.818L546.606+857.631L549.575+857.631L549.575+869.955C549.575+871.895+550.037+873.308+550.961+874.193C551.886+875.079+553.279+875.522+555.141+875.522Z" opacity="1" fill="#000000"/>
</g>
<path stroke="#000000" stroke-width="2" d="M122.757+340.2L167.212+340.2L167.212+269.325L122.757+269.325L122.757+340.2Z" fill="#ff0000" stroke-linecap="butt" opacity="1" stroke-linejoin="miter"/>
<path stroke="#000000" stroke-width="2" d="M63.871+269.325L117.117+269.325L117.117+340.2L63.871+340.2L63.871+269.325Z" fill="#11ff2a" stroke-linecap="butt" opacity="1" stroke-linejoin="miter"/>
<path stroke="#000000" stroke-width="2" d="M486.228+184.275L670.503+184.275L670.503+141.75L486.228+141.75L486.228+184.275Z" fill="#ff9100" stroke-linecap="butt" opacity="1" stroke-linejoin="miter"/>
<path stroke="#000000" stroke-width="2" d="M457.191+425.25L756.535+425.25L756.535+467.775L457.191+467.775L457.191+425.25Z" fill="#0e00ff" stroke-linecap="butt" opacity="1" stroke-linejoin="miter"/>
<path stroke="#000000" stroke-width="2" d="M185.839+184.275L167.076+269.741" fill="none" stroke-linecap="round" opacity="1" stroke-linejoin="round"/>
<path stroke="#000000" stroke-width="2" d="M18.3845+184.275L122.818+269.325" fill="none" stroke-linecap="round" opacity="1" stroke-linejoin="round"/>
<path stroke="#000000" stroke-width="2" d="M60.8065+424.56L64.671+340.2" fill="none" stroke-linecap="butt" opacity="1" stroke-linejoin="miter"/>
<path stroke="#000000" stroke-width="2" d="M266.728+424.56L117.117+337.886" fill="none" stroke-linecap="round" opacity="1" stroke-linejoin="round"/>
<path stroke="#000000" stroke-width="2" d="M751.996+425.25L742.059+340.2" fill="none" stroke-linecap="round" opacity="1" stroke-linejoin="round"/>
<path stroke="#000000" stroke-width="2" d="M456.501+426.006L629.989+340.2" fill="none" stroke-linecap="round" opacity="1" stroke-linejoin="round"/>
<path stroke="#000000" stroke-width="2" d="M666.977+184.275L612.875+269.325" fill="none" stroke-linecap="round" opacity="1" stroke-linejoin="round"/>
<path stroke="#000000" stroke-width="2" d="M486.228+180.546L518.983+269.325" fill="none" stroke-linecap="round" opacity="1" stroke-linejoin="round"/>
<path stroke="#444444" stroke-width="2" d="M18.4194+184.303L18.4447+269.325" fill="none" stroke-linecap="butt" opacity="1" stroke-linejoin="miter"/>
<path stroke="#444444" stroke-width="2" d="M186.673+184.275L186.191+269.325" fill="none" stroke-linecap="round" opacity="1" stroke-linejoin="round"/>
<path stroke="#444444" stroke-width="2" d="M59.0035+425.424L57.9363+340.2" fill="none" stroke-linecap="round" opacity="1" stroke-linejoin="round"/>
<path stroke="#444444" stroke-width="2" d="M271.428+424.56L271.872+340.2" fill="none" stroke-linecap="round" opacity="1" stroke-linejoin="round"/>
<path stroke="#444444" stroke-width="2" d="M459.077+341.86L457.63+425.448" fill="none" stroke-linecap="round" opacity="1" stroke-linejoin="round"/>
<path stroke="#444444" stroke-width="2" d="M756.557+425.404L756.704+340.2" fill="none" stroke-linecap="round" opacity="1" stroke-linejoin="round"/>
<path stroke="#444444" stroke-width="2" d="M670.508+184.7L669.817+269.325" fill="none" stroke-linecap="round" opacity="1" stroke-linejoin="round"/>
<path stroke="#444444" stroke-width="2" d="M487.363+186.863L487.312+269.325" fill="none" stroke-linecap="round" opacity="1" stroke-linejoin="round"/>
</g>
</svg>
