<?xml version="1.0" encoding="UTF-8" standalone="no"?> <!-- Created with Vectornator for iOS (http://vectornator.io/) --><!DOCTYPE svg PUBLIC "-//W3C//DTD SVG 1.1//EN" "http://www.w3.org/Graphics/SVG/1.1/DTD/svg11.dtd">
<svg height="100%" style="fill-rule:nonzero;clip-rule:evenodd;stroke-linecap:round;stroke-linejoin:round;" xmlns:xlink="http://www.w3.org/1999/xlink" xmlns="http://www.w3.org/2000/svg" xml:space="preserve" width="100%" xmlns:vectornator="http://vectornator.io" version="1.1" viewBox="0 0 841.995 595.35">
<metadata>
<vectornator:setting key="DimensionsVisible" value="1"/>
<vectornator:setting key="PencilOnly" value="0"/>
<vectornator:setting key="SnapToPoints" value="0"/>
<vectornator:setting key="OutlineMode" value="0"/>
<vectornator:setting key="CMYKEnabledKey" value="0"/>
<vectornator:setting key="RulersVisible" value="1"/>
<vectornator:setting key="SnapToEdges" value="1"/>
<vectornator:setting key="GuidesVisible" value="1"/>
<vectornator:setting key="DisplayWhiteBackground" value="0"/>
<vectornator:setting key="doHistoryDisabled" value="0"/>
<vectornator:setting key="SnapToGuides" value="1"/>
<vectornator:setting key="TimeLapseWatermarkDisabled" value="0"/>
<vectornator:setting key="Units" value="Millimeters"/>
<vectornator:setting key="DynamicGuides" value="0"/>
<vectornator:setting key="IsolateActiveLayer" value="0"/>
<vectornator:setting key="SnapToGrid" value="0"/>
</metadata>
<defs/>
<g id="Layer 1" vectornator:layerName="Layer 1">
<path stroke="#000000" stroke-width="2" d="M34.8214+269.325L828.621+269.325L828.621+340.2L34.8214+340.2L34.8214+269.325Z" fill="#ffffff" stroke-linecap="butt" opacity="1" stroke-linejoin="miter"/>
<path stroke="#000000" stroke-width="2" d="M187.688+184.275L17.5885+184.275L17.5885+141.75L187.688+141.75L187.688+184.275Z" fill="#ff0000" stroke-linecap="butt" opacity="1" stroke-linejoin="miter"/>
<path stroke="#000000" stroke-width="2" d="M229.616+425.25L442.241+425.25L442.241+467.775L229.616+467.775L229.616+425.25Z" fill="#11ff2a" stroke-linecap="butt" opacity="1" stroke-linejoin="miter"/>
<path stroke="#000000" stroke-width="2" d="M-2.21281e+20-2.90827e+18L-2.82309e+20-2.90827e+18L-2.82309e+20+1.99785e+19L-2.21281e+20+1.99785e+19L-2.21281e+20-2.90827e+18Z" fill="#392fe3" stroke-linecap="butt" opacity="1" stroke-linejoin="miter"/>
<path stroke="#000000" stroke-width="2" d="M505.413+340.2L689.688+340.2L689.688+269.325L505.413+269.325L505.413+340.2Z" fill="#ff9100" stroke-linecap="butt" opacity="1" stroke-linejoin="miter"/>
<path stroke="#000000" stroke-width="2" d="M702.483+269.325L815.883+269.325L815.883+340.2L702.483+340.2L702.483+269.325Z" fill="#0e00ff" stroke-linecap="butt" opacity="1" stroke-linejoin="miter"/>
<g opacity="1">
<path d="M336.782+560.613L340.297+560.613L340.297+535.594L349.184+535.594L349.184+532.43L327.895+532.43L327.895+535.594L336.782+535.594L336.782+560.613Z" opacity="1" fill="#000000"/>
<path d="M329.34+608.348L332.739+608.348L332.739+588.035L329.34+588.035L329.34+608.348ZM331.04+584.598C331.639+584.598+332.143+584.389+332.553+583.973C332.963+583.556+333.168+583.055+333.168+582.469C333.168+581.87+332.963+581.365+332.553+580.955C332.143+580.545+331.639+580.34+331.04+580.34C330.454+580.34+329.952+580.545+329.536+580.955C329.119+581.365+328.911+581.87+328.911+582.469C328.911+583.055+329.119+583.556+329.536+583.973C329.952+584.389+330.454+584.598+331.04+584.598Z" opacity="1" fill="#000000"/>
<path d="M329.125+656.082L332.524+656.082L332.524+643.348C332.524+642.397+332.726+641.551+333.129+640.809C333.533+640.066+334.083+639.477+334.78+639.041C335.476+638.605+336.274+638.387+337.172+638.387C338.435+638.387+339.444+638.758+340.2+639.5C340.955+640.242+341.333+641.232+341.333+642.469L341.333+656.082L344.731+656.082L344.731+643.172C344.731+642.247+344.926+641.424+345.317+640.701C345.708+639.978+346.248+639.412+346.938+639.002C347.628+638.592+348.422+638.387+349.321+638.387C350.662+638.387+351.7+638.781+352.436+639.568C353.172+640.356+353.54+641.447+353.54+642.84L353.54+656.082L356.938+656.082L356.938+642.059C356.938+640.704+356.665+639.529+356.118+638.533C355.571+637.537+354.803+636.762+353.813+636.209C352.823+635.656+351.658+635.379+350.317+635.379C349.366+635.379+348.478+635.535+347.651+635.848C346.824+636.16+346.095+636.606+345.463+637.185C344.832+637.765+344.327+638.465+343.95+639.285L343.872+639.285C343.585+638.452+343.168+637.745+342.622+637.166C342.075+636.587+341.427+636.144+340.678+635.838C339.93+635.532+339.093+635.379+338.168+635.379C336.866+635.379+335.727+635.688+334.75+636.307C333.774+636.925+333.058+637.736+332.602+638.738L332.524+638.738L332.524+635.769L329.125+635.769L329.125+656.082Z" opacity="1" fill="#000000"/>
<path d="M337.485+704.207C338.592+704.207+339.62+704.054+340.571+703.748C341.521+703.442+342.368+703.012+343.11+702.459C343.852+701.906+344.461+701.264+344.936+700.535C345.411+699.806+345.734+699.025+345.903+698.191L345.942+697.996L342.602+697.996L342.543+698.172C342.348+698.758+342.023+699.279+341.567+699.734C341.111+700.19+340.545+700.548+339.868+700.809C339.191+701.069+338.422+701.199+337.563+701.199C336.339+701.199+335.278+700.929+334.379+700.389C333.481+699.848+332.788+699.07+332.299+698.055C331.811+697.039+331.567+695.815+331.567+694.383L331.567+693.074C331.567+691.564+331.814+690.291+332.309+689.256C332.804+688.221+333.481+687.439+334.34+686.912C335.2+686.385+336.17+686.121+337.25+686.121C338.331+686.121+339.288+686.372+340.122+686.873C340.955+687.374+341.609+688.139+342.084+689.168C342.56+690.197+342.797+691.499+342.797+693.074L342.797+694.383L344.516+691.922L329.829+691.922L329.829+694.578L346.196+694.578L346.196+693.328C346.196+691.297+345.838+689.513+345.122+687.977C344.405+686.44+343.38+685.245+342.045+684.393C340.711+683.54+339.119+683.113+337.27+683.113C335.421+683.113+333.813+683.559+332.446+684.451C331.079+685.343+330.017+686.587+329.262+688.182C328.507+689.777+328.129+691.622+328.129+693.719L328.129+693.738C328.129+695.861+328.504+697.706+329.252+699.275C330.001+700.844+331.075+702.059+332.475+702.918C333.875+703.777+335.545+704.207+337.485+704.207Z" opacity="1" fill="#000000"/>
<path d="M368.168+737.449C368.168+737.202+368.12+736.967+368.022+736.746C367.924+736.525+367.778+736.323+367.583+736.141L354.633+723.23C354.425+723.022+354.213+722.872+353.999+722.781C353.784+722.69+353.559+722.644+353.325+722.644C352.843+722.644+352.439+722.804+352.114+723.123C351.788+723.442+351.625+723.842+351.625+724.324C351.625+724.559+351.665+724.783+351.743+724.998C351.821+725.213+351.938+725.398+352.094+725.555L356.469+730.008L364.223+737.078L364.614+736.102L358.325+735.711L333.618+735.711C333.11+735.711+332.696+735.874+332.377+736.199C332.058+736.525+331.899+736.941+331.899+737.449C331.899+737.957+332.058+738.374+332.377+738.699C332.696+739.025+333.11+739.187+333.618+739.187L358.325+739.187L364.614+738.797L364.223+737.84L356.469+744.891L352.094+749.344C351.938+749.5+351.821+749.685+351.743+749.9C351.665+750.115+351.625+750.34+351.625+750.574C351.625+751.056+351.788+751.456+352.114+751.775C352.439+752.094+352.843+752.254+353.325+752.254C353.793+752.254+354.217+752.072+354.594+751.707L367.583+738.758C367.778+738.562+367.924+738.354+368.022+738.133C368.12+737.911+368.168+737.684+368.168+737.449Z" opacity="1" fill="#000000"/>
</g>
<g opacity="1">
<path d="M486.272+582.356L489.788+582.356L489.788+557.336L498.674+557.336L498.674+554.172L477.385+554.172L477.385+557.336L486.272+557.336L486.272+582.356Z" opacity="1" fill="#000000"/>
<path d="M497.737+582.356L501.135+582.356L501.135+569.817C501.135+568.788+501.314+567.906+501.672+567.17C502.03+566.435+502.538+565.871+503.196+565.481C503.853+565.09+504.618+564.895+505.491+564.895C505.907+564.895+506.282+564.914+506.614+564.953C506.946+564.992+507.177+565.038+507.307+565.09L507.307+561.789C507.177+561.763+506.991+561.734+506.751+561.701C506.51+561.669+506.239+561.653+505.94+561.653C504.794+561.653+503.805+561.998+502.971+562.688C502.138+563.378+501.552+564.309+501.213+565.481L501.135+565.481L501.135+562.043L497.737+562.043L497.737+582.356Z" opacity="1" fill="#000000"/>
<path d="M515.979+582.746C516.89+582.746+517.753+582.593+518.567+582.287C519.381+581.981+520.113+581.552+520.764+580.998C521.415+580.445+521.936+579.797+522.327+579.055L522.405+579.055L522.405+582.356L525.803+582.356L525.803+568.313C525.803+566.959+525.484+565.783+524.846+564.787C524.208+563.791+523.306+563.02+522.141+562.473C520.976+561.926+519.592+561.653+517.991+561.653C516.402+561.653+515.029+561.923+513.87+562.463C512.711+563.004+511.803+563.729+511.145+564.641C510.487+565.552+510.107+566.568+510.002+567.688L509.983+567.903L513.264+567.903L513.303+567.727C513.499+566.815+513.997+566.076+514.797+565.51C515.598+564.944+516.65+564.66+517.952+564.66C519.371+564.66+520.468+565.015+521.243+565.725C522.017+566.435+522.405+567.408+522.405+568.645L522.405+574.641C522.405+575.617+522.154+576.496+521.653+577.278C521.152+578.059+520.474+578.674+519.622+579.123C518.769+579.573+517.808+579.797+516.741+579.797C515.517+579.797+514.537+579.511+513.801+578.938C513.066+578.365+512.698+577.59+512.698+576.614L512.698+576.574C512.698+575.624+513.072+574.862+513.821+574.289C514.57+573.716+515.621+573.391+516.975+573.313L524.104+572.883L524.104+570.246L516.584+570.676C514.254+570.806+512.444+571.389+511.155+572.424C509.866+573.459+509.221+574.843+509.221+576.574L509.221+576.614C509.221+577.838+509.504+578.912+510.071+579.836C510.637+580.761+511.428+581.477+512.444+581.985C513.459+582.492+514.638+582.746+515.979+582.746Z" opacity="1" fill="#000000"/>
<path d="M530.491+582.356L533.889+582.356L533.889+570.403C533.889+569.244+534.107+568.235+534.543+567.375C534.98+566.516+535.595+565.849+536.389+565.373C537.183+564.898+538.114+564.66+539.182+564.66C540.745+564.66+541.913+565.1+542.688+565.979C543.463+566.858+543.85+568.124+543.85+569.778L543.85+582.356L547.249+582.356L547.249+569.172C547.249+566.854+546.633+565.022+545.403+563.674C544.172+562.326+542.444+561.653+540.217+561.653C538.681+561.653+537.392+561.962+536.35+562.58C535.308+563.199+534.514+563.983+533.967+564.934L533.889+564.934L533.889+562.043L530.491+562.043L530.491+582.356Z" opacity="1" fill="#000000"/>
<path d="M559.143+582.746C560.654+582.746+562.004+582.489+563.196+581.975C564.387+581.461+565.325+580.748+566.008+579.836C566.692+578.925+567.034+577.877+567.034+576.692L567.034+576.672C567.034+575.227+566.617+574.071+565.784+573.205C564.95+572.339+563.505+571.659+561.448+571.164L558.225+570.383C557.105+570.11+556.298+569.732+555.803+569.25C555.308+568.769+555.061+568.183+555.061+567.492L555.061+567.473C555.061+566.874+555.221+566.35+555.54+565.901C555.859+565.451+556.318+565.103+556.917+564.856C557.515+564.608+558.225+564.485+559.045+564.485C560.308+564.485+561.308+564.784+562.043+565.383C562.779+565.982+563.212+566.776+563.342+567.766L563.362+567.903L566.604+567.903L566.584+567.649C566.506+566.516+566.152+565.497+565.52+564.592C564.889+563.687+564.023+562.971+562.922+562.444C561.822+561.916+560.53+561.653+559.045+561.653C557.587+561.653+556.295+561.907+555.168+562.414C554.042+562.922+553.163+563.625+552.532+564.524C551.9+565.422+551.584+566.457+551.584+567.629L551.584+567.649C551.584+569.107+552.053+570.295+552.991+571.213C553.928+572.131+555.354+572.818+557.268+573.274L560.491+574.055C561.65+574.341+562.45+574.706+562.893+575.149C563.336+575.591+563.557+576.177+563.557+576.907L563.557+576.926C563.557+577.538+563.381+578.069+563.03+578.518C562.678+578.967+562.177+579.312+561.526+579.553C560.875+579.794+560.087+579.914+559.163+579.914C557.782+579.914+556.708+579.631+555.94+579.065C555.172+578.498+554.683+577.707+554.475+576.692L554.436+576.496L551.038+576.496L551.057+576.672C551.2+577.883+551.607+578.944+552.278+579.856C552.948+580.767+553.863+581.477+555.022+581.985C556.181+582.492+557.555+582.746+559.143+582.746Z" opacity="1" fill="#000000"/>
<path d="M576.858+582.746C577.769+582.746+578.632+582.593+579.446+582.287C580.26+581.981+580.992+581.552+581.643+580.998C582.294+580.445+582.815+579.797+583.206+579.055L583.284+579.055L583.284+582.356L586.682+582.356L586.682+568.313C586.682+566.959+586.363+565.783+585.725+564.787C585.087+563.791+584.185+563.02+583.02+562.473C581.855+561.926+580.471+561.653+578.87+561.653C577.281+561.653+575.907+561.923+574.749+562.463C573.59+563.004+572.681+563.729+572.024+564.641C571.366+565.552+570.986+566.568+570.881+567.688L570.862+567.903L574.143+567.903L574.182+567.727C574.377+566.815+574.876+566.076+575.676+565.51C576.477+564.944+577.528+564.66+578.831+564.66C580.25+564.66+581.347+565.015+582.122+565.725C582.896+566.435+583.284+567.408+583.284+568.645L583.284+574.641C583.284+575.617+583.033+576.496+582.532+577.278C582.03+578.059+581.353+578.674+580.501+579.123C579.648+579.573+578.687+579.797+577.62+579.797C576.396+579.797+575.416+579.511+574.68+578.938C573.945+578.365+573.577+577.59+573.577+576.614L573.577+576.574C573.577+575.624+573.951+574.862+574.7+574.289C575.448+573.716+576.5+573.391+577.854+573.313L584.983+572.883L584.983+570.246L577.463+570.676C575.133+570.806+573.323+571.389+572.034+572.424C570.745+573.459+570.1+574.843+570.1+576.574L570.1+576.614C570.1+577.838+570.383+578.912+570.95+579.836C571.516+580.761+572.307+581.477+573.323+581.985C574.338+582.492+575.517+582.746+576.858+582.746Z" opacity="1" fill="#000000"/>
<path d="M599.788+582.746C601.324+582.746+602.695+582.444+603.899+581.838C605.103+581.233+606.086+580.412+606.848+579.377C607.61+578.342+608.082+577.18+608.264+575.891L608.284+575.754L604.944+575.754L604.905+575.91C604.618+577.043+604.042+577.964+603.176+578.674C602.31+579.384+601.181+579.739+599.788+579.739C598.616+579.739+597.584+579.439+596.692+578.84C595.8+578.241+595.103+577.382+594.602+576.262C594.101+575.142+593.85+573.795+593.85+572.219L593.85+572.199C593.85+570.663+594.098+569.332+594.592+568.205C595.087+567.079+595.777+566.207+596.663+565.588C597.548+564.97+598.577+564.66+599.749+564.66C601.246+564.66+602.415+565.045+603.254+565.813C604.094+566.581+604.638+567.473+604.885+568.489L604.924+568.645L608.245+568.645L608.225+568.489C608.082+567.33+607.662+566.229+606.965+565.188C606.269+564.146+605.315+563.297+604.104+562.639C602.893+561.981+601.441+561.653+599.749+561.653C597.874+561.653+596.233+562.082+594.827+562.942C593.42+563.801+592.327+565.019+591.545+566.594C590.764+568.17+590.374+570.025+590.374+572.16L590.374+572.18C590.374+574.328+590.758+576.194+591.526+577.776C592.294+579.358+593.385+580.582+594.797+581.448C596.21+582.313+597.874+582.746+599.788+582.746Z" opacity="1" fill="#000000"/>
<path d="M618.381+582.746C618.72+582.746+619.055+582.73+619.387+582.698C619.719+582.665+619.989+582.636+620.198+582.61L620.198+579.856C620.055+579.869+619.889+579.885+619.7+579.905C619.511+579.924+619.312+579.934+619.104+579.934C618.193+579.934+617.502+579.742+617.034+579.358C616.565+578.974+616.331+578.241+616.331+577.16L616.331+564.856L620.198+564.856L620.198+562.043L616.331+562.043L616.331+556.555L612.815+556.555L612.815+562.043L609.846+562.043L609.846+564.856L612.815+564.856L612.815+577.18C612.815+579.12+613.277+580.533+614.202+581.418C615.126+582.304+616.519+582.746+618.381+582.746Z" opacity="1" fill="#000000"/>
<path d="M624.417+582.356L627.815+582.356L627.815+562.043L624.417+562.043L624.417+582.356ZM626.116+558.606C626.715+558.606+627.219+558.397+627.629+557.981C628.04+557.564+628.245+557.063+628.245+556.477C628.245+555.878+628.04+555.373+627.629+554.963C627.219+554.553+626.715+554.348+626.116+554.348C625.53+554.348+625.029+554.553+624.612+554.963C624.195+555.373+623.987+555.878+623.987+556.477C623.987+557.063+624.195+557.564+624.612+557.981C625.029+558.397+625.53+558.606+626.116+558.606Z" opacity="1" fill="#000000"/>
<path d="M641.233+582.746C643.108+582.746+644.749+582.317+646.155+581.457C647.561+580.598+648.658+579.38+649.446+577.805C650.234+576.229+650.627+574.361+650.627+572.199L650.627+572.16C650.627+569.999+650.234+568.134+649.446+566.565C648.658+564.996+647.558+563.785+646.145+562.932C644.732+562.079+643.088+561.653+641.213+561.653C639.351+561.653+637.714+562.079+636.301+562.932C634.889+563.785+633.788+564.996+633.001+566.565C632.213+568.134+631.819+569.999+631.819+572.16L631.819+572.199C631.819+574.348+632.213+576.213+633.001+577.795C633.788+579.377+634.889+580.598+636.301+581.457C637.714+582.317+639.358+582.746+641.233+582.746ZM641.252+579.739C640.055+579.739+639.01+579.442+638.118+578.85C637.226+578.257+636.532+577.398+636.038+576.272C635.543+575.145+635.295+573.788+635.295+572.199L635.295+572.16C635.295+570.572+635.543+569.221+636.038+568.108C636.532+566.994+637.226+566.142+638.118+565.549C639.01+564.957+640.042+564.66+641.213+564.66C642.411+564.66+643.456+564.953+644.348+565.539C645.24+566.125+645.93+566.978+646.418+568.098C646.907+569.218+647.151+570.572+647.151+572.16L647.151+572.199C647.151+573.788+646.907+575.145+646.418+576.272C645.93+577.398+645.247+578.257+644.368+578.85C643.489+579.442+642.45+579.739+641.252+579.739Z" opacity="1" fill="#000000"/>
<path d="M654.417+582.356L657.815+582.356L657.815+570.403C657.815+569.244+658.033+568.235+658.469+567.375C658.905+566.516+659.521+565.849+660.315+565.373C661.109+564.898+662.04+564.66+663.108+564.66C664.67+564.66+665.839+565.1+666.614+565.979C667.389+566.858+667.776+568.124+667.776+569.778L667.776+582.356L671.174+582.356L671.174+569.172C671.174+566.854+670.559+565.022+669.329+563.674C668.098+562.326+666.37+561.653+664.143+561.653C662.607+561.653+661.318+561.962+660.276+562.58C659.234+563.199+658.44+563.983+657.893+564.934L657.815+564.934L657.815+562.043L654.417+562.043L654.417+582.356Z" opacity="1" fill="#000000"/>
<path d="M692.854+582.746C694.729+582.746+696.37+582.317+697.776+581.457C699.182+580.598+700.279+579.38+701.067+577.805C701.855+576.229+702.249+574.361+702.249+572.199L702.249+572.16C702.249+569.999+701.855+568.134+701.067+566.565C700.279+564.996+699.179+563.785+697.766+562.932C696.353+562.079+694.709+561.653+692.834+561.653C690.973+561.653+689.335+562.079+687.922+562.932C686.51+563.785+685.409+564.996+684.622+566.565C683.834+568.134+683.44+569.999+683.44+572.16L683.44+572.199C683.44+574.348+683.834+576.213+684.622+577.795C685.409+579.377+686.51+580.598+687.922+581.457C689.335+582.317+690.979+582.746+692.854+582.746ZM692.874+579.739C691.676+579.739+690.631+579.442+689.739+578.85C688.847+578.257+688.154+577.398+687.659+576.272C687.164+575.145+686.917+573.788+686.917+572.199L686.917+572.16C686.917+570.572+687.164+569.221+687.659+568.108C688.154+566.994+688.847+566.142+689.739+565.549C690.631+564.957+691.663+564.66+692.834+564.66C694.032+564.66+695.077+564.953+695.969+565.539C696.861+566.125+697.551+566.978+698.04+568.098C698.528+569.218+698.772+570.572+698.772+572.16L698.772+572.199C698.772+573.788+698.528+575.145+698.04+576.272C697.551+577.398+696.868+578.257+695.989+578.85C695.11+579.442+694.071+579.739+692.874+579.739Z" opacity="1" fill="#000000"/>
<path d="M706.038+582.356L709.436+582.356L709.436+569.817C709.436+568.788+709.615+567.906+709.973+567.17C710.331+566.435+710.839+565.871+711.497+565.481C712.154+565.09+712.919+564.895+713.792+564.895C714.208+564.895+714.583+564.914+714.915+564.953C715.247+564.992+715.478+565.038+715.608+565.09L715.608+561.789C715.478+561.763+715.292+561.734+715.051+561.701C714.81+561.669+714.54+561.653+714.241+561.653C713.095+561.653+712.105+561.998+711.272+562.688C710.439+563.378+709.853+564.309+709.514+565.481L709.436+565.481L709.436+562.043L706.038+562.043L706.038+582.356Z" opacity="1" fill="#000000"/>
<path d="M725.393+582.746C726.851+582.746+728.131+582.405+729.231+581.721C730.331+581.037+731.2+580.103+731.838+578.918L731.917+578.918L731.917+582.356L735.315+582.356L735.315+554.172L731.917+554.172L731.917+565.442L731.838+565.442C731.2+564.27+730.315+563.345+729.182+562.668C728.049+561.991+726.767+561.653+725.334+561.653C723.642+561.653+722.151+562.086+720.862+562.951C719.573+563.817+718.567+565.038+717.844+566.614C717.122+568.189+716.76+570.045+716.76+572.18L716.76+572.199C716.76+574.335+717.118+576.194+717.834+577.776C718.551+579.358+719.556+580.582+720.852+581.448C722.148+582.313+723.661+582.746+725.393+582.746ZM726.057+579.739C724.859+579.739+723.824+579.436+722.952+578.83C722.079+578.225+721.409+577.356+720.94+576.223C720.471+575.09+720.237+573.749+720.237+572.199L720.237+572.18C720.237+570.63+720.471+569.296+720.94+568.176C721.409+567.056+722.079+566.19+722.952+565.578C723.824+564.966+724.859+564.66+726.057+564.66C727.203+564.66+728.215+564.973+729.094+565.598C729.973+566.223+730.667+567.099+731.174+568.225C731.682+569.351+731.936+570.67+731.936+572.18L731.936+572.199C731.936+573.71+731.685+575.032+731.184+576.164C730.683+577.297+729.989+578.176+729.104+578.801C728.219+579.426+727.203+579.739+726.057+579.739Z" opacity="1" fill="#000000"/>
<path d="M740.276+582.356L743.674+582.356L743.674+569.817C743.674+568.788+743.853+567.906+744.211+567.17C744.57+566.435+745.077+565.871+745.735+565.481C746.392+565.09+747.157+564.895+748.03+564.895C748.446+564.895+748.821+564.914+749.153+564.953C749.485+564.992+749.716+565.038+749.846+565.09L749.846+561.789C749.716+561.763+749.53+561.734+749.29+561.701C749.049+561.669+748.778+561.653+748.479+561.653C747.333+561.653+746.344+561.998+745.51+562.688C744.677+563.378+744.091+564.309+743.752+565.481L743.674+565.481L743.674+562.043L740.276+562.043L740.276+582.356Z" opacity="1" fill="#000000"/>
<path d="M760.354+582.746C761.461+582.746+762.489+582.593+763.44+582.287C764.39+581.981+765.237+581.552+765.979+580.998C766.721+580.445+767.33+579.804+767.805+579.074C768.28+578.345+768.603+577.564+768.772+576.731L768.811+576.535L765.471+576.535L765.413+576.711C765.217+577.297+764.892+577.818+764.436+578.274C763.98+578.729+763.414+579.088+762.737+579.348C762.06+579.608+761.292+579.739+760.432+579.739C759.208+579.739+758.147+579.468+757.249+578.928C756.35+578.388+755.657+577.61+755.168+576.594C754.68+575.578+754.436+574.354+754.436+572.922L754.436+571.614C754.436+570.103+754.683+568.83+755.178+567.795C755.673+566.76+756.35+565.979+757.209+565.451C758.069+564.924+759.039+564.66+760.12+564.66C761.2+564.66+762.157+564.911+762.991+565.412C763.824+565.914+764.478+566.679+764.954+567.707C765.429+568.736+765.667+570.038+765.667+571.614L765.667+572.922L767.385+570.461L752.698+570.461L752.698+573.117L769.065+573.117L769.065+571.867C769.065+569.836+768.707+568.052+767.991+566.516C767.275+564.979+766.249+563.785+764.915+562.932C763.58+562.079+761.988+561.653+760.139+561.653C758.29+561.653+756.682+562.099+755.315+562.991C753.948+563.882+752.887+565.126+752.131+566.721C751.376+568.316+750.999+570.162+750.999+572.258L750.999+572.278C750.999+574.4+751.373+576.246+752.122+577.815C752.87+579.384+753.945+580.598+755.344+581.457C756.744+582.317+758.414+582.746+760.354+582.746Z" opacity="1" fill="#000000"/>
<path d="M820.471+568.254C820.471+568.007+820.422+567.772+820.325+567.551C820.227+567.33+820.081+567.128+819.885+566.946L806.936+554.035C806.728+553.827+806.516+553.677+806.301+553.586C806.086+553.495+805.862+553.449+805.627+553.449C805.146+553.449+804.742+553.609+804.417+553.928C804.091+554.247+803.928+554.647+803.928+555.129C803.928+555.364+803.967+555.588+804.045+555.803C804.124+556.018+804.241+556.203+804.397+556.36L808.772+560.813L816.526+567.883L816.917+566.907L810.627+566.516L785.92+566.516C785.413+566.516+784.999+566.679+784.68+567.004C784.361+567.33+784.202+567.746+784.202+568.254C784.202+568.762+784.361+569.179+784.68+569.504C784.999+569.83+785.413+569.992+785.92+569.992L810.627+569.992L816.917+569.602L816.526+568.645L808.772+575.696L804.397+580.149C804.241+580.305+804.124+580.491+804.045+580.705C803.967+580.92+803.928+581.145+803.928+581.379C803.928+581.861+804.091+582.261+804.417+582.58C804.742+582.899+805.146+583.059+805.627+583.059C806.096+583.059+806.519+582.877+806.897+582.512L819.885+569.563C820.081+569.367+820.227+569.159+820.325+568.938C820.422+568.716+820.471+568.489+820.471+568.254Z" opacity="1" fill="#000000"/>
</g>
<g opacity="1">
<path d="M694.924+529.673L698.44+529.673L698.44+504.653L707.327+504.653L707.327+501.489L686.038+501.489L686.038+504.653L694.924+504.653L694.924+529.673Z" opacity="1" fill="#000000"/>
<path d="M711.096+529.673L714.495+529.673L714.495+509.36L711.096+509.36L711.096+529.673ZM712.795+505.923C713.394+505.923+713.899+505.714+714.309+505.298C714.719+504.881+714.924+504.38+714.924+503.794C714.924+503.195+714.719+502.69+714.309+502.28C713.899+501.87+713.394+501.665+712.795+501.665C712.209+501.665+711.708+501.87+711.292+502.28C710.875+502.69+710.667+503.195+710.667+503.794C710.667+504.38+710.875+504.881+711.292+505.298C711.708+505.714+712.209+505.923+712.795+505.923Z" opacity="1" fill="#000000"/>
<path d="M719.495+529.673L722.893+529.673L722.893+516.938C722.893+515.988+723.095+515.141+723.499+514.399C723.902+513.657+724.452+513.068+725.149+512.632C725.846+512.195+726.643+511.977+727.542+511.977C728.805+511.977+729.814+512.348+730.569+513.091C731.324+513.833+731.702+514.822+731.702+516.059L731.702+529.673L735.1+529.673L735.1+516.763C735.1+515.838+735.295+515.014+735.686+514.292C736.077+513.569+736.617+513.003+737.307+512.593C737.997+512.182+738.792+511.977+739.69+511.977C741.031+511.977+742.07+512.371+742.805+513.159C743.541+513.947+743.909+515.037+743.909+516.431L743.909+529.673L747.307+529.673L747.307+515.649C747.307+514.295+747.034+513.12+746.487+512.124C745.94+511.128+745.172+510.353+744.182+509.8C743.193+509.246+742.027+508.97+740.686+508.97C739.736+508.97+738.847+509.126+738.02+509.438C737.193+509.751+736.464+510.197+735.833+510.776C735.201+511.356+734.696+512.056+734.319+512.876L734.241+512.876C733.954+512.042+733.538+511.336+732.991+510.757C732.444+510.177+731.796+509.735+731.047+509.429C730.299+509.123+729.462+508.97+728.538+508.97C727.236+508.97+726.096+509.279+725.12+509.897C724.143+510.516+723.427+511.326+722.971+512.329L722.893+512.329L722.893+509.36L719.495+509.36L719.495+529.673Z" opacity="1" fill="#000000"/>
<path d="M760.354+530.063C761.461+530.063+762.489+529.91+763.44+529.604C764.39+529.298+765.237+528.869+765.979+528.315C766.721+527.762+767.33+527.121+767.805+526.391C768.28+525.662+768.603+524.881+768.772+524.048L768.811+523.852L765.471+523.852L765.413+524.028C765.217+524.614+764.892+525.135+764.436+525.591C763.98+526.046+763.414+526.404+762.737+526.665C762.06+526.925+761.292+527.056+760.432+527.056C759.208+527.056+758.147+526.785+757.249+526.245C756.35+525.705+755.657+524.927+755.168+523.911C754.68+522.895+754.436+521.671+754.436+520.239L754.436+518.931C754.436+517.42+754.683+516.147+755.178+515.112C755.673+514.077+756.35+513.296+757.209+512.768C758.069+512.241+759.039+511.977+760.12+511.977C761.2+511.977+762.157+512.228+762.991+512.729C763.824+513.231+764.478+513.996+764.954+515.024C765.429+516.053+765.667+517.355+765.667+518.931L765.667+520.239L767.385+517.778L752.698+517.778L752.698+520.434L769.065+520.434L769.065+519.184C769.065+517.153+768.707+515.369+767.991+513.833C767.275+512.296+766.249+511.102+764.915+510.249C763.58+509.396+761.988+508.97+760.139+508.97C758.29+508.97+756.682+509.416+755.315+510.307C753.948+511.199+752.887+512.443+752.131+514.038C751.376+515.633+750.999+517.479+750.999+519.575L750.999+519.595C750.999+521.717+751.373+523.563+752.122+525.132C752.87+526.701+753.945+527.915+755.344+528.774C756.744+529.634+758.414+530.063+760.354+530.063Z" opacity="1" fill="#000000"/>
<path d="M820.471+515.571C820.471+515.324+820.422+515.089+820.325+514.868C820.227+514.647+820.081+514.445+819.885+514.263L806.936+501.352C806.728+501.144+806.516+500.994+806.301+500.903C806.086+500.812+805.862+500.766+805.627+500.766C805.146+500.766+804.742+500.926+804.417+501.245C804.091+501.564+803.928+501.964+803.928+502.446C803.928+502.681+803.967+502.905+804.045+503.12C804.124+503.335+804.241+503.52+804.397+503.677L808.772+508.13L816.526+515.2L816.917+514.223L810.627+513.833L785.92+513.833C785.413+513.833+784.999+513.996+784.68+514.321C784.361+514.647+784.202+515.063+784.202+515.571C784.202+516.079+784.361+516.496+784.68+516.821C784.999+517.147+785.413+517.309+785.92+517.309L810.627+517.309L816.917+516.919L816.526+515.962L808.772+523.013L804.397+527.466C804.241+527.622+804.124+527.807+804.045+528.022C803.967+528.237+803.928+528.462+803.928+528.696C803.928+529.178+804.091+529.578+804.417+529.897C804.742+530.216+805.146+530.376+805.627+530.376C806.096+530.376+806.519+530.194+806.897+529.829L819.885+516.88C820.081+516.684+820.227+516.476+820.325+516.255C820.422+516.033+820.471+515.806+820.471+515.571Z" opacity="1" fill="#000000"/>
</g>
<g opacity="1">
<path d="M817.346+608.264L820.862+608.264L820.862+583.245L829.749+583.245L829.749+580.081L808.459+580.081L808.459+583.245L817.346+583.245L817.346+608.264Z" opacity="1" fill="#000000"/>
<path d="M815.92+656.389C817.027+656.389+818.056+656.236+819.006+655.93C819.957+655.624+820.803+655.195+821.545+654.641C822.288+654.088+822.896+653.447+823.372+652.718C823.847+651.988+824.169+651.207+824.338+650.374L824.377+650.178L821.038+650.178L820.979+650.354C820.784+650.94+820.458+651.461+820.002+651.917C819.547+652.372+818.98+652.731+818.303+652.991C817.626+653.251+816.858+653.382+815.999+653.382C814.775+653.382+813.713+653.111+812.815+652.571C811.917+652.031+811.223+651.253+810.735+650.237C810.247+649.221+810.002+647.997+810.002+646.565L810.002+645.257C810.002+643.746+810.25+642.473+810.745+641.438C811.239+640.403+811.917+639.622+812.776+639.094C813.635+638.567+814.605+638.303+815.686+638.303C816.767+638.303+817.724+638.554+818.557+639.055C819.39+639.557+820.045+640.322+820.52+641.35C820.995+642.379+821.233+643.681+821.233+645.257L821.233+646.565L822.952+644.104L808.264+644.104L808.264+646.76L824.631+646.76L824.631+645.51C824.631+643.479+824.273+641.695+823.557+640.159C822.841+638.622+821.816+637.428+820.481+636.575C819.146+635.722+817.555+635.296+815.706+635.296C813.857+635.296+812.249+635.742+810.881+636.634C809.514+637.525+808.453+638.769+807.698+640.364C806.943+641.959+806.565+643.805+806.565+645.901L806.565+645.921C806.565+648.043+806.939+649.889+807.688+651.458C808.437+653.027+809.511+654.241+810.911+655.1C812.31+655.96+813.98+656.389+815.92+656.389Z" opacity="1" fill="#000000"/>
<path d="M807.346+703.733L811.116+703.733L816.018+695.999L816.096+695.999L820.959+703.733L824.729+703.733L817.971+693.44L824.827+683.421L821.038+683.421L816.213+691.038L816.135+691.038L811.252+683.421L807.463+683.421L814.26+693.577L807.346+703.733Z" opacity="1" fill="#000000"/>
<path d="M822.209+751.858C822.548+751.858+822.883+751.842+823.215+751.809C823.547+751.777+823.818+751.747+824.026+751.721L824.026+748.968C823.883+748.981+823.717+748.997+823.528+749.016C823.339+749.036+823.14+749.046+822.932+749.046C822.021+749.046+821.331+748.854+820.862+748.469C820.393+748.085+820.159+747.353+820.159+746.272L820.159+733.968L824.026+733.968L824.026+731.155L820.159+731.155L820.159+725.667L816.643+725.667L816.643+731.155L813.674+731.155L813.674+733.968L816.643+733.968L816.643+746.292C816.643+748.232+817.105+749.645+818.03+750.53C818.954+751.415+820.348+751.858+822.209+751.858Z" opacity="1" fill="#000000"/>
</g>
<g opacity="1">
<path d="M551.618+731.928L555.133+731.928L555.133+706.908L564.02+706.908L564.02+703.744L542.731+703.744L542.731+706.908L551.618+706.908L551.618+731.928Z" opacity="1" fill="#000000"/>
<path d="M552.321+780.053C553.427+780.053+554.456+779.9+555.407+779.594C556.357+779.288+557.203+778.858+557.946+778.305C558.688+777.751+559.297+777.11+559.772+776.381C560.247+775.652+560.569+774.871+560.739+774.037L560.778+773.842L557.438+773.842L557.379+774.018C557.184+774.604+556.858+775.124+556.403+775.58C555.947+776.036+555.381+776.394+554.703+776.654C554.026+776.915+553.258+777.045+552.399+777.045C551.175+777.045+550.114+776.775+549.215+776.234C548.317+775.694+547.623+774.916+547.135+773.9C546.647+772.885+546.403+771.661+546.403+770.229L546.403+768.92C546.403+767.41+546.65+766.137+547.145+765.102C547.64+764.066+548.317+763.285+549.176+762.758C550.036+762.231+551.006+761.967+552.086+761.967C553.167+761.967+554.124+762.218+554.957+762.719C555.791+763.22+556.445+763.985+556.92+765.014C557.396+766.042+557.633+767.344+557.633+768.92L557.633+770.229L559.352+767.768L544.664+767.768L544.664+770.424L561.032+770.424L561.032+769.174C561.032+767.143+560.674+765.359+559.957+763.822C559.241+762.286+558.216+761.091+556.881+760.238C555.547+759.385+553.955+758.959+552.106+758.959C550.257+758.959+548.649+759.405+547.282+760.297C545.914+761.189+544.853+762.432+544.098+764.027C543.343+765.622+542.965+767.468+542.965+769.565L542.965+769.584C542.965+771.706+543.34+773.552+544.088+775.121C544.837+776.69+545.911+777.904+547.311+778.764C548.711+779.623+550.381+780.053+552.321+780.053Z" opacity="1" fill="#000000"/>
<path d="M542.379+827.397L546.149+827.397L551.051+819.662L551.129+819.662L555.993+827.397L559.762+827.397L553.004+817.104L559.86+807.084L556.071+807.084L551.246+814.701L551.168+814.701L546.286+807.084L542.496+807.084L549.293+817.24L542.379+827.397Z" opacity="1" fill="#000000"/>
<path d="M555.141+875.522C555.48+875.522+555.815+875.505+556.147+875.473C556.479+875.44+556.749+875.411+556.957+875.385L556.957+872.631C556.814+872.644+556.648+872.66+556.459+872.68C556.271+872.699+556.072+872.709+555.864+872.709C554.952+872.709+554.262+872.517+553.793+872.133C553.325+871.749+553.09+871.016+553.09+869.936L553.09+857.631L556.957+857.631L556.957+854.818L553.09+854.818L553.09+849.33L549.575+849.33L549.575+854.818L546.606+854.818L546.606+857.631L549.575+857.631L549.575+869.955C549.575+871.895+550.037+873.308+550.961+874.193C551.886+875.079+553.279+875.522+555.141+875.522Z" opacity="1" fill="#000000"/>
</g>
<path stroke="#000000" stroke-width="2" d="M65.205+340.2L235.305+340.2L235.305+269.325L65.205+269.325L65.205+340.2Z" fill="#ff0000" stroke-linecap="butt" opacity="1" stroke-linejoin="miter"/>
<path stroke="#000000" stroke-width="2" d="M247.559+269.325L460.184+269.325L460.184+340.2L247.559+340.2L247.559+269.325Z" fill="#11ff2a" stroke-linecap="butt" opacity="1" stroke-linejoin="miter"/>
<path stroke="#000000" stroke-width="2" d="M445.375+184.275L629.65+184.275L629.65+141.75L445.375+141.75L445.375+184.275Z" fill="#ff9100" stroke-linecap="butt" opacity="1" stroke-linejoin="miter"/>
<path stroke="#000000" stroke-width="2" d="M643.135+425.25L756.535+425.25L756.535+467.775L643.135+467.775L643.135+425.25Z" fill="#0e00ff" stroke-linecap="butt" opacity="1" stroke-linejoin="miter"/>
<path stroke="#000000" stroke-width="2" d="M185.839+184.275L235.305+269.741" fill="none" stroke-linecap="round" opacity="1" stroke-linejoin="round"/>
<path stroke="#000000" stroke-width="2" d="M18.3845+184.275L67.2026+269.325" fill="none" stroke-linecap="round" opacity="1" stroke-linejoin="round"/>
<path stroke="#000000" stroke-width="2" d="M230.154+425.25L247.616+340.2" fill="none" stroke-linecap="round" opacity="1" stroke-linejoin="round"/>
<path stroke="#000000" stroke-width="2" d="M442.137+426.62L460.184+338.368" fill="none" stroke-linecap="round" opacity="1" stroke-linejoin="round"/>
<path stroke="#000000" stroke-width="2" d="M629.65+185.708L689.688+270.399" fill="none" stroke-linecap="round" opacity="1" stroke-linejoin="round"/>
<path stroke="#000000" stroke-width="2" d="M446.152+184.275L507.083+269.325" fill="none" stroke-linecap="round" opacity="1" stroke-linejoin="round"/>
<path stroke="#000000" stroke-width="2" d="M756.007+425.25L816.701+340.2" fill="none" stroke-linecap="round" opacity="1" stroke-linejoin="round"/>
<path stroke="#000000" stroke-width="2" d="M643.545+425.25L702.454+340.2" fill="none" stroke-linecap="round" opacity="1" stroke-linejoin="round"/>
</g>
</svg>
