<?xml version="1.0" encoding="UTF-8" standalone="no"?>
<!DOCTYPE svg PUBLIC "-//W3C//DTD SVG 1.1//EN"
 "http://www.w3.org/Graphics/SVG/1.1/DTD/svg11.dtd">
<!-- Generated by graphviz version 2.40.1 (20161225.0304)
 -->
<!-- Title: a_graph Pages: 1 -->
<svg width="599pt" height="929pt"
 viewBox="0.00 0.00 599.00 929.00" xmlns="http://www.w3.org/2000/svg" xmlns:xlink="http://www.w3.org/1999/xlink">
<g id="graph0" class="graph" transform="scale(1 1) rotate(0) translate(4 925)">
<title>a_graph</title>
<polygon fill="#ffffff" stroke="transparent" points="-4,4 -4,-925 595,-925 595,4 -4,4"/>
<!-- T375 -->
<g id="node1" class="node">
<title>T375</title>
<polygon fill="none" stroke="#0058ad" points="0,-891.5 0,-920.5 320,-920.5 320,-891.5 0,-891.5"/>
<text text-anchor="middle" x="41.5" y="-902.3" font-family="Times,serif" font-size="14.00" fill="#0058ad">w 124 18</text>
<polyline fill="none" stroke="#0058ad" points="83,-891.5 83,-920.5 "/>
<text text-anchor="middle" x="121.5" y="-902.3" font-family="Times,serif" font-size="14.00" fill="#0058ad">r 123 11</text>
<polyline fill="none" stroke="#0058ad" points="160,-891.5 160,-920.5 "/>
<text text-anchor="middle" x="198.5" y="-902.3" font-family="Times,serif" font-size="14.00" fill="#0058ad">r 133 13</text>
<polyline fill="none" stroke="#0058ad" points="237,-891.5 237,-920.5 "/>
<text text-anchor="middle" x="278.5" y="-902.3" font-family="Times,serif" font-size="14.00" fill="#0058ad">w 124 19</text>
</g>
<!-- T377 -->
<g id="node7" class="node">
<title>T377</title>
<polygon fill="none" stroke="#0058ad" points="249,-810.5 249,-839.5 403,-839.5 403,-810.5 249,-810.5"/>
<text text-anchor="middle" x="287.5" y="-821.3" font-family="Times,serif" font-size="14.00" fill="#0058ad">r 124 19</text>
<polyline fill="none" stroke="#0058ad" points="326,-810.5 326,-839.5 "/>
<text text-anchor="middle" x="364.5" y="-821.3" font-family="Times,serif" font-size="14.00" fill="#0058ad">r 133 13</text>
</g>
<!-- T375&#45;&gt;T377 -->
<g id="edge1" class="edge">
<title>T375:f3&#45;&gt;T377:f0</title>
<path fill="none" stroke="#c000a5" d="M279,-891C279,-871.8204 284.5903,-865.1013 286.4247,-850.0103"/>
<polygon fill="#c000a5" stroke="#c000a5" points="289.9203,-850.1844 287,-840 282.9319,-849.7827 289.9203,-850.1844"/>
<text text-anchor="middle" x="294.5" y="-861.8" font-family="Times,serif" font-size="14.00" fill="#c000a5">wr</text>
</g>
<!-- T371 -->
<g id="node2" class="node">
<title>T371</title>
<polygon fill="none" stroke="#0058ad" points="307,-81.5 307,-110.5 467,-110.5 467,-81.5 307,-81.5"/>
<text text-anchor="middle" x="345.5" y="-92.3" font-family="Times,serif" font-size="14.00" fill="#0058ad">r 124 16</text>
<polyline fill="none" stroke="#0058ad" points="384,-81.5 384,-110.5 "/>
<text text-anchor="middle" x="425.5" y="-92.3" font-family="Times,serif" font-size="14.00" fill="#0058ad">w 124 17</text>
</g>
<!-- T373 -->
<g id="node12" class="node">
<title>T373</title>
<polygon fill="none" stroke="#0058ad" points="222.5,-.5 222.5,-29.5 367.5,-29.5 367.5,-.5 222.5,-.5"/>
<text text-anchor="middle" x="261" y="-11.3" font-family="Times,serif" font-size="14.00" fill="#0058ad">r 133 13</text>
<polyline fill="none" stroke="#0058ad" points="299.5,-.5 299.5,-29.5 "/>
<text text-anchor="middle" x="333.5" y="-11.3" font-family="Times,serif" font-size="14.00" fill="#0058ad">r 134 1</text>
</g>
<!-- T371&#45;&gt;T373 -->
<g id="edge2" class="edge">
<title>T371&#45;&gt;T373</title>
<path fill="none" stroke="#0050c0" d="M370.1258,-81.1434C355.99,-68.6978 335.6206,-50.7638 319.6571,-36.709"/>
<polygon fill="#0050c0" stroke="#0050c0" points="321.5856,-33.7437 311.7672,-29.7625 316.9599,-38.9976 321.5856,-33.7437"/>
<text text-anchor="middle" x="356.5" y="-51.8" font-family="Times,serif" font-size="14.00" fill="#0050c0">rt</text>
</g>
<!-- T369 -->
<g id="node3" class="node">
<title>T369</title>
<polygon fill="none" stroke="#0058ad" points="461.5,-162.5 461.5,-191.5 544.5,-191.5 544.5,-162.5 461.5,-162.5"/>
<text text-anchor="middle" x="503" y="-173.3" font-family="Times,serif" font-size="14.00" fill="#0058ad">w 133 13</text>
</g>
<!-- T369&#45;&gt;T375 -->
<g id="edge3" class="edge">
<title>T369:f0&#45;&gt;T375:f2</title>
<path fill="none" stroke="#c000a5" d="M526.7459,-191.5049C546.7051,-205.7126 572,-229.3667 572,-258 572,-825 572,-825 572,-825 572,-944.257 425.5022,-852.6173 308,-873 287.4015,-876.5731 222.8425,-869.3108 204.1304,-882.2363"/>
<polygon fill="#c000a5" stroke="#c000a5" points="201.0317,-880.6018 199,-891 207.0727,-884.1383 201.0317,-880.6018"/>
<text text-anchor="middle" x="581.5" y="-537.8" font-family="Times,serif" font-size="14.00" fill="#c000a5">wr</text>
</g>
<!-- T369&#45;&gt;T371 -->
<g id="edge4" class="edge">
<title>T369&#45;&gt;T371</title>
<path fill="none" stroke="#0050c0" d="M481.9933,-162.3315C463.5981,-149.4866 436.6823,-130.6919 416.194,-116.3855"/>
<polygon fill="#0050c0" stroke="#0050c0" points="418.0532,-113.4149 407.8504,-110.5594 414.0456,-119.1542 418.0532,-113.4149"/>
<text text-anchor="middle" x="462.5" y="-132.8" font-family="Times,serif" font-size="14.00" fill="#0050c0">rt</text>
</g>
<!-- T369&#45;&gt;T377 -->
<g id="edge5" class="edge">
<title>T369:f0&#45;&gt;T377:f1</title>
<path fill="none" stroke="#c000a5" d="M509.4817,-191.6053C515.9712,-207.5809 525,-234.102 525,-258 525,-744 525,-744 525,-744 525,-805.6527 473.9294,-823.1847 413.2213,-824.8623"/>
<polygon fill="#c000a5" stroke="#c000a5" points="412.9519,-821.3656 403,-825 413.0463,-828.3649 412.9519,-821.3656"/>
<text text-anchor="middle" x="534.5" y="-497.3" font-family="Times,serif" font-size="14.00" fill="#c000a5">wr</text>
</g>
<!-- T369&#45;&gt;T373 -->
<g id="edge6" class="edge">
<title>T369:f0&#45;&gt;T373:f0</title>
<path fill="none" stroke="#c000a5" d="M503.0298,-162.1756C502.2518,-141.2475 497.6957,-103.1298 476,-81 440.5654,-44.8563 416.2704,-59.5932 367,-48 347.3764,-43.3826 285.4047,-50.7522 266.5177,-38.8161"/>
<polygon fill="#c000a5" stroke="#c000a5" points="269.2721,-36.6198 261,-30 263.3385,-40.3336 269.2721,-36.6198"/>
<text text-anchor="middle" x="502.5" y="-92.3" font-family="Times,serif" font-size="14.00" fill="#c000a5">wr</text>
</g>
<!-- T367 -->
<g id="node4" class="node">
<title>T367</title>
<polygon fill="none" stroke="#0058ad" points="242.5,-243.5 242.5,-272.5 399.5,-272.5 399.5,-243.5 242.5,-243.5"/>
<text text-anchor="middle" x="279.5" y="-254.3" font-family="Times,serif" font-size="14.00" fill="#0058ad">w 134 1</text>
<polyline fill="none" stroke="#0058ad" points="316.5,-243.5 316.5,-272.5 "/>
<text text-anchor="middle" x="358" y="-254.3" font-family="Times,serif" font-size="14.00" fill="#0058ad">w 123 11</text>
</g>
<!-- T367&#45;&gt;T375 -->
<g id="edge7" class="edge">
<title>T367:f1&#45;&gt;T375:f1</title>
<path fill="none" stroke="#c000a5" d="M358,-273C358,-286.8283 118,-325.1717 118,-339 118,-825 118,-825 118,-825 118,-850.6932 120.2969,-859.473 120.8711,-880.9379"/>
<polygon fill="#c000a5" stroke="#c000a5" points="117.3721,-881.0457 121,-891 124.3715,-880.956 117.3721,-881.0457"/>
<text text-anchor="middle" x="127.5" y="-578.3" font-family="Times,serif" font-size="14.00" fill="#c000a5">wr</text>
</g>
<!-- T367&#45;&gt;T369 -->
<g id="edge9" class="edge">
<title>T367&#45;&gt;T369</title>
<path fill="none" stroke="#0050c0" d="M353.9588,-243.3315C383.9799,-229.9705 428.4653,-210.1721 461.0199,-195.6835"/>
<polygon fill="#0050c0" stroke="#0050c0" points="462.5734,-198.8231 470.2864,-191.5594 459.7272,-192.4278 462.5734,-198.8231"/>
<text text-anchor="middle" x="435.5" y="-213.8" font-family="Times,serif" font-size="14.00" fill="#0050c0">rt</text>
</g>
<!-- T367&#45;&gt;T373 -->
<g id="edge8" class="edge">
<title>T367:f0&#45;&gt;T373:f1</title>
<path fill="none" stroke="#c000a5" d="M279,-243C279,-170.5065 272.0756,-148.6996 298,-81 306.5266,-58.7335 326.985,-57.563 332.5703,-40.0653"/>
<polygon fill="#c000a5" stroke="#c000a5" points="336.0589,-40.3929 334,-30 329.1284,-39.4084 336.0589,-40.3929"/>
<text text-anchor="middle" x="292.5" y="-132.8" font-family="Times,serif" font-size="14.00" fill="#c000a5">wr</text>
</g>
<!-- T363 -->
<g id="node5" class="node">
<title>T363</title>
<polygon fill="none" stroke="#0058ad" points="287,-405.5 287,-434.5 355,-434.5 355,-405.5 287,-405.5"/>
<text text-anchor="middle" x="321" y="-416.3" font-family="Times,serif" font-size="14.00" fill="#0058ad">r 132 9</text>
</g>
<!-- T365 -->
<g id="node10" class="node">
<title>T365</title>
<polygon fill="none" stroke="#0058ad" points="244,-324.5 244,-353.5 398,-353.5 398,-324.5 244,-324.5"/>
<text text-anchor="middle" x="282.5" y="-335.3" font-family="Times,serif" font-size="14.00" fill="#0058ad">r 123 10</text>
<polyline fill="none" stroke="#0058ad" points="321,-324.5 321,-353.5 "/>
<text text-anchor="middle" x="359.5" y="-335.3" font-family="Times,serif" font-size="14.00" fill="#0058ad">r 124 16</text>
</g>
<!-- T363&#45;&gt;T365 -->
<g id="edge10" class="edge">
<title>T363&#45;&gt;T365</title>
<path fill="none" stroke="#0050c0" d="M321,-405.1434C321,-393.6112 321,-377.3668 321,-363.8626"/>
<polygon fill="#0050c0" stroke="#0050c0" points="324.5001,-363.7624 321,-353.7625 317.5001,-363.7625 324.5001,-363.7624"/>
<text text-anchor="middle" x="327.5" y="-375.8" font-family="Times,serif" font-size="14.00" fill="#0050c0">rt</text>
</g>
<!-- T361 -->
<g id="node6" class="node">
<title>T361</title>
<polygon fill="none" stroke="#0058ad" points="245.5,-486.5 245.5,-515.5 396.5,-515.5 396.5,-486.5 245.5,-486.5"/>
<text text-anchor="middle" x="287" y="-497.3" font-family="Times,serif" font-size="14.00" fill="#0058ad">w 133 12</text>
<polyline fill="none" stroke="#0058ad" points="328.5,-486.5 328.5,-515.5 "/>
<text text-anchor="middle" x="362.5" y="-497.3" font-family="Times,serif" font-size="14.00" fill="#0058ad">r 134 4</text>
</g>
<!-- T361&#45;&gt;T363 -->
<g id="edge11" class="edge">
<title>T361&#45;&gt;T363</title>
<path fill="none" stroke="#0050c0" d="M321,-486.1434C321,-474.6112 321,-458.3668 321,-444.8626"/>
<polygon fill="#0050c0" stroke="#0050c0" points="324.5001,-444.7624 321,-434.7625 317.5001,-444.7625 324.5001,-444.7624"/>
<text text-anchor="middle" x="327.5" y="-456.8" font-family="Times,serif" font-size="14.00" fill="#0050c0">rt</text>
</g>
<!-- T379 -->
<g id="node8" class="node">
<title>T379</title>
<polygon fill="none" stroke="#0058ad" points="247.5,-729.5 247.5,-758.5 404.5,-758.5 404.5,-729.5 247.5,-729.5"/>
<text text-anchor="middle" x="289" y="-740.3" font-family="Times,serif" font-size="14.00" fill="#0058ad">w 133 14</text>
<polyline fill="none" stroke="#0058ad" points="330.5,-729.5 330.5,-758.5 "/>
<text text-anchor="middle" x="367.5" y="-740.3" font-family="Times,serif" font-size="14.00" fill="#0058ad">w 134 2</text>
</g>
<!-- T377&#45;&gt;T379 -->
<g id="edge12" class="edge">
<title>T377&#45;&gt;T379</title>
<path fill="none" stroke="#0050c0" d="M326,-810.1434C326,-798.6112 326,-782.3668 326,-768.8626"/>
<polygon fill="#0050c0" stroke="#0050c0" points="329.5001,-768.7624 326,-758.7625 322.5001,-768.7625 329.5001,-768.7624"/>
<text text-anchor="middle" x="332.5" y="-780.8" font-family="Times,serif" font-size="14.00" fill="#0050c0">rt</text>
</g>
<!-- T381 -->
<g id="node9" class="node">
<title>T381</title>
<polygon fill="none" stroke="#0058ad" points="201,-648.5 201,-677.5 497,-677.5 497,-648.5 201,-648.5"/>
<text text-anchor="middle" x="242.5" y="-659.3" font-family="Times,serif" font-size="14.00" fill="#0058ad">w 123 12</text>
<polyline fill="none" stroke="#0058ad" points="284,-648.5 284,-677.5 "/>
<text text-anchor="middle" x="322.5" y="-659.3" font-family="Times,serif" font-size="14.00" fill="#0058ad">r 133 14</text>
<polyline fill="none" stroke="#0058ad" points="361,-648.5 361,-677.5 "/>
<text text-anchor="middle" x="395" y="-659.3" font-family="Times,serif" font-size="14.00" fill="#0058ad">r 132 9</text>
<polyline fill="none" stroke="#0058ad" points="429,-648.5 429,-677.5 "/>
<text text-anchor="middle" x="463" y="-659.3" font-family="Times,serif" font-size="14.00" fill="#0058ad">r 132 9</text>
</g>
<!-- T379&#45;&gt;T381 -->
<g id="edge13" class="edge">
<title>T379:f0&#45;&gt;T381:f1</title>
<path fill="none" stroke="#c000a5" d="M289,-729C289,-706.0096 312.9302,-704.7694 320.0345,-688.2361"/>
<polygon fill="#c000a5" stroke="#c000a5" points="323.5514,-688.4806 322,-678 316.677,-687.1606 323.5514,-688.4806"/>
<text text-anchor="middle" x="324.5" y="-699.8" font-family="Times,serif" font-size="14.00" fill="#c000a5">wr</text>
</g>
<!-- T383 -->
<g id="node11" class="node">
<title>T383</title>
<polygon fill="none" stroke="#0058ad" points="175,-567.5 175,-596.5 477,-596.5 477,-567.5 175,-567.5"/>
<text text-anchor="middle" x="212" y="-578.3" font-family="Times,serif" font-size="14.00" fill="#0058ad">w 134 3</text>
<polyline fill="none" stroke="#0058ad" points="249,-567.5 249,-596.5 "/>
<text text-anchor="middle" x="287.5" y="-578.3" font-family="Times,serif" font-size="14.00" fill="#0058ad">r 133 14</text>
<polyline fill="none" stroke="#0058ad" points="326,-567.5 326,-596.5 "/>
<text text-anchor="middle" x="363" y="-578.3" font-family="Times,serif" font-size="14.00" fill="#0058ad">w 134 4</text>
<polyline fill="none" stroke="#0058ad" points="400,-567.5 400,-596.5 "/>
<text text-anchor="middle" x="438.5" y="-578.3" font-family="Times,serif" font-size="14.00" fill="#0058ad">r 133 14</text>
</g>
<!-- T379&#45;&gt;T383 -->
<g id="edge14" class="edge">
<title>T379:f0&#45;&gt;T383:f1</title>
<path fill="none" stroke="#c000a5" d="M247,-744C193.1286,-744 143.6999,-693.2065 173,-648 201.0664,-604.697 275.4792,-645.8049 285.8047,-607.1984"/>
<polygon fill="#c000a5" stroke="#c000a5" points="289.3121,-607.3395 287,-597 282.3597,-606.5246 289.3121,-607.3395"/>
<text text-anchor="middle" x="182.5" y="-659.3" font-family="Times,serif" font-size="14.00" fill="#c000a5">wr</text>
</g>
<!-- T381&#45;&gt;T383 -->
<g id="edge15" class="edge">
<title>T381&#45;&gt;T383</title>
<path fill="none" stroke="#0050c0" d="M344.7814,-648.1434C341.4745,-636.497 336.8028,-620.0446 332.9461,-606.4623"/>
<polygon fill="#0050c0" stroke="#0050c0" points="336.2903,-605.4261 330.1918,-596.7625 329.5565,-607.3382 336.2903,-605.4261"/>
<text text-anchor="middle" x="346.5" y="-618.8" font-family="Times,serif" font-size="14.00" fill="#0050c0">rt</text>
</g>
<!-- T365&#45;&gt;T367 -->
<g id="edge16" class="edge">
<title>T365&#45;&gt;T367</title>
<path fill="none" stroke="#0050c0" d="M321,-324.1434C321,-312.6112 321,-296.3668 321,-282.8626"/>
<polygon fill="#0050c0" stroke="#0050c0" points="324.5001,-282.7624 321,-272.7625 317.5001,-282.7625 324.5001,-282.7624"/>
<text text-anchor="middle" x="327.5" y="-294.8" font-family="Times,serif" font-size="14.00" fill="#0050c0">rt</text>
</g>
<!-- T383&#45;&gt;T361 -->
<g id="edge17" class="edge">
<title>T383:f2&#45;&gt;T361:f1</title>
<path fill="none" stroke="#c000a5" d="M363,-567C363,-548.2292 363,-541.1168 363,-526.3535"/>
<polygon fill="#c000a5" stroke="#c000a5" points="366.5001,-526 363,-516 359.5001,-526 366.5001,-526"/>
<text text-anchor="middle" x="372.5" y="-537.8" font-family="Times,serif" font-size="14.00" fill="#c000a5">wr</text>
</g>
<!-- T373&#45;&gt;T375 -->
<g id="edge18" class="edge">
<title>T373&#45;&gt;T375</title>
<path fill="none" stroke="#0050c0" d="M222.29,-27.1549C157.2143,-40.1584 72,-63.4083 72,-96 72,-825 72,-825 72,-825 72,-852.2218 95.0777,-872.805 117.5969,-886.41"/>
<polygon fill="#0050c0" stroke="#0050c0" points="116.0565,-889.5603 126.4799,-891.4583 119.5151,-883.4744 116.0565,-889.5603"/>
<text text-anchor="middle" x="78.5" y="-456.8" font-family="Times,serif" font-size="14.00" fill="#0050c0">rt</text>
</g>
</g>
</svg>
