<?xml version="1.0" encoding="UTF-8" standalone="no"?>
<!DOCTYPE svg PUBLIC "-//W3C//DTD SVG 1.1//EN"
 "http://www.w3.org/Graphics/SVG/1.1/DTD/svg11.dtd">
<!-- Generated by graphviz version 2.40.1 (20161225.0304)
 -->
<!-- Title: a_graph Pages: 1 -->
<svg width="1779pt" height="731pt"
 viewBox="0.00 0.00 1779.00 731.00" xmlns="http://www.w3.org/2000/svg" xmlns:xlink="http://www.w3.org/1999/xlink">
<g id="graph0" class="graph" transform="scale(1 1) rotate(0) translate(4 727)">
<title>a_graph</title>
<polygon fill="#ffffff" stroke="transparent" points="-4,4 -4,-727 1775,-727 1775,4 -4,4"/>
<!-- T128993 -->
<g id="node1" class="node">
<title>T128993</title>
<polygon fill="none" stroke="#0058ad" points="839,-693.5 839,-722.5 1011,-722.5 1011,-693.5 839,-693.5"/>
<text text-anchor="middle" x="882" y="-704.3" font-family="Times,serif" font-size="14.00" fill="#0058ad">r 1984 nil</text>
<polyline fill="none" stroke="#0058ad" points="925,-693.5 925,-722.5 "/>
<text text-anchor="middle" x="968" y="-704.3" font-family="Times,serif" font-size="14.00" fill="#0058ad">r 1983 nil</text>
</g>
<!-- T128629 -->
<g id="node14" class="node">
<title>T128629</title>
<polygon fill="none" stroke="#0058ad" points="863.5,-612.5 863.5,-641.5 1118.5,-641.5 1118.5,-612.5 863.5,-612.5"/>
<text text-anchor="middle" x="903" y="-623.3" font-family="Times,serif" font-size="14.00" fill="#0058ad">a 1983 1</text>
<polyline fill="none" stroke="#0058ad" points="942.5,-612.5 942.5,-641.5 "/>
<text text-anchor="middle" x="986.5" y="-623.3" font-family="Times,serif" font-size="14.00" fill="#0058ad">r 1983 [1]</text>
<polyline fill="none" stroke="#0058ad" points="1030.5,-612.5 1030.5,-641.5 "/>
<text text-anchor="middle" x="1074.5" y="-623.3" font-family="Times,serif" font-size="14.00" fill="#0058ad">a 1982 14</text>
</g>
<!-- T128993&#45;&gt;T128629 -->
<g id="edge1" class="edge">
<title>T128993:f1&#45;&gt;T128629:f0</title>
<path fill="none" stroke="#5b00c0" d="M968,-693C968,-674.8647 958.1261,-671.3729 944,-660 932.3739,-650.6398 915.1245,-656.3892 907.2264,-651.4532"/>
<polygon fill="#5b00c0" stroke="#5b00c0" points="910.2768,-649.7006 903,-642 903.8863,-652.5577 910.2768,-649.7006"/>
<text text-anchor="middle" x="971.5" y="-663.8" font-family="Times,serif" font-size="14.00" fill="#5b00c0">rw</text>
</g>
<!-- T128673 -->
<g id="node2" class="node">
<title>T128673</title>
<polygon fill="none" stroke="#0058ad" points="472,-531.5 472,-560.5 630,-560.5 630,-531.5 472,-531.5"/>
<text text-anchor="middle" x="511.5" y="-542.3" font-family="Times,serif" font-size="14.00" fill="#0058ad">a 1986 6</text>
<polyline fill="none" stroke="#0058ad" points="551,-531.5 551,-560.5 "/>
<text text-anchor="middle" x="590.5" y="-542.3" font-family="Times,serif" font-size="14.00" fill="#0058ad">a 1986 7</text>
</g>
<!-- T128697 -->
<g id="node10" class="node">
<title>T128697</title>
<polygon fill="none" stroke="#0058ad" points="472,-339.5 472,-368.5 630,-368.5 630,-339.5 472,-339.5"/>
<text text-anchor="middle" x="511.5" y="-350.3" font-family="Times,serif" font-size="14.00" fill="#0058ad">a 1986 8</text>
<polyline fill="none" stroke="#0058ad" points="551,-339.5 551,-368.5 "/>
<text text-anchor="middle" x="590.5" y="-350.3" font-family="Times,serif" font-size="14.00" fill="#0058ad">a 1986 9</text>
</g>
<!-- T128673&#45;&gt;T128697 -->
<g id="edge2" class="edge">
<title>T128673:f1&#45;&gt;T128697:f0</title>
<path fill="none" stroke="#c02700" d="M591,-531C591,-461.6667 571.0809,-443.5741 531,-387 526.8953,-381.2062 520.6141,-380.1627 516.1881,-377.768"/>
<polygon fill="#c02700" stroke="#c02700" points="519.1047,-375.8239 511,-369 513.0803,-379.3886 519.1047,-375.8239"/>
<text text-anchor="middle" x="593.5" y="-446.3" font-family="Times,serif" font-size="14.00" fill="#c02700">ww</text>
</g>
<!-- T128741 -->
<g id="node12" class="node">
<title>T128741</title>
<polygon fill="none" stroke="#0058ad" points="284,-162.5 284,-191.5 478,-191.5 478,-162.5 284,-162.5"/>
<text text-anchor="middle" x="323.5" y="-173.3" font-family="Times,serif" font-size="14.00" fill="#0058ad">a 1987 3</text>
<polyline fill="none" stroke="#0058ad" points="363,-162.5 363,-191.5 "/>
<text text-anchor="middle" x="420.5" y="-173.3" font-family="Times,serif" font-size="14.00" fill="#0058ad">r 1987 [1 2 3]</text>
</g>
<!-- T128673&#45;&gt;T128741 -->
<g id="edge3" class="edge">
<title>T128673&#45;&gt;T128741</title>
<path fill="none" stroke="#0050c0" d="M472.7458,-531.4793C435.466,-524.3012 397.2014,-516.4509 389,-513 224.703,-443.8688 140.5098,-445.4762 57,-288 50.7533,-276.2205 48.7945,-268.5094 57,-258 83.7022,-223.8005 189.9242,-201.9039 273.5595,-189.614"/>
<polygon fill="#0050c0" stroke="#0050c0" points="274.241,-193.0521 283.6401,-188.1627 273.2434,-186.1235 274.241,-193.0521"/>
<text text-anchor="middle" x="117.5" y="-350.3" font-family="Times,serif" font-size="14.00" fill="#0050c0">rt</text>
</g>
<!-- T128674 -->
<g id="node13" class="node">
<title>T128674</title>
<polygon fill="none" stroke="#0058ad" points="370,-435.5 370,-464.5 512,-464.5 512,-435.5 370,-435.5"/>
<text text-anchor="middle" x="441" y="-446.3" font-family="Times,serif" font-size="14.00" fill="#0058ad">r 1986 [3 4 5 6 7]</text>
</g>
<!-- T128673&#45;&gt;T128674 -->
<g id="edge5" class="edge">
<title>T128673:f1&#45;&gt;T128674:f0</title>
<path fill="none" stroke="#c000a5" d="M591,-531C591,-508.216 563.4556,-523.0338 543,-513 517.4437,-500.4642 490.0825,-483.3423 470.1387,-470.112"/>
<polygon fill="#c000a5" stroke="#c000a5" points="472.0567,-467.1841 461.8018,-464.5216 468.158,-472.9979 472.0567,-467.1841"/>
<text text-anchor="middle" x="552.5" y="-494.3" font-family="Times,serif" font-size="14.00" fill="#c000a5">wr</text>
</g>
<!-- T128739 -->
<g id="node16" class="node">
<title>T128739</title>
<polygon fill="none" stroke="#0058ad" points="433.5,-258.5 433.5,-287.5 692.5,-287.5 692.5,-258.5 433.5,-258.5"/>
<text text-anchor="middle" x="473" y="-269.3" font-family="Times,serif" font-size="14.00" fill="#0058ad">a 1987 1</text>
<polyline fill="none" stroke="#0058ad" points="512.5,-258.5 512.5,-287.5 "/>
<text text-anchor="middle" x="552" y="-269.3" font-family="Times,serif" font-size="14.00" fill="#0058ad">a 1987 2</text>
<polyline fill="none" stroke="#0058ad" points="591.5,-258.5 591.5,-287.5 "/>
<text text-anchor="middle" x="642" y="-269.3" font-family="Times,serif" font-size="14.00" fill="#0058ad">r 1987 [1 2]</text>
</g>
<!-- T128673&#45;&gt;T128739 -->
<g id="edge6" class="edge">
<title>T128673&#45;&gt;T128739</title>
<path fill="none" stroke="#0050c0" d="M555.9369,-531.1611C565.3522,-502.9828 585.353,-443.7489 590,-435 607.1375,-402.7351 627.5314,-403.687 639,-369 643.1856,-356.3407 644.5322,-351.1315 639,-339 630.435,-320.218 613.5927,-304.7167 597.9356,-293.4675"/>
<polygon fill="#0050c0" stroke="#0050c0" points="599.6533,-290.4025 589.4191,-287.6615 595.7102,-296.1864 599.6533,-290.4025"/>
<text text-anchor="middle" x="637.5" y="-398.3" font-family="Times,serif" font-size="14.00" fill="#0050c0">rt</text>
</g>
<!-- T129049 -->
<g id="node23" class="node">
<title>T129049</title>
<polygon fill="none" stroke="#0058ad" points="66,-258.5 66,-287.5 328,-287.5 328,-258.5 66,-258.5"/>
<text text-anchor="middle" x="109" y="-269.3" font-family="Times,serif" font-size="14.00" fill="#0058ad">r 1983 nil</text>
<polyline fill="none" stroke="#0058ad" points="152,-258.5 152,-287.5 "/>
<text text-anchor="middle" x="196" y="-269.3" font-family="Times,serif" font-size="14.00" fill="#0058ad">a 1975 29</text>
<polyline fill="none" stroke="#0058ad" points="240,-258.5 240,-287.5 "/>
<text text-anchor="middle" x="284" y="-269.3" font-family="Times,serif" font-size="14.00" fill="#0058ad">a 1984 17</text>
</g>
<!-- T128673&#45;&gt;T129049 -->
<g id="edge4" class="edge">
<title>T128673&#45;&gt;T129049</title>
<path fill="none" stroke="#0050c0" d="M505.984,-531.4758C466.158,-517.5633 407.3427,-494.3662 361,-465 290.9187,-420.5912 234.8242,-336.9072 210.3387,-296.2908"/>
<polygon fill="#0050c0" stroke="#0050c0" points="213.3104,-294.44 205.2006,-287.6223 207.2887,-298.0093 213.3104,-294.44"/>
<text text-anchor="middle" x="308.5" y="-398.3" font-family="Times,serif" font-size="14.00" fill="#0050c0">rt</text>
</g>
<!-- T129219 -->
<g id="node3" class="node">
<title>T129219</title>
<polygon fill="none" stroke="#0058ad" points="886,-.5 886,-29.5 1146,-29.5 1146,-.5 886,-.5"/>
<text text-anchor="middle" x="929" y="-11.3" font-family="Times,serif" font-size="14.00" fill="#0058ad">r 1983 nil</text>
<polyline fill="none" stroke="#0058ad" points="972,-.5 972,-29.5 "/>
<text text-anchor="middle" x="1015" y="-11.3" font-family="Times,serif" font-size="14.00" fill="#0058ad">r 1988 nil</text>
<polyline fill="none" stroke="#0058ad" points="1058,-.5 1058,-29.5 "/>
<text text-anchor="middle" x="1102" y="-11.3" font-family="Times,serif" font-size="14.00" fill="#0058ad">a 1975 32</text>
</g>
<!-- T129219&#45;&gt;T128629 -->
<g id="edge7" class="edge">
<title>T129219:f0&#45;&gt;T128629:f0</title>
<path fill="none" stroke="#5b00c0" d="M886,-15C863.6515,-15 803.9531,-29.7881 791,-48 745.3789,-112.1426 797,-146.2881 797,-225 797,-546 797,-546 797,-546 797,-588.8096 813.6252,-621.5271 852.6048,-626.378"/>
<polygon fill="#5b00c0" stroke="#5b00c0" points="852.8088,-629.8963 863,-627 853.227,-622.9088 852.8088,-629.8963"/>
<text text-anchor="middle" x="806.5" y="-309.8" font-family="Times,serif" font-size="14.00" fill="#5b00c0">rw</text>
</g>
<!-- T128807 -->
<g id="node4" class="node">
<title>T128807</title>
<polygon fill="none" stroke="#0058ad" points="812,-483.5 812,-512.5 900,-512.5 900,-483.5 812,-483.5"/>
<text text-anchor="middle" x="856" y="-494.3" font-family="Times,serif" font-size="14.00" fill="#0058ad">a 1975 27</text>
</g>
<!-- T128815 -->
<g id="node8" class="node">
<title>T128815</title>
<polygon fill="none" stroke="#0058ad" points="531,-81.5 531,-110.5 749,-110.5 749,-81.5 531,-81.5"/>
<text text-anchor="middle" x="640" y="-92.3" font-family="Times,serif" font-size="14.00" fill="#0058ad">r 1935 [1 5 6 9 13 15 16 18]</text>
</g>
<!-- T128807&#45;&gt;T128815 -->
<g id="edge8" class="edge">
<title>T128807&#45;&gt;T128815</title>
<path fill="none" stroke="#0050c0" d="M847.5229,-483.0638C830.5036,-452.8614 791.3002,-382.195 762,-321 748.8445,-293.524 748.732,-285.1925 735,-258 709.4269,-207.3594 674.7296,-150.7184 655.1255,-119.6285"/>
<polygon fill="#0050c0" stroke="#0050c0" points="657.8621,-117.4083 649.5528,-110.8351 651.9494,-121.1554 657.8621,-117.4083"/>
<text text-anchor="middle" x="768.5" y="-309.8" font-family="Times,serif" font-size="14.00" fill="#0050c0">rt</text>
</g>
<!-- T128831 -->
<g id="node5" class="node">
<title>T128831</title>
<polygon fill="none" stroke="#0058ad" points="1498,-81.5 1498,-110.5 1586,-110.5 1586,-81.5 1498,-81.5"/>
<text text-anchor="middle" x="1542" y="-92.3" font-family="Times,serif" font-size="14.00" fill="#0058ad">a 1986 10</text>
</g>
<!-- T128831&#45;&gt;T129219 -->
<g id="edge9" class="edge">
<title>T128831&#45;&gt;T129219</title>
<path fill="none" stroke="#0050c0" d="M1497.9027,-82.5443C1495.2425,-81.9619 1492.5939,-81.4393 1490,-81 1417.8073,-68.775 1230.5887,-85.7739 1161,-63 1149.4013,-59.2041 1149.1382,-52.9879 1138,-48 1124.2833,-41.8575 1109.1728,-36.6395 1094.3964,-32.2911"/>
<polygon fill="#0050c0" stroke="#0050c0" points="1095.3278,-28.9173 1084.7524,-29.5581 1093.4192,-35.6521 1095.3278,-28.9173"/>
<text text-anchor="middle" x="1167.5" y="-51.8" font-family="Times,serif" font-size="14.00" fill="#0050c0">rt</text>
</g>
<!-- T129031 -->
<g id="node9" class="node">
<title>T129031</title>
<polygon fill="none" stroke="#0058ad" points="1376,-.5 1376,-29.5 1462,-29.5 1462,-.5 1376,-.5"/>
<text text-anchor="middle" x="1419" y="-11.3" font-family="Times,serif" font-size="14.00" fill="#0058ad">r 1983 nil</text>
</g>
<!-- T128831&#45;&gt;T129031 -->
<g id="edge10" class="edge">
<title>T128831&#45;&gt;T129031</title>
<path fill="none" stroke="#0050c0" d="M1520.3114,-81.429C1506.0472,-71.8737 1486.9517,-59.1342 1470,-48 1463.6369,-43.8206 1456.8071,-39.3742 1450.2798,-35.1438"/>
<polygon fill="#0050c0" stroke="#0050c0" points="1451.9362,-32.0469 1441.6387,-29.5543 1448.1343,-37.9244 1451.9362,-32.0469"/>
<text text-anchor="middle" x="1497.5" y="-51.8" font-family="Times,serif" font-size="14.00" fill="#0050c0">rt</text>
</g>
<!-- T128829 -->
<g id="node6" class="node">
<title>T128829</title>
<polygon fill="none" stroke="#0058ad" points="1093.5,-81.5 1093.5,-110.5 1172.5,-110.5 1172.5,-81.5 1093.5,-81.5"/>
<text text-anchor="middle" x="1133" y="-92.3" font-family="Times,serif" font-size="14.00" fill="#0058ad">a 1984 9</text>
</g>
<!-- T128829&#45;&gt;T129219 -->
<g id="edge11" class="edge">
<title>T128829&#45;&gt;T129219</title>
<path fill="none" stroke="#0050c0" d="M1093.2352,-89.8293C1063.5056,-84.3177 1026.4338,-75.225 1017,-63 1011.9723,-56.4847 1010.674,-47.8551 1010.9763,-39.7112"/>
<polygon fill="#0050c0" stroke="#0050c0" points="1014.4846,-39.8305 1012.1166,-29.5037 1007.5279,-39.0533 1014.4846,-39.8305"/>
<text text-anchor="middle" x="1023.5" y="-51.8" font-family="Times,serif" font-size="14.00" fill="#0050c0">rt</text>
</g>
<!-- T128829&#45;&gt;T129031 -->
<g id="edge12" class="edge">
<title>T128829&#45;&gt;T129031</title>
<path fill="none" stroke="#0050c0" d="M1172.6571,-82.962C1175.4649,-82.2381 1178.2657,-81.5736 1181,-81 1251.9,-66.1274 1275.9822,-90.5067 1343,-63 1352.9531,-58.9148 1353.0994,-54.0442 1362,-48 1368.7178,-43.4381 1376.0949,-38.8677 1383.2485,-34.6446"/>
<polygon fill="#0050c0" stroke="#0050c0" points="1385.2221,-37.5464 1392.1237,-29.5079 1381.7156,-31.4879 1385.2221,-37.5464"/>
<text text-anchor="middle" x="1368.5" y="-51.8" font-family="Times,serif" font-size="14.00" fill="#0050c0">rt</text>
</g>
<!-- T128839 -->
<g id="node7" class="node">
<title>T128839</title>
<polygon fill="none" stroke="#0058ad" points="1604,-81.5 1604,-110.5 1692,-110.5 1692,-81.5 1604,-81.5"/>
<text text-anchor="middle" x="1648" y="-92.3" font-family="Times,serif" font-size="14.00" fill="#0058ad">a 1984 13</text>
</g>
<!-- T128839&#45;&gt;T129219 -->
<g id="edge13" class="edge">
<title>T128839&#45;&gt;T129219</title>
<path fill="none" stroke="#0050c0" d="M1603.925,-82.7045C1600.9212,-82.0527 1597.9264,-81.4738 1595,-81 1507.6031,-66.851 1281.2728,-90.1389 1197,-63 1185.3835,-59.2591 1185.2788,-52.6613 1174,-48 1158.1962,-41.4686 1140.949,-36.1759 1123.8445,-31.9025"/>
<polygon fill="#0050c0" stroke="#0050c0" points="1124.3418,-28.4229 1113.8021,-29.5025 1122.7146,-35.2311 1124.3418,-28.4229"/>
<text text-anchor="middle" x="1203.5" y="-51.8" font-family="Times,serif" font-size="14.00" fill="#0050c0">rt</text>
</g>
<!-- T128839&#45;&gt;T129031 -->
<g id="edge14" class="edge">
<title>T128839&#45;&gt;T129031</title>
<path fill="none" stroke="#0050c0" d="M1606.7949,-81.4253C1568.4082,-67.8474 1511.0604,-47.5629 1469.8437,-32.984"/>
<polygon fill="#0050c0" stroke="#0050c0" points="1470.8547,-29.6292 1460.2599,-29.5941 1468.5204,-36.2285 1470.8547,-29.6292"/>
<text text-anchor="middle" x="1560.5" y="-51.8" font-family="Times,serif" font-size="14.00" fill="#0050c0">rt</text>
</g>
<!-- T128815&#45;&gt;T129219 -->
<g id="edge15" class="edge">
<title>T128815&#45;&gt;T129219</title>
<path fill="none" stroke="#0050c0" d="M707.6555,-81.4253C772.6458,-67.4247 870.7375,-46.2932 938.7609,-31.6393"/>
<polygon fill="#0050c0" stroke="#0050c0" points="939.5329,-35.0534 948.5715,-29.5258 938.0586,-28.2103 939.5329,-35.0534"/>
<text text-anchor="middle" x="868.5" y="-51.8" font-family="Times,serif" font-size="14.00" fill="#0050c0">rt</text>
</g>
<!-- T128815&#45;&gt;T129031 -->
<g id="edge16" class="edge">
<title>T128815&#45;&gt;T129031</title>
<path fill="none" stroke="#0050c0" d="M749.0399,-84.781C764.7857,-83.3747 780.8003,-82.0604 796,-81 841.9318,-77.7954 1166.8415,-79.0418 1210,-63 1220.0848,-59.2515 1219.1768,-52.3883 1229,-48 1252.851,-37.3451 1318.2235,-27.418 1365.6347,-21.2906"/>
<polygon fill="#0050c0" stroke="#0050c0" points="1366.2785,-24.737 1375.7575,-20.0043 1365.3961,-17.7928 1366.2785,-24.737"/>
<text text-anchor="middle" x="1235.5" y="-51.8" font-family="Times,serif" font-size="14.00" fill="#0050c0">rt</text>
</g>
<!-- T129031&#45;&gt;T128629 -->
<g id="edge17" class="edge">
<title>T129031:f0&#45;&gt;T128629:f0</title>
<path fill="none" stroke="#5b00c0" d="M1460.151,-29.517C1460.7705,-29.6826 1461.3871,-29.8437 1462,-30 1570.6799,-57.71 1767.2269,-20.4839 1701,-111 1503.2975,-381.2112 1225.0377,-107.6602 983,-339 894.0986,-423.972 902.4534,-482.3056 902.9768,-601.7772"/>
<polygon fill="#5b00c0" stroke="#5b00c0" points="899.4772,-602.008 903,-612 906.4772,-601.992 899.4772,-602.008"/>
<text text-anchor="middle" x="1030.5" y="-309.8" font-family="Times,serif" font-size="14.00" fill="#5b00c0">rw</text>
</g>
<!-- T128817 -->
<g id="node11" class="node">
<title>T128817</title>
<polygon fill="none" stroke="#0058ad" points="969.5,-210.5 969.5,-239.5 1138.5,-239.5 1138.5,-210.5 969.5,-210.5"/>
<text text-anchor="middle" x="1054" y="-221.3" font-family="Times,serif" font-size="14.00" fill="#0058ad">r 1986 [3 4 5 6 7 8 9]</text>
</g>
<!-- T128697&#45;&gt;T128817 -->
<g id="edge20" class="edge">
<title>T128697:f1&#45;&gt;T128817:f0</title>
<path fill="none" stroke="#c000a5" d="M630,-354C661.3829,-354 668.129,-344.6453 699,-339 752.4827,-329.2198 768.5647,-338.6198 820,-321 874.0301,-302.4913 879.1389,-279.6226 932,-258 946.7998,-251.9462 963.0599,-246.6649 978.7496,-242.2068"/>
<polygon fill="#c000a5" stroke="#c000a5" points="979.7172,-245.5707 988.4268,-239.5379 977.8561,-238.8226 979.7172,-245.5707"/>
<text text-anchor="middle" x="862.5" y="-309.8" font-family="Times,serif" font-size="14.00" fill="#c000a5">wr</text>
</g>
<!-- T128697&#45;&gt;T128741 -->
<g id="edge18" class="edge">
<title>T128697&#45;&gt;T128741</title>
<path fill="none" stroke="#0050c0" d="M489.0737,-339.4941C460.8541,-329.6674 429.652,-313.6416 411,-288 390.4406,-259.7362 412.5298,-242.9939 401,-210 399.895,-206.8379 398.4587,-203.6521 396.8627,-200.5726"/>
<polygon fill="#0050c0" stroke="#0050c0" points="399.8103,-198.6785 391.7669,-191.7825 393.7543,-202.1892 399.8103,-198.6785"/>
<text text-anchor="middle" x="417.5" y="-269.3" font-family="Times,serif" font-size="14.00" fill="#0050c0">rt</text>
</g>
<!-- T128697&#45;&gt;T128739 -->
<g id="edge21" class="edge">
<title>T128697&#45;&gt;T128739</title>
<path fill="none" stroke="#0050c0" d="M553.201,-339.1434C554.9095,-327.6112 557.316,-311.3668 559.3166,-297.8626"/>
<polygon fill="#0050c0" stroke="#0050c0" points="562.8096,-298.1674 560.813,-287.7625 555.8852,-297.1415 562.8096,-298.1674"/>
<text text-anchor="middle" x="565.5" y="-309.8" font-family="Times,serif" font-size="14.00" fill="#0050c0">rt</text>
</g>
<!-- T128697&#45;&gt;T129049 -->
<g id="edge19" class="edge">
<title>T128697&#45;&gt;T129049</title>
<path fill="none" stroke="#0050c0" d="M471.8739,-340.2736C440.1317,-334.1856 407.6323,-327.0472 393,-321 381.7212,-316.3387 381.3189,-310.5629 370,-306 353.6095,-299.3927 335.8019,-294.0867 318.0525,-289.8313"/>
<polygon fill="#0050c0" stroke="#0050c0" points="318.7363,-286.3974 308.207,-287.5737 317.1717,-293.2203 318.7363,-286.3974"/>
<text text-anchor="middle" x="399.5" y="-309.8" font-family="Times,serif" font-size="14.00" fill="#0050c0">rt</text>
</g>
<!-- T128817&#45;&gt;T129219 -->
<g id="edge22" class="edge">
<title>T128817&#45;&gt;T129219</title>
<path fill="none" stroke="#0050c0" d="M1048.2041,-210.1204C1037.5859,-181.946 1015.4219,-118.642 1008,-63 1006.9827,-55.373 1007.7018,-47.0974 1009.0506,-39.6"/>
<polygon fill="#0050c0" stroke="#0050c0" points="1012.5049,-40.1898 1011.2612,-29.6683 1005.6721,-38.6689 1012.5049,-40.1898"/>
<text text-anchor="middle" x="1032.5" y="-132.8" font-family="Times,serif" font-size="14.00" fill="#0050c0">rt</text>
</g>
<!-- T128817&#45;&gt;T129031 -->
<g id="edge23" class="edge">
<title>T128817&#45;&gt;T129031</title>
<path fill="none" stroke="#0050c0" d="M1054.8899,-210.2621C1057.2231,-177.0522 1064.7237,-97.9437 1084,-81 1123.172,-46.5681 1267.9398,-77.6279 1318,-63 1331.551,-59.0403 1333.3385,-54.2445 1346,-48 1355.6419,-43.2447 1366.1165,-38.3525 1376.0419,-33.8396"/>
<polygon fill="#0050c0" stroke="#0050c0" points="1377.6667,-36.9464 1385.3447,-29.6458 1374.7898,-30.5649 1377.6667,-36.9464"/>
<text text-anchor="middle" x="1071.5" y="-132.8" font-family="Times,serif" font-size="14.00" fill="#0050c0">rt</text>
</g>
<!-- T128741&#45;&gt;T128815 -->
<g id="edge26" class="edge">
<title>T128741&#45;&gt;T128815</title>
<path fill="none" stroke="#0050c0" d="M427.6031,-162.4253C471.385,-148.7329 536.9755,-128.22 583.6718,-113.6162"/>
<polygon fill="#0050c0" stroke="#0050c0" points="584.8354,-116.9195 593.3348,-110.5941 582.746,-110.2386 584.8354,-116.9195"/>
<text text-anchor="middle" x="540.5" y="-132.8" font-family="Times,serif" font-size="14.00" fill="#0050c0">rt</text>
</g>
<!-- T128926 -->
<g id="node18" class="node">
<title>T128926</title>
<polygon fill="none" stroke="#0058ad" points="323,-81.5 323,-110.5 409,-110.5 409,-81.5 323,-81.5"/>
<text text-anchor="middle" x="366" y="-92.3" font-family="Times,serif" font-size="14.00" fill="#0058ad">r 1983 nil</text>
</g>
<!-- T128741&#45;&gt;T128926 -->
<g id="edge24" class="edge">
<title>T128741&#45;&gt;T128926</title>
<path fill="none" stroke="#0050c0" d="M378.2488,-162.1434C376.1132,-150.6112 373.105,-134.3668 370.6042,-120.8626"/>
<polygon fill="#0050c0" stroke="#0050c0" points="373.9962,-119.9579 368.7338,-110.7625 367.1133,-121.2326 373.9962,-119.9579"/>
<text text-anchor="middle" x="381.5" y="-132.8" font-family="Times,serif" font-size="14.00" fill="#0050c0">rt</text>
</g>
<!-- T128925 -->
<g id="node22" class="node">
<title>T128925</title>
<polygon fill="none" stroke="#0058ad" points="427,-81.5 427,-110.5 513,-110.5 513,-81.5 427,-81.5"/>
<text text-anchor="middle" x="470" y="-92.3" font-family="Times,serif" font-size="14.00" fill="#0058ad">r 1983 nil</text>
</g>
<!-- T128741&#45;&gt;T128925 -->
<g id="edge25" class="edge">
<title>T128741&#45;&gt;T128925</title>
<path fill="none" stroke="#0050c0" d="M397.324,-162.1434C410.9988,-149.6978 430.704,-131.7638 446.1469,-117.709"/>
<polygon fill="#0050c0" stroke="#0050c0" points="448.7397,-120.0818 453.7795,-110.7625 444.028,-114.9049 448.7397,-120.0818"/>
<text text-anchor="middle" x="440.5" y="-132.8" font-family="Times,serif" font-size="14.00" fill="#0050c0">rt</text>
</g>
<!-- T128674&#45;&gt;T128697 -->
<g id="edge27" class="edge">
<title>T128674:f0&#45;&gt;T128697:f0</title>
<path fill="none" stroke="#5b00c0" d="M465.4826,-435.3019C483.2242,-422.838 504.9405,-403.177 509.9398,-379.1652"/>
<polygon fill="#5b00c0" stroke="#5b00c0" points="513.4436,-379.3092 511,-369 506.4814,-378.5829 513.4436,-379.3092"/>
<text text-anchor="middle" x="517.5" y="-398.3" font-family="Times,serif" font-size="14.00" fill="#5b00c0">rw</text>
</g>
<!-- T128674&#45;&gt;T128741 -->
<g id="edge28" class="edge">
<title>T128674&#45;&gt;T128741</title>
<path fill="none" stroke="#0050c0" d="M426.4922,-435.3445C405.469,-412.9598 367.4698,-367.8882 353,-321 349.4151,-309.3834 335.1495,-268.9836 356,-210 357.2472,-206.4719 359.021,-203.014 361.0558,-199.7436"/>
<polygon fill="#0050c0" stroke="#0050c0" points="363.9045,-201.7771 366.8687,-191.6054 358.2083,-197.7085 363.9045,-201.7771"/>
<text text-anchor="middle" x="359.5" y="-309.8" font-family="Times,serif" font-size="14.00" fill="#0050c0">rt</text>
</g>
<!-- T128674&#45;&gt;T128739 -->
<g id="edge30" class="edge">
<title>T128674&#45;&gt;T128739</title>
<path fill="none" stroke="#0050c0" d="M438.1822,-435.3756C434.6562,-412.8009 431.1598,-368.9481 450,-339 463.5494,-317.462 486.872,-302.1369 508.8228,-291.711"/>
<polygon fill="#0050c0" stroke="#0050c0" points="510.4251,-294.8282 518.1138,-287.5388 507.5576,-288.4425 510.4251,-294.8282"/>
<text text-anchor="middle" x="456.5" y="-350.3" font-family="Times,serif" font-size="14.00" fill="#0050c0">rt</text>
</g>
<!-- T128674&#45;&gt;T129049 -->
<g id="edge29" class="edge">
<title>T128674&#45;&gt;T129049</title>
<path fill="none" stroke="#0050c0" d="M377.6304,-435.4451C366.2685,-430.8469 355.1496,-424.8371 346,-417 303.5685,-380.6552 329.1189,-342.7066 287,-306 280.5975,-300.4202 273.1712,-295.7536 265.3838,-291.858"/>
<polygon fill="#0050c0" stroke="#0050c0" points="266.6665,-288.5962 256.1158,-287.6304 263.7614,-294.9649 266.6665,-288.5962"/>
<text text-anchor="middle" x="324.5" y="-350.3" font-family="Times,serif" font-size="14.00" fill="#0050c0">rt</text>
</g>
<!-- T128629&#45;&gt;T128993 -->
<g id="edge44" class="edge">
<title>T128629&#45;&gt;T128993</title>
<path fill="none" stroke="#0050c0" d="M947.1724,-641.6884C939.2248,-646.3195 931.9107,-652.308 927,-660 922.6311,-666.8434 921.2956,-675.4226 921.3183,-683.4282"/>
<polygon fill="#0050c0" stroke="#0050c0" points="917.8275,-683.6844 921.9895,-693.4275 924.8118,-683.2155 917.8275,-683.6844"/>
<text text-anchor="middle" x="933.5" y="-663.8" font-family="Times,serif" font-size="14.00" fill="#0050c0">rt</text>
</g>
<!-- T128629&#45;&gt;T128673 -->
<g id="edge39" class="edge">
<title>T128629&#45;&gt;T128673</title>
<path fill="none" stroke="#0050c0" d="M863.41,-620.0681C789.4449,-614.8516 704.1644,-606.4395 669,-594 657.4947,-589.9299 656.9564,-584.3754 646,-579 634.621,-573.4172 622.0564,-568.3471 609.8936,-563.9478"/>
<polygon fill="#0050c0" stroke="#0050c0" points="610.8505,-560.5744 600.2557,-560.5664 608.5331,-567.1797 610.8505,-560.5744"/>
<text text-anchor="middle" x="675.5" y="-582.8" font-family="Times,serif" font-size="14.00" fill="#0050c0">rt</text>
</g>
<!-- T128629&#45;&gt;T128807 -->
<g id="edge36" class="edge">
<title>T128629&#45;&gt;T128807</title>
<path fill="none" stroke="#0050c0" d="M930.0332,-612.4429C911.6832,-607.0142 894.6441,-600.5668 888,-594 868.8665,-575.089 861.1733,-544.4532 858.0801,-522.8856"/>
<polygon fill="#0050c0" stroke="#0050c0" points="861.5401,-522.3424 856.8732,-512.8308 854.59,-523.1767 861.5401,-522.3424"/>
<text text-anchor="middle" x="894.5" y="-582.8" font-family="Times,serif" font-size="14.00" fill="#0050c0">rt</text>
</g>
<!-- T128629&#45;&gt;T128831 -->
<g id="edge32" class="edge">
<title>T128629&#45;&gt;T128831</title>
<path fill="none" stroke="#0050c0" d="M1118.9064,-622.081C1185.4122,-617.7219 1267.6975,-609.5013 1340,-594 1404.7275,-580.1228 1481,-612.1984 1481,-546 1481,-546 1481,-546 1481,-177 1481,-153.2481 1497.9439,-132.0332 1513.9716,-117.2786"/>
<polygon fill="#0050c0" stroke="#0050c0" points="1516.4365,-119.7735 1521.6879,-110.5717 1511.8444,-114.4903 1516.4365,-119.7735"/>
<text text-anchor="middle" x="1487.5" y="-350.3" font-family="Times,serif" font-size="14.00" fill="#0050c0">rt</text>
</g>
<!-- T128629&#45;&gt;T128829 -->
<g id="edge43" class="edge">
<title>T128629&#45;&gt;T128829</title>
<path fill="none" stroke="#0050c0" d="M1007.5641,-612.3159C1036.2298,-585.8969 1094.8135,-527.2755 1124,-465 1153.0933,-402.9236 1153,-382.0558 1153,-313.5 1153,-313.5 1153,-313.5 1153,-177 1153,-157.5134 1147.4767,-136.1384 1142.2353,-120.2414"/>
<polygon fill="#0050c0" stroke="#0050c0" points="1145.4915,-118.9494 1138.8925,-110.6606 1138.8822,-121.2555 1145.4915,-118.9494"/>
<text text-anchor="middle" x="1159.5" y="-350.3" font-family="Times,serif" font-size="14.00" fill="#0050c0">rt</text>
</g>
<!-- T128629&#45;&gt;T128839 -->
<g id="edge40" class="edge">
<title>T128629&#45;&gt;T128839</title>
<path fill="none" stroke="#0050c0" d="M1118.5122,-622.4067C1295.4718,-614.2964 1594,-593.5655 1594,-546 1594,-546 1594,-546 1594,-177 1594,-154.1163 1609.1057,-132.7804 1623.3383,-117.7564"/>
<polygon fill="#0050c0" stroke="#0050c0" points="1626.0058,-120.0393 1630.6168,-110.5005 1621.0637,-115.0819 1626.0058,-120.0393"/>
<text text-anchor="middle" x="1600.5" y="-350.3" font-family="Times,serif" font-size="14.00" fill="#0050c0">rt</text>
</g>
<!-- T128629&#45;&gt;T128697 -->
<g id="edge33" class="edge">
<title>T128629&#45;&gt;T128697</title>
<path fill="none" stroke="#0050c0" d="M863.3092,-615.2293C828.9557,-610.2056 797.3433,-603.2975 783,-594 690.8333,-534.2563 734.7422,-454.3779 648,-387 640.5452,-381.2094 632.013,-376.4015 623.1704,-372.4177"/>
<polygon fill="#0050c0" stroke="#0050c0" points="624.4529,-369.1605 613.8752,-368.5578 621.7683,-375.6253 624.4529,-369.1605"/>
<text text-anchor="middle" x="726.5" y="-494.3" font-family="Times,serif" font-size="14.00" fill="#0050c0">rt</text>
</g>
<!-- T128629&#45;&gt;T128817 -->
<g id="edge38" class="edge">
<title>T128629&#45;&gt;T128817</title>
<path fill="none" stroke="#0050c0" d="M1043.2311,-612.4455C1074.0206,-600.3304 1107,-579.5282 1107,-546 1107,-546 1107,-546 1107,-313.5 1107,-288.2594 1090.9362,-263.987 1076.496,-247.2669"/>
<polygon fill="#0050c0" stroke="#0050c0" points="1078.9305,-244.7417 1069.6151,-239.6945 1073.7498,-249.4492 1078.9305,-244.7417"/>
<text text-anchor="middle" x="1113.5" y="-446.3" font-family="Times,serif" font-size="14.00" fill="#0050c0">rt</text>
</g>
<!-- T128629&#45;&gt;T128674 -->
<g id="edge41" class="edge">
<title>T128629&#45;&gt;T128674</title>
<path fill="none" stroke="#0050c0" d="M863.3798,-620.0174C712.2924,-610.4445 477.545,-590.9445 450,-561 428.8118,-537.966 430.8207,-499.6804 435.1623,-474.6408"/>
<polygon fill="#0050c0" stroke="#0050c0" points="438.6012,-475.2923 437.105,-464.8036 431.7338,-473.936 438.6012,-475.2923"/>
<text text-anchor="middle" x="456.5" y="-542.3" font-family="Times,serif" font-size="14.00" fill="#0050c0">rt</text>
</g>
<!-- T128827 -->
<g id="node15" class="node">
<title>T128827</title>
<polygon fill="none" stroke="#0058ad" points="911,-81.5 911,-110.5 999,-110.5 999,-81.5 911,-81.5"/>
<text text-anchor="middle" x="955" y="-92.3" font-family="Times,serif" font-size="14.00" fill="#0058ad">a 1986 11</text>
</g>
<!-- T128629&#45;&gt;T128827 -->
<g id="edge34" class="edge">
<title>T128629&#45;&gt;T128827</title>
<path fill="none" stroke="#0050c0" d="M991,-612.3671C991,-596.145 991,-569.2031 991,-546 991,-546 991,-546 991,-402 991,-329.3391 977.406,-312.173 969,-240 964.1301,-198.1876 959.6365,-149.4068 957.1135,-120.7006"/>
<polygon fill="#0050c0" stroke="#0050c0" points="960.6004,-120.3968 956.2464,-110.7379 953.6267,-121.0038 960.6004,-120.3968"/>
<text text-anchor="middle" x="996.5" y="-350.3" font-family="Times,serif" font-size="14.00" fill="#0050c0">rt</text>
</g>
<!-- T128841 -->
<g id="node17" class="node">
<title>T128841</title>
<polygon fill="none" stroke="#0058ad" points="1662,-387.5 1662,-416.5 1750,-416.5 1750,-387.5 1662,-387.5"/>
<text text-anchor="middle" x="1706" y="-398.3" font-family="Times,serif" font-size="14.00" fill="#0058ad">a 1986 15</text>
</g>
<!-- T128629&#45;&gt;T128841 -->
<g id="edge45" class="edge">
<title>T128629&#45;&gt;T128841</title>
<path fill="none" stroke="#0050c0" d="M1118.6853,-623.411C1293.4159,-618.0305 1587.8446,-607.0943 1608,-594 1667.3276,-555.4567 1692.4746,-469.1382 1701.5704,-426.6221"/>
<polygon fill="#0050c0" stroke="#0050c0" points="1705.0505,-427.0694 1703.5928,-416.5753 1698.1881,-425.688 1705.0505,-427.0694"/>
<text text-anchor="middle" x="1669.5" y="-542.3" font-family="Times,serif" font-size="14.00" fill="#0050c0">rt</text>
</g>
<!-- T128837 -->
<g id="node19" class="node">
<title>T128837</title>
<polygon fill="none" stroke="#0058ad" points="1190,-81.5 1190,-110.5 1278,-110.5 1278,-81.5 1190,-81.5"/>
<text text-anchor="middle" x="1234" y="-92.3" font-family="Times,serif" font-size="14.00" fill="#0058ad">a 1986 17</text>
</g>
<!-- T128629&#45;&gt;T128837 -->
<g id="edge35" class="edge">
<title>T128629&#45;&gt;T128837</title>
<path fill="none" stroke="#0050c0" d="M1078.1149,-612.4478C1142.1301,-599.1986 1218,-576.9642 1218,-546 1218,-546 1218,-546 1218,-177 1218,-157.8996 1222.3349,-136.7379 1226.4919,-120.8355"/>
<polygon fill="#0050c0" stroke="#0050c0" points="1229.9873,-121.3279 1229.286,-110.7563 1223.2417,-119.4579 1229.9873,-121.3279"/>
<text text-anchor="middle" x="1224.5" y="-350.3" font-family="Times,serif" font-size="14.00" fill="#0050c0">rt</text>
</g>
<!-- T128821 -->
<g id="node20" class="node">
<title>T128821</title>
<polygon fill="none" stroke="#0058ad" points="805,-81.5 805,-110.5 893,-110.5 893,-81.5 805,-81.5"/>
<text text-anchor="middle" x="849" y="-92.3" font-family="Times,serif" font-size="14.00" fill="#0058ad">a 1984 10</text>
</g>
<!-- T128629&#45;&gt;T128821 -->
<g id="edge42" class="edge">
<title>T128629&#45;&gt;T128821</title>
<path fill="none" stroke="#0050c0" d="M983.8804,-612.3927C963.1023,-568.3717 904,-432.6813 904,-313.5 904,-313.5 904,-313.5 904,-177 904,-154.1298 888.8075,-132.9251 874.392,-117.9526"/>
<polygon fill="#0050c0" stroke="#0050c0" points="876.6003,-115.2162 867.0091,-110.7152 871.7001,-120.215 876.6003,-115.2162"/>
<text text-anchor="middle" x="914.5" y="-350.3" font-family="Times,serif" font-size="14.00" fill="#0050c0">rt</text>
</g>
<!-- T128834 -->
<g id="node21" class="node">
<title>T128834</title>
<polygon fill="none" stroke="#0058ad" points="1296,-81.5 1296,-110.5 1384,-110.5 1384,-81.5 1296,-81.5"/>
<text text-anchor="middle" x="1340" y="-92.3" font-family="Times,serif" font-size="14.00" fill="#0058ad">a 1986 14</text>
</g>
<!-- T128629&#45;&gt;T128834 -->
<g id="edge37" class="edge">
<title>T128629&#45;&gt;T128834</title>
<path fill="none" stroke="#0050c0" d="M1118.8026,-617.0834C1204.9656,-606.7419 1303,-586.153 1303,-546 1303,-546 1303,-546 1303,-177 1303,-156.0636 1313.3538,-134.6111 1323.1072,-119.0473"/>
<polygon fill="#0050c0" stroke="#0050c0" points="1326.0905,-120.8815 1328.6977,-110.6124 1320.2557,-117.0142 1326.0905,-120.8815"/>
<text text-anchor="middle" x="1309.5" y="-350.3" font-family="Times,serif" font-size="14.00" fill="#0050c0">rt</text>
</g>
<!-- T128819 -->
<g id="node24" class="node">
<title>T128819</title>
<polygon fill="none" stroke="#0058ad" points="1401.5,-81.5 1401.5,-110.5 1480.5,-110.5 1480.5,-81.5 1401.5,-81.5"/>
<text text-anchor="middle" x="1441" y="-92.3" font-family="Times,serif" font-size="14.00" fill="#0058ad">a 1984 8</text>
</g>
<!-- T128629&#45;&gt;T128819 -->
<g id="edge31" class="edge">
<title>T128629&#45;&gt;T128819</title>
<path fill="none" stroke="#0050c0" d="M1118.6759,-618.6389C1166.8807,-613.7419 1221.918,-606.0449 1271,-594 1329.199,-579.7178 1397,-605.9259 1397,-546 1397,-546 1397,-546 1397,-177 1397,-155.2605 1409.3895,-133.7848 1421.0197,-118.4143"/>
<polygon fill="#0050c0" stroke="#0050c0" points="1423.805,-120.5354 1427.3193,-110.5404 1418.3391,-116.1623 1423.805,-120.5354"/>
<text text-anchor="middle" x="1403.5" y="-350.3" font-family="Times,serif" font-size="14.00" fill="#0050c0">rt</text>
</g>
<!-- T128827&#45;&gt;T129219 -->
<g id="edge46" class="edge">
<title>T128827&#45;&gt;T129219</title>
<path fill="none" stroke="#0050c0" d="M951.6445,-81.0785C950.2177,-71.0192 950.0429,-57.8397 956,-48 958.9245,-43.1694 962.8294,-38.9953 967.2502,-35.4003"/>
<polygon fill="#0050c0" stroke="#0050c0" points="969.4601,-38.1264 975.6645,-29.5383 965.4587,-32.3829 969.4601,-38.1264"/>
<text text-anchor="middle" x="962.5" y="-51.8" font-family="Times,serif" font-size="14.00" fill="#0050c0">rt</text>
</g>
<!-- T128827&#45;&gt;T129031 -->
<g id="edge47" class="edge">
<title>T128827&#45;&gt;T129031</title>
<path fill="none" stroke="#0050c0" d="M999.3515,-88.3379C1015.5652,-85.7305 1034.0777,-82.9784 1051,-81 1153.2813,-69.0424 1184.5065,-96.1581 1282,-63 1293.5541,-59.0704 1293.9061,-53.0857 1305,-48 1316.1941,-42.8684 1341.7882,-35.3344 1365.8946,-28.7603"/>
<polygon fill="#0050c0" stroke="#0050c0" points="1366.9891,-32.0902 1375.7323,-26.1064 1365.1659,-25.3318 1366.9891,-32.0902"/>
<text text-anchor="middle" x="1311.5" y="-51.8" font-family="Times,serif" font-size="14.00" fill="#0050c0">rt</text>
</g>
<!-- T128739&#45;&gt;T128815 -->
<g id="edge51" class="edge">
<title>T128739&#45;&gt;T128815</title>
<path fill="none" stroke="#0050c0" d="M569.4325,-258.2135C582.7141,-227.6832 613.2788,-157.4241 629.4781,-120.1867"/>
<polygon fill="#0050c0" stroke="#0050c0" points="632.8602,-121.186 633.6399,-110.6199 626.4413,-118.3936 632.8602,-121.186"/>
<text text-anchor="middle" x="617.5" y="-173.3" font-family="Times,serif" font-size="14.00" fill="#0050c0">rt</text>
</g>
<!-- T128739&#45;&gt;T128741 -->
<g id="edge48" class="edge">
<title>T128739:f1&#45;&gt;T128741:f0</title>
<path fill="none" stroke="#c02700" d="M552,-258C552,-240.4276 491.9462,-244.6492 475,-240 460.2553,-235.9548 357.6896,-216.3209 329.9198,-199.6332"/>
<polygon fill="#c02700" stroke="#c02700" points="332.3095,-197.0581 323,-192 327.1233,-201.7596 332.3095,-197.0581"/>
<text text-anchor="middle" x="487.5" y="-221.3" font-family="Times,serif" font-size="14.00" fill="#c02700">ww</text>
</g>
<!-- T128739&#45;&gt;T128926 -->
<g id="edge49" class="edge">
<title>T128739&#45;&gt;T128926</title>
<path fill="none" stroke="#0050c0" d="M556.1151,-258.3778C541.3655,-228.7713 503.7214,-161.7705 451,-129 441.1214,-122.8597 429.9113,-117.5256 418.9477,-113.0408"/>
<polygon fill="#0050c0" stroke="#0050c0" points="420.0044,-109.6961 409.4162,-109.3193 417.4584,-116.2167 420.0044,-109.6961"/>
<text text-anchor="middle" x="522.5" y="-173.3" font-family="Times,serif" font-size="14.00" fill="#0050c0">rt</text>
</g>
<!-- T128739&#45;&gt;T128925 -->
<g id="edge50" class="edge">
<title>T128739&#45;&gt;T128925</title>
<path fill="none" stroke="#0050c0" d="M563.115,-258.3334C562.605,-230.3612 557.8909,-168.6501 528,-129 524.3812,-124.1996 519.8464,-119.9894 514.9156,-116.3274"/>
<polygon fill="#0050c0" stroke="#0050c0" points="516.6117,-113.2536 506.3356,-110.6746 512.7606,-119.099 516.6117,-113.2536"/>
<text text-anchor="middle" x="562.5" y="-173.3" font-family="Times,serif" font-size="14.00" fill="#0050c0">rt</text>
</g>
<!-- T128841&#45;&gt;T129031 -->
<g id="edge52" class="edge">
<title>T128841&#45;&gt;T129031</title>
<path fill="none" stroke="#0050c0" d="M1721.3205,-387.2493C1736.6592,-370.8264 1758,-342.7257 1758,-313.5 1758,-313.5 1758,-313.5 1758,-96 1758,-72.1486 1753.6074,-61.5808 1734,-48 1713.0087,-33.4607 1556.6358,-22.6466 1472.3976,-17.8065"/>
<polygon fill="#0050c0" stroke="#0050c0" points="1472.4304,-14.3028 1462.2486,-17.2322 1472.0348,-21.2916 1472.4304,-14.3028"/>
<text text-anchor="middle" x="1764.5" y="-221.3" font-family="Times,serif" font-size="14.00" fill="#0050c0">rt</text>
</g>
<!-- T128926&#45;&gt;T128629 -->
<g id="edge53" class="edge">
<title>T128926:f0&#45;&gt;T128629:f0</title>
<path fill="none" stroke="#5b00c0" d="M324.3783,-110.6155C323.9169,-110.7459 323.4574,-110.8741 323,-111 252.366,-130.4421 0,-103.7391 0,-177 0,-546 0,-546 0,-546 0,-651.2949 127.5683,-580.545 232,-594 367.9988,-611.5221 706.2344,-626.2926 852.785,-626.9753"/>
<polygon fill="#5b00c0" stroke="#5b00c0" points="852.9915,-630.4758 863,-627 853.0085,-623.4758 852.9915,-630.4758"/>
<text text-anchor="middle" x="9.5" y="-350.3" font-family="Times,serif" font-size="14.00" fill="#5b00c0">rw</text>
</g>
<!-- T128837&#45;&gt;T129219 -->
<g id="edge54" class="edge">
<title>T128837&#45;&gt;T129219</title>
<path fill="none" stroke="#0050c0" d="M1189.8655,-83.0236C1186.8761,-82.2948 1183.9007,-81.6115 1181,-81 1124.7867,-69.1503 1102.6568,-91.8885 1053,-63 1043.0413,-57.2064 1034.8326,-47.5871 1028.6988,-38.4749"/>
<polygon fill="#0050c0" stroke="#0050c0" points="1031.5044,-36.3572 1023.2686,-29.6922 1025.5505,-40.0384 1031.5044,-36.3572"/>
<text text-anchor="middle" x="1059.5" y="-51.8" font-family="Times,serif" font-size="14.00" fill="#0050c0">rt</text>
</g>
<!-- T128837&#45;&gt;T129031 -->
<g id="edge55" class="edge">
<title>T128837&#45;&gt;T129031</title>
<path fill="none" stroke="#0050c0" d="M1278.1748,-83.2029C1281.1545,-82.4308 1284.1167,-81.6888 1287,-81 1327.5237,-71.3187 1343.1499,-84.229 1379,-63 1389.327,-56.8848 1398.1991,-47.0896 1404.9449,-37.9376"/>
<polygon fill="#0050c0" stroke="#0050c0" points="1407.9627,-39.7258 1410.7391,-29.5012 1402.1925,-35.7628 1407.9627,-39.7258"/>
<text text-anchor="middle" x="1401.5" y="-51.8" font-family="Times,serif" font-size="14.00" fill="#0050c0">rt</text>
</g>
<!-- T128821&#45;&gt;T129219 -->
<g id="edge56" class="edge">
<title>T128821&#45;&gt;T129219</title>
<path fill="none" stroke="#0050c0" d="M873.4152,-81.3212C890.403,-71.3702 913.7321,-58.2205 935,-48 945.5856,-42.913 957.1685,-37.8876 968.1798,-33.3509"/>
<polygon fill="#0050c0" stroke="#0050c0" points="969.7192,-36.5035 977.6698,-29.5007 967.0875,-30.017 969.7192,-36.5035"/>
<text text-anchor="middle" x="941.5" y="-51.8" font-family="Times,serif" font-size="14.00" fill="#0050c0">rt</text>
</g>
<!-- T128821&#45;&gt;T129031 -->
<g id="edge57" class="edge">
<title>T128821&#45;&gt;T129031</title>
<path fill="none" stroke="#0050c0" d="M893.079,-82.7285C896.0818,-82.0709 899.0753,-81.4841 902,-81 977.5214,-68.499 1174.3657,-89.9866 1246,-63 1256.0681,-59.2071 1255.2645,-52.5796 1265,-48 1296.6769,-33.0991 1335.1866,-24.8487 1365.7722,-20.3238"/>
<polygon fill="#0050c0" stroke="#0050c0" points="1366.3964,-23.7708 1375.8196,-18.9278 1365.4331,-16.8374 1366.3964,-23.7708"/>
<text text-anchor="middle" x="1271.5" y="-51.8" font-family="Times,serif" font-size="14.00" fill="#0050c0">rt</text>
</g>
<!-- T128834&#45;&gt;T129219 -->
<g id="edge58" class="edge">
<title>T128834&#45;&gt;T129219</title>
<path fill="none" stroke="#0050c0" d="M1295.8982,-82.8584C1292.9009,-82.1694 1289.9148,-81.5402 1287,-81 1200.1163,-64.8995 1172.4172,-92.1475 1089,-63 1088.6843,-62.8897 1066.5345,-48.3155 1046.7182,-35.2571"/>
<polygon fill="#0050c0" stroke="#0050c0" points="1048.4281,-32.1922 1038.1525,-29.6112 1044.5758,-38.0369 1048.4281,-32.1922"/>
<text text-anchor="middle" x="1095.5" y="-51.8" font-family="Times,serif" font-size="14.00" fill="#0050c0">rt</text>
</g>
<!-- T128834&#45;&gt;T129031 -->
<g id="edge59" class="edge">
<title>T128834&#45;&gt;T129031</title>
<path fill="none" stroke="#0050c0" d="M1382.9712,-81.4462C1397.2658,-75.7236 1410.6623,-69.0796 1415,-63 1419.7278,-56.3736 1421.4385,-47.8463 1421.7429,-39.8218"/>
<polygon fill="#0050c0" stroke="#0050c0" points="1425.2401,-39.6655 1421.4687,-29.7647 1418.2427,-39.8564 1425.2401,-39.6655"/>
<text text-anchor="middle" x="1426.5" y="-51.8" font-family="Times,serif" font-size="14.00" fill="#0050c0">rt</text>
</g>
<!-- T128925&#45;&gt;T128629 -->
<g id="edge60" class="edge">
<title>T128925:f0&#45;&gt;T128629:f0</title>
<path fill="none" stroke="#5b00c0" d="M510.2788,-110.6513C522.4497,-115.7613 535.6004,-121.9938 547,-129 566.0166,-140.6877 691.4235,-237.8375 701,-258 857.8475,-588.229 725.4681,-458.7916 704,-513 689.1811,-550.4186 656.8189,-541.5814 642,-579 639.5453,-585.1983 637.6479,-588.9498 642,-594 656.7516,-611.1179 807.1567,-624.4126 852.7827,-626.6633"/>
<polygon fill="#5b00c0" stroke="#5b00c0" points="852.8901,-630.1686 863,-627 853.1207,-623.1724 852.8901,-630.1686"/>
<text text-anchor="middle" x="759.5" y="-350.3" font-family="Times,serif" font-size="14.00" fill="#5b00c0">rw</text>
</g>
<!-- T129049&#45;&gt;T128629 -->
<g id="edge61" class="edge">
<title>T129049:f0&#45;&gt;T128629:f0</title>
<path fill="none" stroke="#5b00c0" d="M109,-288C109,-317.8969 96,-324.1031 96,-354 96,-546 96,-546 96,-546 96,-586.8814 755.2026,-623.4879 852.9301,-626.7621"/>
<polygon fill="#5b00c0" stroke="#5b00c0" points="852.9201,-630.2628 863,-627 853.0855,-623.2647 852.9201,-630.2628"/>
<text text-anchor="middle" x="105.5" y="-446.3" font-family="Times,serif" font-size="14.00" fill="#5b00c0">rw</text>
</g>
<!-- T128819&#45;&gt;T129219 -->
<g id="edge62" class="edge">
<title>T128819&#45;&gt;T129219</title>
<path fill="none" stroke="#0050c0" d="M1401.3701,-82.8248C1398.5558,-82.1336 1395.7462,-81.5138 1393,-81 1275.657,-59.0436 1238.2256,-100.834 1125,-63 1113.4251,-59.1323 1112.8688,-53.5504 1102,-48 1091.5352,-42.6559 1079.9929,-37.661 1068.8538,-33.2551"/>
<polygon fill="#0050c0" stroke="#0050c0" points="1069.7957,-29.8673 1059.2059,-29.5409 1067.2807,-36.4 1069.7957,-29.8673"/>
<text text-anchor="middle" x="1131.5" y="-51.8" font-family="Times,serif" font-size="14.00" fill="#0050c0">rt</text>
</g>
<!-- T128819&#45;&gt;T129031 -->
<g id="edge63" class="edge">
<title>T128819&#45;&gt;T129031</title>
<path fill="none" stroke="#0050c0" d="M1448.3978,-81.3195C1452.2538,-71.6055 1455.3478,-58.7292 1451,-48 1449.4593,-44.1979 1447.247,-40.5921 1444.6949,-37.257"/>
<polygon fill="#0050c0" stroke="#0050c0" points="1447.1072,-34.7032 1437.8404,-29.5672 1441.8817,-39.361 1447.1072,-34.7032"/>
<text text-anchor="middle" x="1459.5" y="-51.8" font-family="Times,serif" font-size="14.00" fill="#0050c0">rt</text>
</g>
</g>
</svg>
