<?xml version="1.0" encoding="UTF-8" standalone="no"?>
<!DOCTYPE svg PUBLIC "-//W3C//DTD SVG 1.1//EN"
 "http://www.w3.org/Graphics/SVG/1.1/DTD/svg11.dtd">
<!-- Generated by graphviz version 2.40.1 (20161225.0304)
 -->
<!-- Title: a_graph Pages: 1 -->
<svg width="495pt" height="524pt"
 viewBox="0.00 0.00 495.00 524.00" xmlns="http://www.w3.org/2000/svg" xmlns:xlink="http://www.w3.org/1999/xlink">
<g id="graph0" class="graph" transform="scale(1 1) rotate(0) translate(4 520)">
<title>a_graph</title>
<polygon fill="#ffffff" stroke="transparent" points="-4,4 -4,-520 491,-520 491,4 -4,4"/>
<!-- T109998 -->
<g id="node1" class="node">
<title>T109998</title>
<polygon fill="none" stroke="#0058ad" points="22,-486.5 22,-515.5 150,-515.5 150,-486.5 22,-486.5"/>
<text text-anchor="middle" x="86" y="-497.3" font-family="Times,serif" font-size="14.00" fill="#0058ad">r 1702 [1 3 4 8]</text>
</g>
<!-- T110173 -->
<g id="node7" class="node">
<title>T110173</title>
<polygon fill="none" stroke="#0058ad" points="46.5,-405.5 46.5,-434.5 211.5,-434.5 211.5,-405.5 46.5,-405.5"/>
<text text-anchor="middle" x="86" y="-416.3" font-family="Times,serif" font-size="14.00" fill="#0058ad">a 1702 9</text>
<polyline fill="none" stroke="#0058ad" points="125.5,-405.5 125.5,-434.5 "/>
<text text-anchor="middle" x="168.5" y="-416.3" font-family="Times,serif" font-size="14.00" fill="#0058ad">r 1700 nil</text>
</g>
<!-- T109998&#45;&gt;T110173 -->
<g id="edge1" class="edge">
<title>T109998:f0&#45;&gt;T110173:f0</title>
<path fill="none" stroke="#5b00c0" d="M86,-486.3204C86,-475.4532 86,-460.0147 86,-445.1425"/>
<polygon fill="#5b00c0" stroke="#5b00c0" points="89.5001,-445 86,-435 82.5001,-445 89.5001,-445"/>
<text text-anchor="middle" x="95.5" y="-456.8" font-family="Times,serif" font-size="14.00" fill="#5b00c0">rw</text>
</g>
<!-- T109999 -->
<g id="node2" class="node">
<title>T109999</title>
<polygon fill="none" stroke="#0058ad" points="0,-.5 0,-29.5 128,-29.5 128,-.5 0,-.5"/>
<text text-anchor="middle" x="64" y="-11.3" font-family="Times,serif" font-size="14.00" fill="#0058ad">r 1702 [1 3 4 8]</text>
</g>
<!-- T109999&#45;&gt;T110173 -->
<g id="edge2" class="edge">
<title>T109999:f0&#45;&gt;T110173:f0</title>
<path fill="none" stroke="#5b00c0" d="M52.3923,-29.5646C41.2172,-45.0839 26,-70.8364 26,-96 26,-258 26,-258 26,-258 26,-258.1201 40.2686,-374.437 44.7024,-409.8745"/>
<polygon fill="#5b00c0" stroke="#5b00c0" points="41.2572,-410.526 46,-420 48.2004,-409.6362 41.2572,-410.526"/>
<text text-anchor="middle" x="35.5" y="-213.8" font-family="Times,serif" font-size="14.00" fill="#5b00c0">rw</text>
</g>
<!-- T109991 -->
<g id="node3" class="node">
<title>T109991</title>
<polygon fill="none" stroke="#0058ad" points="141,-162.5 141,-191.5 387,-191.5 387,-162.5 141,-162.5"/>
<text text-anchor="middle" x="180.5" y="-173.3" font-family="Times,serif" font-size="14.00" fill="#0058ad">a 1702 3</text>
<polyline fill="none" stroke="#0058ad" points="220,-162.5 220,-191.5 "/>
<text text-anchor="middle" x="259.5" y="-173.3" font-family="Times,serif" font-size="14.00" fill="#0058ad">a 1702 4</text>
<polyline fill="none" stroke="#0058ad" points="299,-162.5 299,-191.5 "/>
<text text-anchor="middle" x="343" y="-173.3" font-family="Times,serif" font-size="14.00" fill="#0058ad">a 1700 29</text>
</g>
<!-- T109997 -->
<g id="node6" class="node">
<title>T109997</title>
<polygon fill="none" stroke="#0058ad" points="219.5,-81.5 219.5,-110.5 298.5,-110.5 298.5,-81.5 219.5,-81.5"/>
<text text-anchor="middle" x="259" y="-92.3" font-family="Times,serif" font-size="14.00" fill="#0058ad">a 1702 8</text>
</g>
<!-- T109991&#45;&gt;T109997 -->
<g id="edge3" class="edge">
<title>T109991:f1&#45;&gt;T109997:f0</title>
<path fill="none" stroke="#c02700" d="M259,-162C259,-148.3521 259,-133.1166 259,-120.7254"/>
<polygon fill="#c02700" stroke="#c02700" points="262.5001,-120.6796 259,-110.6796 255.5001,-120.6797 262.5001,-120.6796"/>
<text text-anchor="middle" x="271.5" y="-132.8" font-family="Times,serif" font-size="14.00" fill="#c02700">ww</text>
</g>
<!-- T109793 -->
<g id="node4" class="node">
<title>T109793</title>
<polygon fill="none" stroke="#0058ad" points="65.5,-243.5 65.5,-272.5 144.5,-272.5 144.5,-243.5 65.5,-243.5"/>
<text text-anchor="middle" x="105" y="-254.3" font-family="Times,serif" font-size="14.00" fill="#0058ad">a 1702 1</text>
</g>
<!-- T109793&#45;&gt;T109998 -->
<g id="edge5" class="edge">
<title>T109793&#45;&gt;T109998</title>
<path fill="none" stroke="#0050c0" d="M95.5605,-272.6773C79.7093,-298.2944 48.3628,-353.3717 37,-405 34.1341,-418.0217 32.8144,-422.3407 37,-435 42.3871,-451.2934 53.5248,-466.8424 63.822,-478.7512"/>
<polygon fill="#0050c0" stroke="#0050c0" points="61.4265,-481.3199 70.7356,-486.3787 66.613,-476.6188 61.4265,-481.3199"/>
<text text-anchor="middle" x="52.5" y="-375.8" font-family="Times,serif" font-size="14.00" fill="#0050c0">rt</text>
</g>
<!-- T109793&#45;&gt;T109999 -->
<g id="edge6" class="edge">
<title>T109793&#45;&gt;T109999</title>
<path fill="none" stroke="#0050c0" d="M101.7106,-243.246C100.4841,-237.5561 99.119,-230.9872 98,-225 85.5026,-158.1332 73.3886,-78.7804 67.5754,-39.5206"/>
<polygon fill="#0050c0" stroke="#0050c0" points="71.0274,-38.9376 66.1078,-29.5542 64.1021,-39.9574 71.0274,-38.9376"/>
<text text-anchor="middle" x="89.5" y="-132.8" font-family="Times,serif" font-size="14.00" fill="#0050c0">rt</text>
</g>
<!-- T109793&#45;&gt;T109991 -->
<g id="edge7" class="edge">
<title>T109793:f0&#45;&gt;T109991:f0</title>
<path fill="none" stroke="#c02700" d="M139.4269,-243.3975C156.2165,-234.108 173.8333,-220.3481 178.6933,-202.0085"/>
<polygon fill="#c02700" stroke="#c02700" points="182.1758,-202.369 180,-192 175.2347,-201.4627 182.1758,-202.369"/>
<text text-anchor="middle" x="186.5" y="-213.8" font-family="Times,serif" font-size="14.00" fill="#c02700">ww</text>
</g>
<!-- T109793&#45;&gt;T109997 -->
<g id="edge8" class="edge">
<title>T109793&#45;&gt;T109997</title>
<path fill="none" stroke="#0050c0" d="M103.1372,-243.404C101.3573,-223.0927 101.155,-186.0912 119,-162 140.6484,-132.7741 178.5409,-116.0029 209.4488,-106.6863"/>
<polygon fill="#0050c0" stroke="#0050c0" points="210.544,-110.0137 219.2089,-103.917 208.6333,-103.2795 210.544,-110.0137"/>
<text text-anchor="middle" x="125.5" y="-173.3" font-family="Times,serif" font-size="14.00" fill="#0050c0">rt</text>
</g>
<!-- T109793&#45;&gt;T110173 -->
<g id="edge4" class="edge">
<title>T109793&#45;&gt;T110173</title>
<path fill="none" stroke="#0050c0" d="M104.7299,-272.7507C104.6199,-291.6946 105.2244,-325.5253 110,-354 112.3574,-368.0562 116.6557,-383.3751 120.5683,-395.713"/>
<polygon fill="#0050c0" stroke="#0050c0" points="117.2661,-396.8753 123.7132,-405.2827 123.9162,-394.6898 117.2661,-396.8753"/>
<text text-anchor="middle" x="116.5" y="-335.3" font-family="Times,serif" font-size="14.00" fill="#0050c0">rt</text>
</g>
<!-- T109776 -->
<g id="node5" class="node">
<title>T109776</title>
<polygon fill="none" stroke="#0058ad" points="131.5,-324.5 131.5,-353.5 386.5,-353.5 386.5,-324.5 131.5,-324.5"/>
<text text-anchor="middle" x="171" y="-335.3" font-family="Times,serif" font-size="14.00" fill="#0058ad">a 1700 1</text>
<polyline fill="none" stroke="#0058ad" points="210.5,-324.5 210.5,-353.5 "/>
<text text-anchor="middle" x="254.5" y="-335.3" font-family="Times,serif" font-size="14.00" fill="#0058ad">r 1700 [1]</text>
<polyline fill="none" stroke="#0058ad" points="298.5,-324.5 298.5,-353.5 "/>
<text text-anchor="middle" x="342.5" y="-335.3" font-family="Times,serif" font-size="14.00" fill="#0058ad">a 1697 22</text>
</g>
<!-- T109776&#45;&gt;T109991 -->
<g id="edge10" class="edge">
<title>T109776&#45;&gt;T109991</title>
<path fill="none" stroke="#0050c0" d="M259.4525,-324.3379C260.3115,-296.5069 262.1865,-235.7584 263.2409,-201.5948"/>
<polygon fill="#0050c0" stroke="#0050c0" points="266.7418,-201.6155 263.5521,-191.5123 259.7452,-201.3995 266.7418,-201.6155"/>
<text text-anchor="middle" x="267.5" y="-254.3" font-family="Times,serif" font-size="14.00" fill="#0050c0">rt</text>
</g>
<!-- T109776&#45;&gt;T109793 -->
<g id="edge9" class="edge">
<title>T109776&#45;&gt;T109793</title>
<path fill="none" stroke="#0050c0" d="M231.1118,-324.3315C206.0364,-311.1425 169.0351,-291.6808 141.5906,-277.2457"/>
<polygon fill="#0050c0" stroke="#0050c0" points="143.1605,-274.1169 132.6808,-272.5594 139.9019,-280.3122 143.1605,-274.1169"/>
<text text-anchor="middle" x="201.5" y="-294.8" font-family="Times,serif" font-size="14.00" fill="#0050c0">rt</text>
</g>
<!-- T109997&#45;&gt;T109998 -->
<g id="edge11" class="edge">
<title>T109997:f0&#45;&gt;T109998:f0</title>
<path fill="none" stroke="#c000a5" d="M296.7534,-110.5878C297.1707,-110.727 297.5864,-110.8644 298,-111 375.0188,-136.2426 468,-95.9501 468,-177 468,-420 468,-420 468,-420 468,-489.1419 240.8252,-472.0912 158.01,-484.6193"/>
<polygon fill="#c000a5" stroke="#c000a5" points="157.1935,-481.2103 147.9833,-486.4469 158.4488,-488.0969 157.1935,-481.2103"/>
<text text-anchor="middle" x="477.5" y="-294.8" font-family="Times,serif" font-size="14.00" fill="#c000a5">wr</text>
</g>
<!-- T109997&#45;&gt;T109999 -->
<g id="edge12" class="edge">
<title>T109997:f0&#45;&gt;T109999:f0</title>
<path fill="none" stroke="#c000a5" d="M223.687,-81.3315C191.3835,-67.9132 143.4492,-48.002 108.5303,-33.4972"/>
<polygon fill="#c000a5" stroke="#c000a5" points="109.6279,-30.1632 99.0503,-29.5594 106.9427,-36.6277 109.6279,-30.1632"/>
<text text-anchor="middle" x="187.5" y="-51.8" font-family="Times,serif" font-size="14.00" fill="#c000a5">wr</text>
</g>
<!-- T109997&#45;&gt;T110173 -->
<g id="edge13" class="edge">
<title>T109997:f0&#45;&gt;T110173:f0</title>
<path fill="none" stroke="#c02700" d="M294.3988,-110.5223C340.4254,-129.9443 415,-163.4964 415,-177 415,-298.5 415,-298.5 415,-298.5 415,-324.5721 416.6069,-338.0279 396,-354 355.304,-385.5428 215.053,-359.9247 165,-372 131.7667,-380.0176 94.4815,-369.5512 87.2507,-394.9377"/>
<polygon fill="#c02700" stroke="#c02700" points="83.7603,-394.6446 86,-405 90.7068,-395.5081 83.7603,-394.6446"/>
<text text-anchor="middle" x="427.5" y="-254.3" font-family="Times,serif" font-size="14.00" fill="#c02700">ww</text>
</g>
<!-- T110173&#45;&gt;T109776 -->
<g id="edge14" class="edge">
<title>T110173:f1&#45;&gt;T109776:f0</title>
<path fill="none" stroke="#5b00c0" d="M169,-405C169,-386.2147 170.3716,-379.1238 170.8431,-364.3584"/>
<polygon fill="#5b00c0" stroke="#5b00c0" points="174.348,-364.0519 171,-354 167.3488,-363.9458 174.348,-364.0519"/>
<text text-anchor="middle" x="179.5" y="-375.8" font-family="Times,serif" font-size="14.00" fill="#5b00c0">rw</text>
</g>
</g>
</svg>
