<?xml version="1.0" encoding="UTF-8" standalone="no"?>
<!DOCTYPE svg PUBLIC "-//W3C//DTD SVG 1.1//EN"
 "http://www.w3.org/Graphics/SVG/1.1/DTD/svg11.dtd">
<!-- Generated by graphviz version 2.40.1 (20161225.0304)
 -->
<!-- Title: a_graph Pages: 1 -->
<svg width="537pt" height="443pt"
 viewBox="0.00 0.00 537.38 443.00" xmlns="http://www.w3.org/2000/svg" xmlns:xlink="http://www.w3.org/1999/xlink">
<g id="graph0" class="graph" transform="scale(1 1) rotate(0) translate(4 439)">
<title>a_graph</title>
<polygon fill="#ffffff" stroke="transparent" points="-4,4 -4,-439 533.384,-439 533.384,4 -4,4"/>
<!-- T111159 -->
<g id="node1" class="node">
<title>T111159</title>
<polygon fill="none" stroke="#0058ad" points="321.384,-405.5 321.384,-434.5 400.384,-434.5 400.384,-405.5 321.384,-405.5"/>
<text text-anchor="middle" x="360.884" y="-416.3" font-family="Times,serif" font-size="14.00" fill="#0058ad">a 1722 2</text>
</g>
<!-- T111329 -->
<g id="node3" class="node">
<title>T111329</title>
<polygon fill="none" stroke="#0058ad" points="263.884,-324.5 263.884,-353.5 373.884,-353.5 373.884,-324.5 263.884,-324.5"/>
<text text-anchor="middle" x="318.884" y="-335.3" font-family="Times,serif" font-size="14.00" fill="#0058ad">r 1711 [3 22]</text>
</g>
<!-- T111159&#45;&gt;T111329 -->
<g id="edge1" class="edge">
<title>T111159&#45;&gt;T111329</title>
<path fill="none" stroke="#0050c0" d="M353.1806,-405.1434C347.0233,-393.2687 338.2754,-376.3976 331.1557,-362.6667"/>
<polygon fill="#0050c0" stroke="#0050c0" points="334.249,-361.0289 326.5386,-353.7625 328.0347,-364.2511 334.249,-361.0289"/>
<text text-anchor="middle" x="349.384" y="-375.8" font-family="Times,serif" font-size="14.00" fill="#0050c0">rt</text>
</g>
<!-- T111330 -->
<g id="node2" class="node">
<title>T111330</title>
<polygon fill="none" stroke="#0058ad" points="190.884,-.5 190.884,-29.5 300.884,-29.5 300.884,-.5 190.884,-.5"/>
<text text-anchor="middle" x="245.884" y="-11.3" font-family="Times,serif" font-size="14.00" fill="#0058ad">r 1711 [3 22]</text>
</g>
<!-- T111363 -->
<g id="node5" class="node">
<title>T111363</title>
<polygon fill="none" stroke="#0058ad" points="72.884,-243.5 72.884,-272.5 370.884,-272.5 370.884,-243.5 72.884,-243.5"/>
<text text-anchor="middle" x="134.884" y="-254.3" font-family="Times,serif" font-size="14.00" fill="#0058ad">r 1714 [1 3 19]</text>
<polyline fill="none" stroke="#0058ad" points="196.884,-243.5 196.884,-272.5 "/>
<text text-anchor="middle" x="239.884" y="-254.3" font-family="Times,serif" font-size="14.00" fill="#0058ad">r 1717 nil</text>
<polyline fill="none" stroke="#0058ad" points="282.884,-243.5 282.884,-272.5 "/>
<text text-anchor="middle" x="326.884" y="-254.3" font-family="Times,serif" font-size="14.00" fill="#0058ad">a 1711 17</text>
</g>
<!-- T111330&#45;&gt;T111363 -->
<g id="edge2" class="edge">
<title>T111330:f0&#45;&gt;T111363:f2</title>
<path fill="none" stroke="#5b00c0" d="M241.4709,-29.5406C230.9984,-67.3023 209.1441,-169.4018 259.884,-225 277.5837,-244.3944 313.7243,-221.4512 324.0635,-233.253"/>
<polygon fill="#5b00c0" stroke="#5b00c0" points="320.7422,-234.367 326.884,-243 327.4663,-232.4212 320.7422,-234.367"/>
<text text-anchor="middle" x="237.384" y="-132.8" font-family="Times,serif" font-size="14.00" fill="#5b00c0">rw</text>
</g>
<!-- T111329&#45;&gt;T111363 -->
<g id="edge3" class="edge">
<title>T111329:f0&#45;&gt;T111363:f2</title>
<path fill="none" stroke="#5b00c0" d="M321.682,-324.3819C323.5565,-313.5484 325.8191,-298.1335 326.6017,-283.1997"/>
<polygon fill="#5b00c0" stroke="#5b00c0" points="330.1059,-283.0931 326.884,-273 323.1085,-282.8993 330.1059,-283.0931"/>
<text text-anchor="middle" x="335.384" y="-294.8" font-family="Times,serif" font-size="14.00" fill="#5b00c0">rw</text>
</g>
<!-- T111017 -->
<g id="node4" class="node">
<title>T111017</title>
<polygon fill="none" stroke="#0058ad" points="274.384,-162.5 274.384,-191.5 529.384,-191.5 529.384,-162.5 274.384,-162.5"/>
<text text-anchor="middle" x="313.884" y="-173.3" font-family="Times,serif" font-size="14.00" fill="#0058ad">a 1717 1</text>
<polyline fill="none" stroke="#0058ad" points="353.384,-162.5 353.384,-191.5 "/>
<text text-anchor="middle" x="397.384" y="-173.3" font-family="Times,serif" font-size="14.00" fill="#0058ad">r 1717 [1]</text>
<polyline fill="none" stroke="#0058ad" points="441.384,-162.5 441.384,-191.5 "/>
<text text-anchor="middle" x="485.384" y="-173.3" font-family="Times,serif" font-size="14.00" fill="#0058ad">a 1715 32</text>
</g>
<!-- T111017&#45;&gt;T111159 -->
<g id="edge6" class="edge">
<title>T111017&#45;&gt;T111159</title>
<path fill="none" stroke="#0050c0" d="M401.3655,-191.857C400.0612,-222.501 395.7687,-294.811 382.884,-354 379.8132,-368.1068 374.8137,-383.429 370.3561,-395.7562"/>
<polygon fill="#0050c0" stroke="#0050c0" points="367.0066,-394.7214 366.7934,-405.3141 373.5658,-397.1664 367.0066,-394.7214"/>
<text text-anchor="middle" x="399.384" y="-294.8" font-family="Times,serif" font-size="14.00" fill="#0050c0">rt</text>
</g>
<!-- T111017&#45;&gt;T111330 -->
<g id="edge5" class="edge">
<title>T111017&#45;&gt;T111330</title>
<path fill="none" stroke="#0050c0" d="M387.7649,-162.3379C360.2686,-133.784 299.4059,-70.5804 267.0572,-36.9876"/>
<polygon fill="#0050c0" stroke="#0050c0" points="269.3164,-34.2878 259.8588,-29.5123 264.2741,-39.1433 269.3164,-34.2878"/>
<text text-anchor="middle" x="342.384" y="-92.3" font-family="Times,serif" font-size="14.00" fill="#0050c0">rt</text>
</g>
<!-- T111331 -->
<g id="node6" class="node">
<title>T111331</title>
<polygon fill="none" stroke="#0058ad" points="41.884,-81.5 41.884,-110.5 217.884,-110.5 217.884,-81.5 41.884,-81.5"/>
<text text-anchor="middle" x="85.884" y="-92.3" font-family="Times,serif" font-size="14.00" fill="#0058ad">a 1711 22</text>
<polyline fill="none" stroke="#0058ad" points="129.884,-81.5 129.884,-110.5 "/>
<text text-anchor="middle" x="173.884" y="-92.3" font-family="Times,serif" font-size="14.00" fill="#0058ad">a 1719 23</text>
</g>
<!-- T111017&#45;&gt;T111331 -->
<g id="edge4" class="edge">
<title>T111017&#45;&gt;T111331</title>
<path fill="none" stroke="#0050c0" d="M364.995,-162.4129C338.5079,-152.2533 301.8189,-138.8183 268.884,-129 249.1725,-123.1237 227.6452,-117.5916 207.5471,-112.7973"/>
<polygon fill="#0050c0" stroke="#0050c0" points="208.3457,-109.3898 197.8097,-110.5048 206.7415,-116.2035 208.3457,-109.3898"/>
<text text-anchor="middle" x="319.384" y="-132.8" font-family="Times,serif" font-size="14.00" fill="#0050c0">rt</text>
</g>
<!-- T111363&#45;&gt;T111017 -->
<g id="edge7" class="edge">
<title>T111363:f1&#45;&gt;T111017:f0</title>
<path fill="none" stroke="#5b00c0" d="M239.884,-243C239.884,-234.8865 288.7356,-212.8817 307.0549,-199.5589"/>
<polygon fill="#5b00c0" stroke="#5b00c0" points="309.7773,-201.7666 313.884,-192 304.5831,-197.0739 309.7773,-201.7666"/>
<text text-anchor="middle" x="299.384" y="-213.8" font-family="Times,serif" font-size="14.00" fill="#5b00c0">rw</text>
</g>
<!-- T111331&#45;&gt;T111330 -->
<g id="edge10" class="edge">
<title>T111331:f0&#45;&gt;T111330:f0</title>
<path fill="none" stroke="#c000a5" d="M85.884,-81C85.884,-69.4633 143.4662,-48.0158 189.5426,-32.7006"/>
<polygon fill="#c000a5" stroke="#c000a5" points="190.7701,-35.9814 199.1753,-29.5314 188.5823,-29.3321 190.7701,-35.9814"/>
<text text-anchor="middle" x="152.384" y="-51.8" font-family="Times,serif" font-size="14.00" fill="#c000a5">wr</text>
</g>
<!-- T111331&#45;&gt;T111329 -->
<g id="edge8" class="edge">
<title>T111331:f0&#45;&gt;T111329:f0</title>
<path fill="none" stroke="#c000a5" d="M41.884,-96C-37.388,-96 11.1354,-213.8254 63.884,-273 122.6594,-338.9356 171.4408,-303.4809 255.712,-322.06"/>
<polygon fill="#c000a5" stroke="#c000a5" points="255.0732,-325.5064 265.616,-324.4578 256.7204,-318.703 255.0732,-325.5064"/>
<text text-anchor="middle" x="39.384" y="-213.8" font-family="Times,serif" font-size="14.00" fill="#c000a5">wr</text>
</g>
<!-- T111331&#45;&gt;T111363 -->
<g id="edge9" class="edge">
<title>T111331:f0&#45;&gt;T111363:f2</title>
<path fill="none" stroke="#c02700" d="M85.884,-111C85.884,-193.3267 156.8845,-191.0478 231.884,-225 248.1705,-232.3729 303.1215,-225.0631 321.1221,-234.7756"/>
<polygon fill="#c02700" stroke="#c02700" points="318.2796,-236.8182 326.884,-243 324.0126,-232.8017 318.2796,-236.8182"/>
<text text-anchor="middle" x="155.384" y="-173.3" font-family="Times,serif" font-size="14.00" fill="#c02700">ww</text>
</g>
</g>
</svg>
