<?xml version="1.0" encoding="UTF-8" standalone="no"?>
<!DOCTYPE svg PUBLIC "-//W3C//DTD SVG 1.1//EN"
 "http://www.w3.org/Graphics/SVG/1.1/DTD/svg11.dtd">
<!-- Generated by graphviz version 2.40.1 (20161225.0304)
 -->
<!-- Title: a_graph Pages: 1 -->
<svg width="883pt" height="1253pt"
 viewBox="0.00 0.00 882.50 1253.00" xmlns="http://www.w3.org/2000/svg" xmlns:xlink="http://www.w3.org/1999/xlink">
<g id="graph0" class="graph" transform="scale(1 1) rotate(0) translate(4 1249)">
<title>a_graph</title>
<polygon fill="#ffffff" stroke="transparent" points="-4,4 -4,-1249 878.5,-1249 878.5,4 -4,4"/>
<!-- T165 -->
<g id="node1" class="node">
<title>T165</title>
<polygon fill="none" stroke="#0058ad" points="411,-1215.5 411,-1244.5 639,-1244.5 639,-1215.5 411,-1215.5"/>
<text text-anchor="middle" x="452.5" y="-1226.3" font-family="Times,serif" font-size="14.00" fill="#0058ad">w 128 32</text>
<polyline fill="none" stroke="#0058ad" points="494,-1215.5 494,-1244.5 "/>
<text text-anchor="middle" x="532.5" y="-1226.3" font-family="Times,serif" font-size="14.00" fill="#0058ad">r 128 32</text>
<polyline fill="none" stroke="#0058ad" points="571,-1215.5 571,-1244.5 "/>
<text text-anchor="middle" x="605" y="-1226.3" font-family="Times,serif" font-size="14.00" fill="#0058ad">r 122 2</text>
</g>
<!-- T169 -->
<g id="node12" class="node">
<title>T169</title>
<polygon fill="none" stroke="#0058ad" points="303.5,-1134.5 303.5,-1163.5 546.5,-1163.5 546.5,-1134.5 303.5,-1134.5"/>
<text text-anchor="middle" x="345" y="-1145.3" font-family="Times,serif" font-size="14.00" fill="#0058ad">w 126 27</text>
<polyline fill="none" stroke="#0058ad" points="386.5,-1134.5 386.5,-1163.5 "/>
<text text-anchor="middle" x="428" y="-1145.3" font-family="Times,serif" font-size="14.00" fill="#0058ad">w 125 19</text>
<polyline fill="none" stroke="#0058ad" points="469.5,-1134.5 469.5,-1163.5 "/>
<text text-anchor="middle" x="508" y="-1145.3" font-family="Times,serif" font-size="14.00" fill="#0058ad">r 126 27</text>
</g>
<!-- T165&#45;&gt;T169 -->
<g id="edge1" class="edge">
<title>T165&#45;&gt;T169</title>
<path fill="none" stroke="#0050c0" d="M506.6585,-1215.1434C491.1526,-1202.5836 468.746,-1184.4343 451.3249,-1170.3232"/>
<polygon fill="#0050c0" stroke="#0050c0" points="453.1989,-1167.337 443.2253,-1163.7625 448.7929,-1172.7764 453.1989,-1167.337"/>
<text text-anchor="middle" x="490.5" y="-1185.8" font-family="Times,serif" font-size="14.00" fill="#0050c0">rt</text>
</g>
<!-- T259 -->
<g id="node2" class="node">
<title>T259</title>
<polygon fill="none" stroke="#0058ad" points="0,-648.5 0,-677.5 382,-677.5 382,-648.5 0,-648.5"/>
<text text-anchor="middle" x="38.5" y="-659.3" font-family="Times,serif" font-size="14.00" fill="#0058ad">r 131 11</text>
<polyline fill="none" stroke="#0058ad" points="77,-648.5 77,-677.5 "/>
<text text-anchor="middle" x="118.5" y="-659.3" font-family="Times,serif" font-size="14.00" fill="#0058ad">w 125 27</text>
<polyline fill="none" stroke="#0058ad" points="160,-648.5 160,-677.5 "/>
<text text-anchor="middle" x="194" y="-659.3" font-family="Times,serif" font-size="14.00" fill="#0058ad">r 130 9</text>
<polyline fill="none" stroke="#0058ad" points="228,-648.5 228,-677.5 "/>
<text text-anchor="middle" x="266.5" y="-659.3" font-family="Times,serif" font-size="14.00" fill="#0058ad">r 118 nil</text>
<polyline fill="none" stroke="#0058ad" points="305,-648.5 305,-677.5 "/>
<text text-anchor="middle" x="343.5" y="-659.3" font-family="Times,serif" font-size="14.00" fill="#0058ad">r 131 11</text>
</g>
<!-- T307 -->
<g id="node11" class="node">
<title>T307</title>
<polygon fill="none" stroke="#0058ad" points="230,-567.5 230,-596.5 304,-596.5 304,-567.5 230,-567.5"/>
<text text-anchor="middle" x="267" y="-578.3" font-family="Times,serif" font-size="14.00" fill="#0058ad">w 118 1</text>
</g>
<!-- T259&#45;&gt;T307 -->
<g id="edge2" class="edge">
<title>T259:f3&#45;&gt;T307:f0</title>
<path fill="none" stroke="#5b00c0" d="M267,-648C267,-634.3521 267,-619.1166 267,-606.7254"/>
<polygon fill="#5b00c0" stroke="#5b00c0" points="270.5001,-606.6796 267,-596.6796 263.5001,-606.6797 270.5001,-606.6796"/>
<text text-anchor="middle" x="276.5" y="-618.8" font-family="Times,serif" font-size="14.00" fill="#5b00c0">rw</text>
</g>
<!-- T201 -->
<g id="node3" class="node">
<title>T201</title>
<polygon fill="none" stroke="#0058ad" points="258.5,-1053.5 258.5,-1082.5 575.5,-1082.5 575.5,-1053.5 258.5,-1053.5"/>
<text text-anchor="middle" x="300" y="-1064.3" font-family="Times,serif" font-size="14.00" fill="#0058ad">w 126 32</text>
<polyline fill="none" stroke="#0058ad" points="341.5,-1053.5 341.5,-1082.5 "/>
<text text-anchor="middle" x="380" y="-1064.3" font-family="Times,serif" font-size="14.00" fill="#0058ad">r 125 19</text>
<polyline fill="none" stroke="#0058ad" points="418.5,-1053.5 418.5,-1082.5 "/>
<text text-anchor="middle" x="460" y="-1064.3" font-family="Times,serif" font-size="14.00" fill="#0058ad">w 129 18</text>
<polyline fill="none" stroke="#0058ad" points="501.5,-1053.5 501.5,-1082.5 "/>
<text text-anchor="middle" x="538.5" y="-1064.3" font-family="Times,serif" font-size="14.00" fill="#0058ad">w 123 5</text>
</g>
<!-- T235 -->
<g id="node15" class="node">
<title>T235</title>
<polygon fill="none" stroke="#0058ad" points="461,-972.5 461,-1001.5 529,-1001.5 529,-972.5 461,-972.5"/>
<text text-anchor="middle" x="495" y="-983.3" font-family="Times,serif" font-size="14.00" fill="#0058ad">r 123 5</text>
</g>
<!-- T201&#45;&gt;T235 -->
<g id="edge3" class="edge">
<title>T201:f3&#45;&gt;T235:f0</title>
<path fill="none" stroke="#c000a5" d="M539,-1053C539,-1036.552 529.4225,-1021.0854 519.2042,-1009.2647"/>
<polygon fill="#c000a5" stroke="#c000a5" points="521.5205,-1006.6169 512.1375,-1001.6964 516.404,-1011.3942 521.5205,-1006.6169"/>
<text text-anchor="middle" x="545.5" y="-1023.8" font-family="Times,serif" font-size="14.00" fill="#c000a5">wr</text>
</g>
<!-- T244 -->
<g id="node4" class="node">
<title>T244</title>
<polygon fill="none" stroke="#0058ad" points="157,-729.5 157,-758.5 527,-758.5 527,-729.5 157,-729.5"/>
<text text-anchor="middle" x="194" y="-740.3" font-family="Times,serif" font-size="14.00" fill="#0058ad">w 130 9</text>
<polyline fill="none" stroke="#0058ad" points="231,-729.5 231,-758.5 "/>
<text text-anchor="middle" x="272.5" y="-740.3" font-family="Times,serif" font-size="14.00" fill="#0058ad">w 124 12</text>
<polyline fill="none" stroke="#0058ad" points="314,-729.5 314,-758.5 "/>
<text text-anchor="middle" x="348" y="-740.3" font-family="Times,serif" font-size="14.00" fill="#0058ad">r 130 9</text>
<polyline fill="none" stroke="#0058ad" points="382,-729.5 382,-758.5 "/>
<text text-anchor="middle" x="420.5" y="-740.3" font-family="Times,serif" font-size="14.00" fill="#0058ad">r 125 24</text>
<polyline fill="none" stroke="#0058ad" points="459,-729.5 459,-758.5 "/>
<text text-anchor="middle" x="493" y="-740.3" font-family="Times,serif" font-size="14.00" fill="#0058ad">r 122 5</text>
</g>
<!-- T244&#45;&gt;T259 -->
<g id="edge4" class="edge">
<title>T244:f0&#45;&gt;T259:f2</title>
<path fill="none" stroke="#c000a5" d="M194,-729C194,-710.2292 194,-703.1168 194,-688.3535"/>
<polygon fill="#c000a5" stroke="#c000a5" points="197.5001,-688 194,-678 190.5001,-688 197.5001,-688"/>
<text text-anchor="middle" x="203.5" y="-699.8" font-family="Times,serif" font-size="14.00" fill="#c000a5">wr</text>
</g>
<!-- T7 -->
<g id="node5" class="node">
<title>T7</title>
<polygon fill="none" stroke="#0058ad" points="122,-324.5 122,-353.5 474,-353.5 474,-324.5 122,-324.5"/>
<text text-anchor="middle" x="159" y="-335.3" font-family="Times,serif" font-size="14.00" fill="#0058ad">w 117 1</text>
<polyline fill="none" stroke="#0058ad" points="196,-324.5 196,-353.5 "/>
<text text-anchor="middle" x="233" y="-335.3" font-family="Times,serif" font-size="14.00" fill="#0058ad">w 124 2</text>
<polyline fill="none" stroke="#0058ad" points="270,-324.5 270,-353.5 "/>
<text text-anchor="middle" x="304" y="-335.3" font-family="Times,serif" font-size="14.00" fill="#0058ad">r 123 9</text>
<polyline fill="none" stroke="#0058ad" points="338,-324.5 338,-353.5 "/>
<text text-anchor="middle" x="372" y="-335.3" font-family="Times,serif" font-size="14.00" fill="#0058ad">r 127 3</text>
<polyline fill="none" stroke="#0058ad" points="406,-324.5 406,-353.5 "/>
<text text-anchor="middle" x="440" y="-335.3" font-family="Times,serif" font-size="14.00" fill="#0058ad">r 127 3</text>
</g>
<!-- T19 -->
<g id="node13" class="node">
<title>T19</title>
<polygon fill="none" stroke="#0058ad" points="51,-243.5 51,-272.5 335,-272.5 335,-243.5 51,-243.5"/>
<text text-anchor="middle" x="88" y="-254.3" font-family="Times,serif" font-size="14.00" fill="#0058ad">w 125 4</text>
<polyline fill="none" stroke="#0058ad" points="125,-243.5 125,-272.5 "/>
<text text-anchor="middle" x="159" y="-254.3" font-family="Times,serif" font-size="14.00" fill="#0058ad">r 127 6</text>
<polyline fill="none" stroke="#0058ad" points="193,-243.5 193,-272.5 "/>
<text text-anchor="middle" x="227" y="-254.3" font-family="Times,serif" font-size="14.00" fill="#0058ad">r 124 2</text>
<polyline fill="none" stroke="#0058ad" points="261,-243.5 261,-272.5 "/>
<text text-anchor="middle" x="298" y="-254.3" font-family="Times,serif" font-size="14.00" fill="#0058ad">w 124 3</text>
</g>
<!-- T7&#45;&gt;T19 -->
<g id="edge5" class="edge">
<title>T7:f1&#45;&gt;T19:f2</title>
<path fill="none" stroke="#c000a5" d="M233,-324C233,-305.0997 228.8853,-298.1795 227.4708,-283.3973"/>
<polygon fill="#c000a5" stroke="#c000a5" points="230.9489,-282.8314 227,-273 223.956,-283.1481 230.9489,-282.8314"/>
<text text-anchor="middle" x="241.5" y="-294.8" font-family="Times,serif" font-size="14.00" fill="#c000a5">wr</text>
</g>
<!-- T25 -->
<g id="node6" class="node">
<title>T25</title>
<polygon fill="none" stroke="#0058ad" points="108,-162.5 108,-191.5 398,-191.5 398,-162.5 108,-162.5"/>
<text text-anchor="middle" x="145" y="-173.3" font-family="Times,serif" font-size="14.00" fill="#0058ad">w 127 8</text>
<polyline fill="none" stroke="#0058ad" points="182,-162.5 182,-191.5 "/>
<text text-anchor="middle" x="219" y="-173.3" font-family="Times,serif" font-size="14.00" fill="#0058ad">w 126 4</text>
<polyline fill="none" stroke="#0058ad" points="256,-162.5 256,-191.5 "/>
<text text-anchor="middle" x="290" y="-173.3" font-family="Times,serif" font-size="14.00" fill="#0058ad">r 124 3</text>
<polyline fill="none" stroke="#0058ad" points="324,-162.5 324,-191.5 "/>
<text text-anchor="middle" x="361" y="-173.3" font-family="Times,serif" font-size="14.00" fill="#0058ad">w 127 9</text>
</g>
<!-- T27 -->
<g id="node16" class="node">
<title>T27</title>
<polygon fill="none" stroke="#0058ad" points="310,-81.5 310,-110.5 594,-110.5 594,-81.5 310,-81.5"/>
<text text-anchor="middle" x="344" y="-92.3" font-family="Times,serif" font-size="14.00" fill="#0058ad">r 127 9</text>
<polyline fill="none" stroke="#0058ad" points="378,-81.5 378,-110.5 "/>
<text text-anchor="middle" x="415" y="-92.3" font-family="Times,serif" font-size="14.00" fill="#0058ad">w 125 5</text>
<polyline fill="none" stroke="#0058ad" points="452,-81.5 452,-110.5 "/>
<text text-anchor="middle" x="489" y="-92.3" font-family="Times,serif" font-size="14.00" fill="#0058ad">w 126 5</text>
<polyline fill="none" stroke="#0058ad" points="526,-81.5 526,-110.5 "/>
<text text-anchor="middle" x="560" y="-92.3" font-family="Times,serif" font-size="14.00" fill="#0058ad">r 127 9</text>
</g>
<!-- T25&#45;&gt;T27 -->
<g id="edge6" class="edge">
<title>T25:f3&#45;&gt;T27:f0</title>
<path fill="none" stroke="#c000a5" d="M361,-162C361,-142.0271 349.1205,-136.5041 345.2226,-121.2726"/>
<polygon fill="#c000a5" stroke="#c000a5" points="348.6574,-120.5163 344,-111 341.7064,-121.3436 348.6574,-120.5163"/>
<text text-anchor="middle" x="366.5" y="-132.8" font-family="Times,serif" font-size="14.00" fill="#c000a5">wr</text>
</g>
<!-- T241 -->
<g id="node7" class="node">
<title>T241</title>
<polygon fill="none" stroke="#0058ad" points="229.5,-810.5 229.5,-839.5 454.5,-839.5 454.5,-810.5 229.5,-810.5"/>
<text text-anchor="middle" x="266.5" y="-821.3" font-family="Times,serif" font-size="14.00" fill="#0058ad">w 131 5</text>
<polyline fill="none" stroke="#0058ad" points="303.5,-810.5 303.5,-839.5 "/>
<text text-anchor="middle" x="340.5" y="-821.3" font-family="Times,serif" font-size="14.00" fill="#0058ad">w 131 6</text>
<polyline fill="none" stroke="#0058ad" points="377.5,-810.5 377.5,-839.5 "/>
<text text-anchor="middle" x="416" y="-821.3" font-family="Times,serif" font-size="14.00" fill="#0058ad">r 124 11</text>
</g>
<!-- T241&#45;&gt;T244 -->
<g id="edge7" class="edge">
<title>T241&#45;&gt;T244</title>
<path fill="none" stroke="#0050c0" d="M342,-810.1434C342,-798.6112 342,-782.3668 342,-768.8626"/>
<polygon fill="#0050c0" stroke="#0050c0" points="345.5001,-768.7624 342,-758.7625 338.5001,-768.7625 345.5001,-768.7624"/>
<text text-anchor="middle" x="348.5" y="-780.8" font-family="Times,serif" font-size="14.00" fill="#0050c0">rt</text>
</g>
<!-- T309 -->
<g id="node8" class="node">
<title>T309</title>
<polygon fill="none" stroke="#0058ad" points="68.5,-486.5 68.5,-515.5 465.5,-515.5 465.5,-486.5 68.5,-486.5"/>
<text text-anchor="middle" x="107" y="-497.3" font-family="Times,serif" font-size="14.00" fill="#0058ad">r 131 26</text>
<polyline fill="none" stroke="#0058ad" points="145.5,-486.5 145.5,-515.5 "/>
<text text-anchor="middle" x="187" y="-497.3" font-family="Times,serif" font-size="14.00" fill="#0058ad">w 131 27</text>
<polyline fill="none" stroke="#0058ad" points="228.5,-486.5 228.5,-515.5 "/>
<text text-anchor="middle" x="270" y="-497.3" font-family="Times,serif" font-size="14.00" fill="#0058ad">w 131 28</text>
<polyline fill="none" stroke="#0058ad" points="311.5,-486.5 311.5,-515.5 "/>
<text text-anchor="middle" x="350" y="-497.3" font-family="Times,serif" font-size="14.00" fill="#0058ad">r 131 28</text>
<polyline fill="none" stroke="#0058ad" points="388.5,-486.5 388.5,-515.5 "/>
<text text-anchor="middle" x="427" y="-497.3" font-family="Times,serif" font-size="14.00" fill="#0058ad">r 130 21</text>
</g>
<!-- T311 -->
<g id="node14" class="node">
<title>T311</title>
<polygon fill="none" stroke="#0058ad" points="107.5,-405.5 107.5,-434.5 424.5,-434.5 424.5,-405.5 107.5,-405.5"/>
<text text-anchor="middle" x="146" y="-416.3" font-family="Times,serif" font-size="14.00" fill="#0058ad">r 130 21</text>
<polyline fill="none" stroke="#0058ad" points="184.5,-405.5 184.5,-434.5 "/>
<text text-anchor="middle" x="226" y="-416.3" font-family="Times,serif" font-size="14.00" fill="#0058ad">w 131 29</text>
<polyline fill="none" stroke="#0058ad" points="267.5,-405.5 267.5,-434.5 "/>
<text text-anchor="middle" x="304.5" y="-416.3" font-family="Times,serif" font-size="14.00" fill="#0058ad">w 123 9</text>
<polyline fill="none" stroke="#0058ad" points="341.5,-405.5 341.5,-434.5 "/>
<text text-anchor="middle" x="383" y="-416.3" font-family="Times,serif" font-size="14.00" fill="#0058ad">w 130 22</text>
</g>
<!-- T309&#45;&gt;T311 -->
<g id="edge8" class="edge">
<title>T309&#45;&gt;T311</title>
<path fill="none" stroke="#0050c0" d="M266.8166,-486.1434C266.6742,-474.6112 266.4737,-458.3668 266.3069,-444.8626"/>
<polygon fill="#0050c0" stroke="#0050c0" points="269.8055,-444.7185 266.1823,-434.7625 262.8061,-444.8049 269.8055,-444.7185"/>
<text text-anchor="middle" x="273.5" y="-456.8" font-family="Times,serif" font-size="14.00" fill="#0050c0">rt</text>
</g>
<!-- T237 -->
<g id="node9" class="node">
<title>T237</title>
<polygon fill="none" stroke="#0058ad" points="238.5,-891.5 238.5,-920.5 593.5,-920.5 593.5,-891.5 238.5,-891.5"/>
<text text-anchor="middle" x="272.5" y="-902.3" font-family="Times,serif" font-size="14.00" fill="#0058ad">r 131 3</text>
<polyline fill="none" stroke="#0058ad" points="306.5,-891.5 306.5,-920.5 "/>
<text text-anchor="middle" x="340.5" y="-902.3" font-family="Times,serif" font-size="14.00" fill="#0058ad">r 131 3</text>
<polyline fill="none" stroke="#0058ad" points="374.5,-891.5 374.5,-920.5 "/>
<text text-anchor="middle" x="416" y="-902.3" font-family="Times,serif" font-size="14.00" fill="#0058ad">w 124 11</text>
<polyline fill="none" stroke="#0058ad" points="457.5,-891.5 457.5,-920.5 "/>
<text text-anchor="middle" x="491.5" y="-902.3" font-family="Times,serif" font-size="14.00" fill="#0058ad">r 130 8</text>
<polyline fill="none" stroke="#0058ad" points="525.5,-891.5 525.5,-920.5 "/>
<text text-anchor="middle" x="559.5" y="-902.3" font-family="Times,serif" font-size="14.00" fill="#0058ad">r 131 3</text>
</g>
<!-- T237&#45;&gt;T241 -->
<g id="edge9" class="edge">
<title>T237:f2&#45;&gt;T241:f2</title>
<path fill="none" stroke="#c000a5" d="M416,-891C416,-872.2292 416,-865.1168 416,-850.3535"/>
<polygon fill="#c000a5" stroke="#c000a5" points="419.5001,-850 416,-840 412.5001,-850 419.5001,-850"/>
<text text-anchor="middle" x="425.5" y="-861.8" font-family="Times,serif" font-size="14.00" fill="#c000a5">wr</text>
</g>
<!-- T63 -->
<g id="node10" class="node">
<title>T63</title>
<polygon fill="none" stroke="#0058ad" points="483.5,-.5 483.5,-29.5 874.5,-29.5 874.5,-.5 483.5,-.5"/>
<text text-anchor="middle" x="517.5" y="-11.3" font-family="Times,serif" font-size="14.00" fill="#0058ad">r 125 5</text>
<polyline fill="none" stroke="#0058ad" points="551.5,-.5 551.5,-29.5 "/>
<text text-anchor="middle" x="588.5" y="-11.3" font-family="Times,serif" font-size="14.00" fill="#0058ad">w 122 2</text>
<polyline fill="none" stroke="#0058ad" points="625.5,-.5 625.5,-29.5 "/>
<text text-anchor="middle" x="667" y="-11.3" font-family="Times,serif" font-size="14.00" fill="#0058ad">w 127 28</text>
<polyline fill="none" stroke="#0058ad" points="708.5,-.5 708.5,-29.5 "/>
<text text-anchor="middle" x="750" y="-11.3" font-family="Times,serif" font-size="14.00" fill="#0058ad">w 127 29</text>
<polyline fill="none" stroke="#0058ad" points="791.5,-.5 791.5,-29.5 "/>
<text text-anchor="middle" x="833" y="-11.3" font-family="Times,serif" font-size="14.00" fill="#0058ad">w 127 30</text>
</g>
<!-- T63&#45;&gt;T165 -->
<g id="edge10" class="edge">
<title>T63:f1&#45;&gt;T165:f2</title>
<path fill="none" stroke="#c000a5" d="M588,-30C588,-62.9968 622,-63.0032 622,-96 622,-1149 622,-1149 622,-1149 622,-1175.6227 608.8679,-1183.0322 605.6875,-1205.0018"/>
<polygon fill="#c000a5" stroke="#c000a5" points="602.1943,-1204.7834 605,-1215 609.1778,-1205.2637 602.1943,-1204.7834"/>
<text text-anchor="middle" x="631.5" y="-618.8" font-family="Times,serif" font-size="14.00" fill="#c000a5">wr</text>
</g>
<!-- T307&#45;&gt;T309 -->
<g id="edge11" class="edge">
<title>T307&#45;&gt;T309</title>
<path fill="none" stroke="#0050c0" d="M267,-567.1434C267,-555.6112 267,-539.3668 267,-525.8626"/>
<polygon fill="#0050c0" stroke="#0050c0" points="270.5001,-525.7624 267,-515.7625 263.5001,-525.7625 270.5001,-525.7624"/>
<text text-anchor="middle" x="273.5" y="-537.8" font-family="Times,serif" font-size="14.00" fill="#0050c0">rt</text>
</g>
<!-- T169&#45;&gt;T201 -->
<g id="edge12" class="edge">
<title>T169:f1&#45;&gt;T201:f1</title>
<path fill="none" stroke="#c000a5" d="M428,-1134C428,-1106.7639 391.25,-1111.9757 382.0625,-1092.8516"/>
<polygon fill="#c000a5" stroke="#c000a5" points="385.475,-1092.0706 380,-1083 378.6235,-1093.505 385.475,-1092.0706"/>
<text text-anchor="middle" x="428.5" y="-1104.8" font-family="Times,serif" font-size="14.00" fill="#c000a5">wr</text>
</g>
<!-- T19&#45;&gt;T25 -->
<g id="edge13" class="edge">
<title>T19:f3&#45;&gt;T25:f2</title>
<path fill="none" stroke="#c000a5" d="M298,-243C298,-223.8204 292.4097,-217.1013 290.5753,-202.0103"/>
<polygon fill="#c000a5" stroke="#c000a5" points="294.0681,-201.7827 290,-192 287.0797,-202.1844 294.0681,-201.7827"/>
<text text-anchor="middle" x="305.5" y="-213.8" font-family="Times,serif" font-size="14.00" fill="#c000a5">wr</text>
</g>
<!-- T311&#45;&gt;T7 -->
<g id="edge14" class="edge">
<title>T311:f2&#45;&gt;T7:f2</title>
<path fill="none" stroke="#c000a5" d="M305,-405C305,-386.2256 304.3142,-379.1185 304.0785,-364.3548"/>
<polygon fill="#c000a5" stroke="#c000a5" points="307.5758,-363.9732 304,-354 300.576,-364.0263 307.5758,-363.9732"/>
<text text-anchor="middle" x="314.5" y="-375.8" font-family="Times,serif" font-size="14.00" fill="#c000a5">wr</text>
</g>
<!-- T235&#45;&gt;T237 -->
<g id="edge15" class="edge">
<title>T235&#45;&gt;T237</title>
<path fill="none" stroke="#0050c0" d="M480.5102,-972.1434C468.4832,-959.8119 451.2012,-942.0924 437.5512,-928.0968"/>
<polygon fill="#0050c0" stroke="#0050c0" points="439.8857,-925.4776 430.398,-920.7625 434.8745,-930.3651 439.8857,-925.4776"/>
<text text-anchor="middle" x="469.5" y="-942.8" font-family="Times,serif" font-size="14.00" fill="#0050c0">rt</text>
</g>
<!-- T27&#45;&gt;T63 -->
<g id="edge16" class="edge">
<title>T27:f1&#45;&gt;T63:f0</title>
<path fill="none" stroke="#c000a5" d="M415,-81C415,-42.3381 436.8109,-19.041 472.9684,-15.479"/>
<polygon fill="#c000a5" stroke="#c000a5" points="473.1784,-18.9731 483,-15 472.8444,-11.981 473.1784,-18.9731"/>
<text text-anchor="middle" x="431.5" y="-51.8" font-family="Times,serif" font-size="14.00" fill="#c000a5">wr</text>
</g>
</g>
</svg>
