<?xml version="1.0" encoding="UTF-8" standalone="no"?>
<!DOCTYPE svg PUBLIC "-//W3C//DTD SVG 1.1//EN"
 "http://www.w3.org/Graphics/SVG/1.1/DTD/svg11.dtd">
<!-- Generated by graphviz version 2.40.1 (20161225.0304)
 -->
<!-- Title: a_graph Pages: 1 -->
<svg width="359pt" height="281pt"
 viewBox="0.00 0.00 358.87 281.00" xmlns="http://www.w3.org/2000/svg" xmlns:xlink="http://www.w3.org/1999/xlink">
<g id="graph0" class="graph" transform="scale(1 1) rotate(0) translate(4 277)">
<title>a_graph</title>
<polygon fill="#ffffff" stroke="transparent" points="-4,4 -4,-277 354.8685,-277 354.8685,4 -4,4"/>
<!-- T109999 -->
<g id="node1" class="node">
<title>T109999</title>
<polygon fill="none" stroke="#0058ad" points="139.5,-243.5 139.5,-272.5 267.5,-272.5 267.5,-243.5 139.5,-243.5"/>
<text text-anchor="middle" x="203.5" y="-254.3" font-family="Times,serif" font-size="14.00" fill="#0058ad">r 1702 [1 3 4 8]</text>
</g>
<!-- T110173 -->
<g id="node4" class="node">
<title>T110173</title>
<polygon fill="none" stroke="#0058ad" points="0,-162.5 0,-191.5 165,-191.5 165,-162.5 0,-162.5"/>
<text text-anchor="middle" x="39.5" y="-173.3" font-family="Times,serif" font-size="14.00" fill="#0058ad">a 1702 9</text>
<polyline fill="none" stroke="#0058ad" points="79,-162.5 79,-191.5 "/>
<text text-anchor="middle" x="122" y="-173.3" font-family="Times,serif" font-size="14.00" fill="#0058ad">r 1700 nil</text>
</g>
<!-- T109999&#45;&gt;T110173 -->
<g id="edge1" class="edge">
<title>T109999:f0&#45;&gt;T110173:f0</title>
<path fill="none" stroke="#5b00c0" d="M155.1816,-243.4303C115.8762,-230.9994 64.0741,-213.1237 46.0302,-200.1079"/>
<polygon fill="#5b00c0" stroke="#5b00c0" points="48.4985,-197.5927 39.5,-192 43.0468,-201.9835 48.4985,-197.5927"/>
<text text-anchor="middle" x="107" y="-213.8" font-family="Times,serif" font-size="14.00" fill="#5b00c0">rw</text>
</g>
<!-- T109793 -->
<g id="node2" class="node">
<title>T109793</title>
<polygon fill="none" stroke="#0058ad" points="171,-.5 171,-29.5 250,-29.5 250,-.5 171,-.5"/>
<text text-anchor="middle" x="210.5" y="-11.3" font-family="Times,serif" font-size="14.00" fill="#0058ad">a 1702 1</text>
</g>
<!-- T109793&#45;&gt;T109999 -->
<g id="edge3" class="edge">
<title>T109793&#45;&gt;T109999</title>
<path fill="none" stroke="#0050c0" d="M250.3531,-24.0607C297.2474,-36.9946 366.4881,-64.4819 347.5,-111 324.8474,-166.4955 270.0334,-212.3909 234.9451,-237.4321"/>
<polygon fill="#0050c0" stroke="#0050c0" points="232.6762,-234.7476 226.481,-243.3424 236.6838,-240.4869 232.6762,-234.7476"/>
<text text-anchor="middle" x="344" y="-132.8" font-family="Times,serif" font-size="14.00" fill="#0050c0">rt</text>
</g>
<!-- T109793&#45;&gt;T110173 -->
<g id="edge2" class="edge">
<title>T109793&#45;&gt;T110173</title>
<path fill="none" stroke="#0050c0" d="M170.8196,-20.3294C135.1494,-27.4524 84.7544,-43.8297 60.5,-81 46.1578,-102.9798 56.923,-133.1138 67.8439,-153.7223"/>
<polygon fill="#0050c0" stroke="#0050c0" points="64.8142,-155.4751 72.7829,-162.4572 70.9076,-152.0297 64.8142,-155.4751"/>
<text text-anchor="middle" x="67" y="-92.3" font-family="Times,serif" font-size="14.00" fill="#0050c0">rt</text>
</g>
<!-- T109776 -->
<g id="node3" class="node">
<title>T109776</title>
<polygon fill="none" stroke="#0058ad" points="83,-81.5 83,-110.5 338,-110.5 338,-81.5 83,-81.5"/>
<text text-anchor="middle" x="122.5" y="-92.3" font-family="Times,serif" font-size="14.00" fill="#0058ad">a 1700 1</text>
<polyline fill="none" stroke="#0058ad" points="162,-81.5 162,-110.5 "/>
<text text-anchor="middle" x="206" y="-92.3" font-family="Times,serif" font-size="14.00" fill="#0058ad">r 1700 [1]</text>
<polyline fill="none" stroke="#0058ad" points="250,-81.5 250,-110.5 "/>
<text text-anchor="middle" x="294" y="-92.3" font-family="Times,serif" font-size="14.00" fill="#0058ad">a 1697 22</text>
</g>
<!-- T109776&#45;&gt;T109793 -->
<g id="edge4" class="edge">
<title>T109776&#45;&gt;T109793</title>
<path fill="none" stroke="#0050c0" d="M210.5,-81.1434C210.5,-69.6112 210.5,-53.3668 210.5,-39.8626"/>
<polygon fill="#0050c0" stroke="#0050c0" points="214.0001,-39.7624 210.5,-29.7625 207.0001,-39.7625 214.0001,-39.7624"/>
<text text-anchor="middle" x="217" y="-51.8" font-family="Times,serif" font-size="14.00" fill="#0050c0">rt</text>
</g>
<!-- T110173&#45;&gt;T109776 -->
<g id="edge5" class="edge">
<title>T110173:f1&#45;&gt;T109776:f0</title>
<path fill="none" stroke="#5b00c0" d="M122.5,-162C122.5,-143.2292 122.5,-136.1168 122.5,-121.3535"/>
<polygon fill="#5b00c0" stroke="#5b00c0" points="126.0001,-121 122.5,-111 119.0001,-121 126.0001,-121"/>
<text text-anchor="middle" x="132" y="-132.8" font-family="Times,serif" font-size="14.00" fill="#5b00c0">rw</text>
</g>
</g>
</svg>
