<?xml version="1.0" encoding="UTF-8" standalone="no"?>
<!DOCTYPE svg PUBLIC "-//W3C//DTD SVG 1.1//EN"
 "http://www.w3.org/Graphics/SVG/1.1/DTD/svg11.dtd">
<!-- Generated by graphviz version 2.40.1 (20161225.0304)
 -->
<!-- Title: a_graph Pages: 1 -->
<svg width="474pt" height="281pt"
 viewBox="0.00 0.00 473.50 281.00" xmlns="http://www.w3.org/2000/svg" xmlns:xlink="http://www.w3.org/1999/xlink">
<g id="graph0" class="graph" transform="scale(1 1) rotate(0) translate(4 277)">
<title>a_graph</title>
<polygon fill="#ffffff" stroke="transparent" points="-4,4 -4,-277 469.5,-277 469.5,4 -4,4"/>
<!-- T111329 -->
<g id="node1" class="node">
<title>T111329</title>
<polygon fill="none" stroke="#0058ad" points="262.5,-243.5 262.5,-272.5 372.5,-272.5 372.5,-243.5 262.5,-243.5"/>
<text text-anchor="middle" x="317.5" y="-254.3" font-family="Times,serif" font-size="14.00" fill="#0058ad">r 1711 [3 22]</text>
</g>
<!-- T111363 -->
<g id="node3" class="node">
<title>T111363</title>
<polygon fill="none" stroke="#0058ad" points="18.5,-162.5 18.5,-191.5 316.5,-191.5 316.5,-162.5 18.5,-162.5"/>
<text text-anchor="middle" x="80.5" y="-173.3" font-family="Times,serif" font-size="14.00" fill="#0058ad">r 1714 [1 3 19]</text>
<polyline fill="none" stroke="#0058ad" points="142.5,-162.5 142.5,-191.5 "/>
<text text-anchor="middle" x="185.5" y="-173.3" font-family="Times,serif" font-size="14.00" fill="#0058ad">r 1717 nil</text>
<polyline fill="none" stroke="#0058ad" points="228.5,-162.5 228.5,-191.5 "/>
<text text-anchor="middle" x="272.5" y="-173.3" font-family="Times,serif" font-size="14.00" fill="#0058ad">a 1711 17</text>
</g>
<!-- T111329&#45;&gt;T111363 -->
<g id="edge1" class="edge">
<title>T111329:f0&#45;&gt;T111363:f2</title>
<path fill="none" stroke="#5b00c0" d="M299.973,-243.3812C289.5094,-233.2292 277.5354,-218.6355 273.7284,-202.3409"/>
<polygon fill="#5b00c0" stroke="#5b00c0" points="277.1553,-201.5173 272.5,-192 270.2042,-202.3431 277.1553,-201.5173"/>
<text text-anchor="middle" x="292" y="-213.8" font-family="Times,serif" font-size="14.00" fill="#5b00c0">rw</text>
</g>
<!-- T111017 -->
<g id="node2" class="node">
<title>T111017</title>
<polygon fill="none" stroke="#0058ad" points="0,-81.5 0,-110.5 255,-110.5 255,-81.5 0,-81.5"/>
<text text-anchor="middle" x="39.5" y="-92.3" font-family="Times,serif" font-size="14.00" fill="#0058ad">a 1717 1</text>
<polyline fill="none" stroke="#0058ad" points="79,-81.5 79,-110.5 "/>
<text text-anchor="middle" x="123" y="-92.3" font-family="Times,serif" font-size="14.00" fill="#0058ad">r 1717 [1]</text>
<polyline fill="none" stroke="#0058ad" points="167,-81.5 167,-110.5 "/>
<text text-anchor="middle" x="211" y="-92.3" font-family="Times,serif" font-size="14.00" fill="#0058ad">a 1715 32</text>
</g>
<!-- T111331 -->
<g id="node4" class="node">
<title>T111331</title>
<polygon fill="none" stroke="#0058ad" points="289.5,-.5 289.5,-29.5 465.5,-29.5 465.5,-.5 289.5,-.5"/>
<text text-anchor="middle" x="333.5" y="-11.3" font-family="Times,serif" font-size="14.00" fill="#0058ad">a 1711 22</text>
<polyline fill="none" stroke="#0058ad" points="377.5,-.5 377.5,-29.5 "/>
<text text-anchor="middle" x="421.5" y="-11.3" font-family="Times,serif" font-size="14.00" fill="#0058ad">a 1719 23</text>
</g>
<!-- T111017&#45;&gt;T111331 -->
<g id="edge2" class="edge">
<title>T111017&#45;&gt;T111331</title>
<path fill="none" stroke="#0050c0" d="M172.4837,-81.4253C214.6558,-67.7615 277.7907,-47.3058 322.846,-32.7079"/>
<polygon fill="#0050c0" stroke="#0050c0" points="324.0221,-36.006 332.4564,-29.5941 321.8645,-29.3468 324.0221,-36.006"/>
<text text-anchor="middle" x="281" y="-51.8" font-family="Times,serif" font-size="14.00" fill="#0050c0">rt</text>
</g>
<!-- T111363&#45;&gt;T111017 -->
<g id="edge3" class="edge">
<title>T111363:f1&#45;&gt;T111017:f0</title>
<path fill="none" stroke="#5b00c0" d="M185.5,-162C185.5,-97.025 55.0321,-170.7406 40.7622,-120.9349"/>
<polygon fill="#5b00c0" stroke="#5b00c0" points="44.2325,-120.4791 39.5,-111 37.2883,-121.3614 44.2325,-120.4791"/>
<text text-anchor="middle" x="190" y="-132.8" font-family="Times,serif" font-size="14.00" fill="#5b00c0">rw</text>
</g>
<!-- T111331&#45;&gt;T111329 -->
<g id="edge4" class="edge">
<title>T111331:f0&#45;&gt;T111329:f0</title>
<path fill="none" stroke="#c000a5" d="M333.5,-30C333.5,-102.0877 331.6189,-120.1724 325.5,-192 324.3331,-205.6982 322.5202,-220.9372 320.9151,-233.3178"/>
<polygon fill="#c000a5" stroke="#c000a5" points="317.4297,-232.9769 319.5795,-243.3513 324.3685,-233.9006 317.4297,-232.9769"/>
<text text-anchor="middle" x="340" y="-132.8" font-family="Times,serif" font-size="14.00" fill="#c000a5">wr</text>
</g>
<!-- T111331&#45;&gt;T111363 -->
<g id="edge5" class="edge">
<title>T111331:f0&#45;&gt;T111363:f2</title>
<path fill="none" stroke="#c02700" d="M289.5,-15C259.4416,-15 270.13,-110.3448 272.1891,-151.8462"/>
<polygon fill="#c02700" stroke="#c02700" points="268.6955,-152.1118 272.5,-162 275.6922,-151.8975 268.6955,-152.1118"/>
<text text-anchor="middle" x="282" y="-92.3" font-family="Times,serif" font-size="14.00" fill="#c02700">ww</text>
</g>
</g>
</svg>
